STARTFONT 2.1
FONT -baekmuk-batang-bold-r-normal--20-200-75-75-m-200-ksx1001.1997-0
SIZE 20 75 75
FONTBOUNDINGBOX 20 20 0 -4
STARTPROPERTIES 18
FOUNDRY "baekmuk"
FAMILY_NAME "batang"
WEIGHT_NAME "bold"
SLANT "r"
SETWIDTH_NAME "normal"
ADD_STYLE_NAME ""
PIXEL_SIZE 20
POINT_SIZE 200
RESOLUTION_X 75
RESOLUTION_Y 75
SPACING "m"
AVERAGE_WIDTH 200
CHARSET_REGISTRY "ksx1001.1997"
CHARSET_ENCODING "0"
DEFAULT_CHAR 8481
FONT_ASCENT 16
FONT_DESCENT 4
COPYRIGHT "(c)Hwan Design Inc. and Mizi Research Inc."
ENDPROPERTIES
CHARS 8928
STARTCHAR C020440
ENCODING 8480
SWIDTH 2000 0
DWIDTH 20 0
BBX 0 0 0 0
BITMAP
ENDCHAR
STARTCHAR C020441
ENCODING 8481
SWIDTH 2000 0
DWIDTH 20 0
BBX 0 0 0 0
BITMAP
ENDCHAR
STARTCHAR C020442
ENCODING 8482
SWIDTH 2000 0
DWIDTH 20 0
BBX 4 3 15 12
BITMAP
E0
70
70
ENDCHAR
STARTCHAR C020443
ENCODING 8483
SWIDTH 2000 0
DWIDTH 20 0
BBX 6 4 13 11
BITMAP
78
CC
CC
78
ENDCHAR
STARTCHAR C020444
ENCODING 8484
SWIDTH 2000 0
DWIDTH 20 0
BBX 4 2 9 5
BITMAP
F0
F0
ENDCHAR
STARTCHAR C020445
ENCODING 8485
SWIDTH 2000 0
DWIDTH 20 0
BBX 13 2 4 5
BITMAP
F018
F018
ENDCHAR
STARTCHAR C020446
ENCODING 8486
SWIDTH 2000 0
DWIDTH 20 0
BBX 13 2 4 5
BITMAP
C318
C318
ENDCHAR
STARTCHAR C020447
ENCODING 8487
SWIDTH 2000 0
DWIDTH 20 0
BBX 8 2 6 5
BITMAP
C3
C3
ENDCHAR
STARTCHAR C020450
ENCODING 8488
SWIDTH 2000 0
DWIDTH 20 0
BBX 7 6 7 3
BITMAP
7E
6C
6C
6C
D8
D8
ENDCHAR
STARTCHAR C020451
ENCODING 8489
SWIDTH 2000 0
DWIDTH 20 0
BBX 7 1 7 5
BITMAP
FE
ENDCHAR
STARTCHAR C020452
ENCODING 8490
SWIDTH 2000 0
DWIDTH 20 0
BBX 19 1 1 5
BITMAP
FFFFE0
ENDCHAR
STARTCHAR C020453
ENCODING 8491
SWIDTH 2000 0
DWIDTH 20 0
BBX 2 16 11 -2
BITMAP
C0
C0
C0
C0
C0
C0
C0
C0
C0
C0
C0
C0
C0
C0
C0
C0
ENDCHAR
STARTCHAR C020454
ENCODING 8492
SWIDTH 2000 0
DWIDTH 20 0
BBX 18 16 2 -2
BITMAP
C00000
600000
300000
180000
0C0000
060000
030000
018000
00C000
006000
003000
001C00
000E00
000700
000380
0001C0
ENDCHAR
STARTCHAR C020455
ENCODING 8493
SWIDTH 2000 0
DWIDTH 20 0
BBX 13 4 4 4
BITMAP
3C00
EE00
C7B8
01F0
ENDCHAR
STARTCHAR C020456
ENCODING 8494
SWIDTH 2000 0
DWIDTH 20 0
BBX 3 4 14 11
BITMAP
C0
C0
E0
E0
ENDCHAR
STARTCHAR C020457
ENCODING 8495
SWIDTH 2000 0
DWIDTH 20 0
BBX 3 5 4 11
BITMAP
E0
E0
60
60
C0
ENDCHAR
STARTCHAR C020460
ENCODING 8496
SWIDTH 2000 0
DWIDTH 20 0
BBX 8 5 11 11
BITMAP
30
66
66
F7
77
ENDCHAR
STARTCHAR C020461
ENCODING 8497
SWIDTH 2000 0
DWIDTH 20 0
BBX 8 5 2 11
BITMAP
0E
EF
E6
66
CC
ENDCHAR
STARTCHAR C020462
ENCODING 8498
SWIDTH 2000 0
DWIDTH 20 0
BBX 5 18 14 -3
BITMAP
38
E0
C0
C0
C0
C0
C0
C0
C0
C0
C0
C0
C0
C0
C0
C0
E0
38
ENDCHAR
STARTCHAR C020463
ENCODING 8499
SWIDTH 2000 0
DWIDTH 20 0
BBX 5 18 2 -3
BITMAP
E0
38
18
18
18
18
18
18
18
18
18
18
18
18
18
18
78
C0
ENDCHAR
STARTCHAR C020464
ENCODING 8500
SWIDTH 2000 0
DWIDTH 20 0
BBX 8 17 12 -3
BITMAP
03
06
0C
0C
18
30
60
C0
C0
E0
60
30
18
0C
0E
06
03
ENDCHAR
STARTCHAR C020465
ENCODING 8501
SWIDTH 2000 0
DWIDTH 20 0
BBX 8 17 1 -3
BITMAP
C0
60
30
30
18
0C
06
07
03
03
06
0C
18
38
30
60
C0
ENDCHAR
STARTCHAR C020466
ENCODING 8502
SWIDTH 2000 0
DWIDTH 20 0
BBX 9 17 11 -3
BITMAP
0780
0F00
0E00
1E00
3C00
3C00
7800
7000
F000
7800
7800
3C00
3600
1E00
0F00
0F00
0780
ENDCHAR
STARTCHAR C020467
ENCODING 8503
SWIDTH 2000 0
DWIDTH 20 0
BBX 8 17 1 -3
BITMAP
F0
D8
78
3C
3C
1E
1B
0F
07
0F
1E
1E
3C
38
78
F0
F0
ENDCHAR
STARTCHAR C020470
ENCODING 8504
SWIDTH 2000 0
DWIDTH 20 0
BBX 8 10 12 6
BITMAP
FF
C0
C0
C0
C0
C0
C0
C0
C0
C0
ENDCHAR
STARTCHAR C020471
ENCODING 8505
SWIDTH 2000 0
DWIDTH 20 0
BBX 8 10 1 -4
BITMAP
03
03
03
03
03
03
03
03
03
FF
ENDCHAR
STARTCHAR C020472
ENCODING 8506
SWIDTH 2000 0
DWIDTH 20 0
BBX 8 10 12 6
BITMAP
FF
C3
FF
E0
E0
E0
E0
E0
E0
E0
ENDCHAR
STARTCHAR C020473
ENCODING 8507
SWIDTH 2000 0
DWIDTH 20 0
BBX 8 9 1 -4
BITMAP
07
07
07
07
07
07
FF
C3
FF
ENDCHAR
STARTCHAR C020474
ENCODING 8508
SWIDTH 2000 0
DWIDTH 20 0
BBX 7 18 13 -3
BITMAP
FC
FC
F8
F8
F8
F0
F0
F0
F0
F0
F0
F0
F0
F8
F8
F8
FC
FE
ENDCHAR
STARTCHAR C020475
ENCODING 8509
SWIDTH 2000 0
DWIDTH 20 0
BBX 6 18 2 -3
BITMAP
FC
FC
7C
7C
7C
3C
3C
3C
3C
3C
3C
3C
3C
7C
7C
7C
FC
FC
ENDCHAR
STARTCHAR C020476
ENCODING 8510
SWIDTH 2000 0
DWIDTH 20 0
BBX 14 13 4 0
BITMAP
0300
0300
0300
0300
0300
FFFC
0300
0300
0300
0300
0300
0000
FFF8
ENDCHAR
STARTCHAR C020477
ENCODING 8511
SWIDTH 2000 0
DWIDTH 20 0
BBX 13 12 4 0
BITMAP
C018
6030
3060
18C0
0D80
0700
0700
0D80
18C0
3060
6030
C018
ENDCHAR
STARTCHAR C020500
ENCODING 8512
SWIDTH 2000 0
DWIDTH 20 0
BBX 15 12 3 0
BITMAP
0300
0300
0000
0000
0000
0000
FFFE
0000
0000
0000
0300
0300
ENDCHAR
STARTCHAR C020501
ENCODING 8513
SWIDTH 2000 0
DWIDTH 20 0
BBX 15 12 3 0
BITMAP
0600
0600
0300
0300
FFFE
0300
0180
FFFE
0180
00C0
00C0
00C0
ENDCHAR
STARTCHAR C020502
ENCODING 8514
SWIDTH 2000 0
DWIDTH 20 0
BBX 15 11 3 0
BITMAP
001C
00F0
0380
1E00
7000
3800
0F00
01E0
0038
000C
FFFE
ENDCHAR
STARTCHAR C020503
ENCODING 8515
SWIDTH 2000 0
DWIDTH 20 0
BBX 13 11 4 0
BITMAP
7000
1C00
0700
01E0
0038
0070
03C0
1E00
7000
0000
FFF8
ENDCHAR
STARTCHAR C020504
ENCODING 8516
SWIDTH 2000 0
DWIDTH 20 0
BBX 17 8 2 2
BITMAP
1C1E00
777300
C1C180
C1C180
C0C180
C1C180
636300
3E3E00
ENDCHAR
STARTCHAR C020505
ENCODING 8517
SWIDTH 2000 0
DWIDTH 20 0
BBX 13 10 4 1
BITMAP
0F00
0F00
0000
0000
0000
0000
0000
0000
F078
F078
ENDCHAR
STARTCHAR C020506
ENCODING 8518
SWIDTH 2000 0
DWIDTH 20 0
BBX 6 5 2 11
BITMAP
70
D8
CC
D8
78
ENDCHAR
STARTCHAR C020507
ENCODING 8519
SWIDTH 2000 0
DWIDTH 20 0
BBX 5 5 2 11
BITMAP
38
70
60
C0
C0
ENDCHAR
STARTCHAR C020510
ENCODING 8520
SWIDTH 2000 0
DWIDTH 20 0
BBX 8 4 2 12
BITMAP
37
76
6E
CC
ENDCHAR
STARTCHAR C020511
ENCODING 8521
SWIDTH 2000 0
DWIDTH 20 0
BBX 15 15 3 0
BITMAP
F800
D9F0
DF9E
F60E
0E06
0C06
0C00
0C00
0C00
0C00
0C00
0E06
060C
0718
01F0
ENDCHAR
STARTCHAR C020512
ENCODING 8522
SWIDTH 2000 0
DWIDTH 20 0
BBX 17 16 2 0
BITMAP
03E000
036000
036000
01C000
01C000
01C000
03E000
03E000
067000
067000
0FF800
0C3800
181C00
181C00
380E00
FC3F80
ENDCHAR
STARTCHAR C020513
ENCODING 8523
SWIDTH 2000 0
DWIDTH 20 0
BBX 18 16 2 -1
BITMAP
000040
03FDC0
063F00
1C1E00
180C00
301800
303000
306000
30C000
318000
330000
1E0300
1C0600
1F1C00
33F000
E00000
ENDCHAR
STARTCHAR C020514
ENCODING 8524
SWIDTH 2000 0
DWIDTH 20 0
BBX 13 15 4 -1
BITMAP
01E0
0738
0638
0E38
0E00
0E00
0E00
7FE0
0E00
0E00
7E00
DE18
DFF0
F1E0
6000
ENDCHAR
STARTCHAR C020515
ENCODING 8525
SWIDTH 2000 0
DWIDTH 20 0
BBX 13 14 4 0
BITMAP
FE00
3878
3860
1C60
0EC0
7FF8
0780
0700
7FF8
0300
0300
0300
0300
0FC0
ENDCHAR
STARTCHAR C020516
ENCODING 8526
SWIDTH 2000 0
DWIDTH 20 0
BBX 10 17 6 -3
BITMAP
0C00
1E00
3F00
3F00
6D80
CCC0
0C00
0C00
0C00
0C00
3F00
6380
C180
C180
C180
E380
3E00
ENDCHAR
STARTCHAR C020517
ENCODING 8527
SWIDTH 2000 0
DWIDTH 20 0
BBX 14 17 4 -3
BITMAP
0FC0
18E0
3060
3060
3060
18E0
0F80
0300
0300
FFFC
0300
0300
0300
0300
0300
0300
0300
ENDCHAR
STARTCHAR C020520
ENCODING 8528
SWIDTH 2000 0
DWIDTH 20 0
BBX 14 11 3 0
BITMAP
0018
0030
00E0
01C0
0300
0600
0C00
1800
3000
6000
FFFC
ENDCHAR
STARTCHAR C020521
ENCODING 8529
SWIDTH 2000 0
DWIDTH 20 0
BBX 14 11 4 0
BITMAP
0300
0300
0300
0300
0300
0300
0300
0300
0300
0300
FFFC
ENDCHAR
STARTCHAR C020522
ENCODING 8530
SWIDTH 2000 0
DWIDTH 20 0
BBX 13 3 4 12
BITMAP
3FE0
6030
C018
ENDCHAR
STARTCHAR C020523
ENCODING 8531
SWIDTH 2000 0
DWIDTH 20 0
BBX 9 14 6 0
BITMAP
1E00
3F00
6380
0180
0180
0180
3D80
7780
6300
C300
C700
C600
CE00
7C00
ENDCHAR
STARTCHAR C020524
ENCODING 8532
SWIDTH 2000 0
DWIDTH 20 0
BBX 17 12 2 0
BITMAP
FFFF80
600300
600300
300600
180C00
180C00
0C1800
063000
063000
036000
01C000
01C000
ENDCHAR
STARTCHAR C020525
ENCODING 8533
SWIDTH 2000 0
DWIDTH 20 0
BBX 15 7 3 2
BITMAP
FFFE
0000
0000
FFFE
0000
0000
FFFE
ENDCHAR
STARTCHAR C020526
ENCODING 8534
SWIDTH 2000 0
DWIDTH 20 0
BBX 15 11 3 0
BITMAP
3000
3000
0000
FFFE
0000
0000
FFFE
0000
0000
0018
0018
ENDCHAR
STARTCHAR C020527
ENCODING 8535
SWIDTH 2000 0
DWIDTH 20 0
BBX 8 17 6 -3
BITMAP
7C
CE
CF
E6
F0
78
7C
E6
E3
F3
7E
7C
1E
0F
E7
E7
7E
ENDCHAR
STARTCHAR C020530
ENCODING 8536
SWIDTH 2000 0
DWIDTH 20 0
BBX 13 12 4 0
BITMAP
C798
67B0
37E0
18C0
0D80
F778
F778
FDF8
18C0
37E0
67B0
C798
ENDCHAR
STARTCHAR C020531
ENCODING 8537
SWIDTH 2000 0
DWIDTH 20 0
BBX 17 14 2 -1
BITMAP
01C000
01C000
03C000
036000
FF7F80
600300
300600
181C00
0C1800
0C1800
0DD800
1B7800
1E3C00
181C00
ENDCHAR
STARTCHAR C020532
ENCODING 8538
SWIDTH 2000 0
DWIDTH 20 0
BBX 16 14 3 -1
BITMAP
0180
0380
0380
07C0
07C0
FFFF
7FFC
3FF8
1FF0
1FF0
1FF0
1FF0
3C78
3838
ENDCHAR
STARTCHAR C020533
ENCODING 8539
SWIDTH 2000 0
DWIDTH 20 0
BBX 17 16 2 -2
BITMAP
07F000
1C1C00
380E00
700700
600300
C00180
C00180
C00180
C00180
C00180
C00180
600300
700700
380E00
1C1C00
07F000
ENDCHAR
STARTCHAR C020534
ENCODING 8540
SWIDTH 2000 0
DWIDTH 20 0
BBX 17 16 2 -2
BITMAP
07F000
1FFC00
3FFE00
7FFF00
7FFF80
FFFF80
FFFF80
FFFF80
FFFF80
FFFF80
FFFF80
7FFF80
7FFF00
3FFE00
1FFC00
07F000
ENDCHAR
STARTCHAR C020535
ENCODING 8541
SWIDTH 2000 0
DWIDTH 20 0
BBX 17 16 2 -2
BITMAP
07F000
1C1C00
380E00
77E700
6C3300
D81980
F00D80
F00D80
F00D80
F00D80
F81D80
781B00
7E7700
3FEE00
1C1C00
07F000
ENDCHAR
STARTCHAR C020536
ENCODING 8542
SWIDTH 2000 0
DWIDTH 20 0
BBX 19 18 1 -3
BITMAP
006000
01F000
03B800
071C00
0E0E00
1C0700
380380
7001C0
E000E0
C00060
6000C0
300180
180300
0C0600
060C00
031800
01B000
00E000
ENDCHAR
STARTCHAR C020537
ENCODING 8543
SWIDTH 2000 0
DWIDTH 20 0
BBX 19 18 1 -3
BITMAP
00C000
01F000
03F800
07FC00
0FFE00
1FFF00
3FFF80
7FFFC0
FFFFE0
FFFFE0
7FFFC0
3FFF80
1FFF00
0FFC00
07F800
03F000
01E000
00C000
ENDCHAR
STARTCHAR C020540
ENCODING 8544
SWIDTH 2000 0
DWIDTH 20 0
BBX 17 16 2 -2
BITMAP
FFFF80
C00180
C00180
C00180
C00180
C00180
C00180
C00180
C00180
C00180
C00180
C00180
C00180
C00180
C00180
FFFF80
ENDCHAR
STARTCHAR C020541
ENCODING 8545
SWIDTH 2000 0
DWIDTH 20 0
BBX 17 15 2 -2
BITMAP
FFFF80
FFFF80
FFFF80
FFFF80
FFFF80
FFFF80
FFFF80
FFFF80
FFFF80
FFFF80
FFFF80
FFFF80
FFFF80
FFFF80
FFFF80
ENDCHAR
STARTCHAR C020542
ENCODING 8546
SWIDTH 2000 0
DWIDTH 20 0
BBX 17 12 2 0
BITMAP
01C000
036000
036000
063000
0C1800
0C1800
180C00
300C00
300600
600300
C00300
FFFF80
ENDCHAR
STARTCHAR C020543
ENCODING 8547
SWIDTH 2000 0
DWIDTH 20 0
BBX 17 12 2 0
BITMAP
01C000
03E000
03E000
07F000
0FF800
0FF800
1FFC00
1FFC00
3FFE00
7FFF00
7FFF00
FFFF80
ENDCHAR
STARTCHAR C020544
ENCODING 8548
SWIDTH 2000 0
DWIDTH 20 0
BBX 17 12 2 0
BITMAP
FFFF80
C00300
600300
300600
300C00
180C00
0C1800
0C1800
063000
036000
036000
01C000
ENDCHAR
STARTCHAR C020545
ENCODING 8549
SWIDTH 2000 0
DWIDTH 20 0
BBX 17 11 2 0
BITMAP
FFFF80
7FFF00
7FFF00
3FFE00
1FFC00
0FF800
0FF800
07F000
03E000
03E000
01C000
ENDCHAR
STARTCHAR C020546
ENCODING 8550
SWIDTH 2000 0
DWIDTH 20 0
BBX 17 6 2 3
BITMAP
000C00
000700
000380
FFFF80
000700
000C00
ENDCHAR
STARTCHAR C020547
ENCODING 8551
SWIDTH 2000 0
DWIDTH 20 0
BBX 18 6 1 3
BITMAP
0C0000
380000
F00000
7FFFC0
380000
0C0000
ENDCHAR
STARTCHAR C020550
ENCODING 8552
SWIDTH 2000 0
DWIDTH 20 0
BBX 7 18 8 -3
BITMAP
30
38
78
FC
F6
30
30
30
30
30
30
30
30
30
30
30
30
30
ENDCHAR
STARTCHAR C020551
ENCODING 8553
SWIDTH 2000 0
DWIDTH 20 0
BBX 8 18 6 -3
BITMAP
18
18
18
18
18
18
18
18
18
18
18
18
18
DB
7E
3C
38
18
ENDCHAR
STARTCHAR C020552
ENCODING 8554
SWIDTH 2000 0
DWIDTH 20 0
BBX 17 4 2 4
BITMAP
300700
E00380
FFFF80
300700
ENDCHAR
STARTCHAR C020553
ENCODING 8555
SWIDTH 2000 0
DWIDTH 20 0
BBX 15 4 3 4
BITMAP
FFFE
0000
0000
FFFE
ENDCHAR
STARTCHAR C020554
ENCODING 8556
SWIDTH 2000 0
DWIDTH 20 0
BBX 16 14 3 -1
BITMAP
0063
00CE
0398
0E70
18C0
7380
C600
CE00
7380
18C0
0E70
0318
01CE
0063
ENDCHAR
STARTCHAR C020555
ENCODING 8557
SWIDTH 2000 0
DWIDTH 20 0
BBX 16 14 2 -1
BITMAP
C600
7300
19C0
0E70
0318
01CE
0063
0063
01CE
0318
0E70
18C0
7380
C600
ENDCHAR
STARTCHAR C020556
ENCODING 8558
SWIDTH 2000 0
DWIDTH 20 0
BBX 19 18 1 -3
BITMAP
003FE0
003000
003000
006000
006000
00C000
00C000
00C000
018000
018000
330000
7B0000
FB0000
1E0000
1E0000
0E0000
0C0000
0C0000
ENDCHAR
STARTCHAR C020557
ENCODING 8559
SWIDTH 2000 0
DWIDTH 20 0
BBX 17 8 2 2
BITMAP
3E3E00
606300
C0C180
C0C180
C18180
C18180
670300
3E3E00
ENDCHAR
STARTCHAR C020560
ENCODING 8560
SWIDTH 2000 0
DWIDTH 20 0
BBX 15 8 3 2
BITMAP
3E1E
6370
C1C0
C1C0
C1C0
C1C0
6360
3E3E
ENDCHAR
STARTCHAR C020561
ENCODING 8561
SWIDTH 2000 0
DWIDTH 20 0
BBX 11 10 6 1
BITMAP
C060
C060
0000
0000
0000
0000
0000
0000
1E00
1E00
ENDCHAR
STARTCHAR C020562
ENCODING 8562
SWIDTH 2000 0
DWIDTH 20 0
BBX 5 17 8 -3
BITMAP
38
F8
C0
E0
E0
60
60
70
70
30
38
38
18
18
18
F0
F0
ENDCHAR
STARTCHAR C020563
ENCODING 8563
SWIDTH 2000 0
DWIDTH 20 0
BBX 9 17 6 -3
BITMAP
7780
FC00
0C00
CE00
C600
C600
C700
E700
E300
6300
7380
7380
3180
3180
3180
EF00
E600
ENDCHAR
STARTCHAR C020564
ENCODING 8564
SWIDTH 2000 0
DWIDTH 20 0
BBX 15 11 3 0
BITMAP
0FFE
3800
6000
C000
C000
FFFE
C000
C000
6000
3000
1FFE
ENDCHAR
STARTCHAR C020565
ENCODING 8565
SWIDTH 2000 0
DWIDTH 20 0
BBX 15 11 3 0
BITMAP
FFE0
0038
000C
0006
0006
FFFE
0006
0006
000E
001C
FFF0
ENDCHAR
STARTCHAR C020566
ENCODING 8566
SWIDTH 2000 0
DWIDTH 20 0
BBX 14 11 4 0
BITMAP
3FF8
6000
C000
C000
C000
6000
7000
1FFC
0000
0000
FFF8
ENDCHAR
STARTCHAR C020567
ENCODING 8567
SWIDTH 2000 0
DWIDTH 20 0
BBX 14 11 4 0
BITMAP
7FF0
0018
000C
000C
000C
0018
0038
FFE0
0000
0000
FFF8
ENDCHAR
STARTCHAR C020570
ENCODING 8568
SWIDTH 2000 0
DWIDTH 20 0
BBX 16 11 3 0
BITMAP
0FFF
3800
6000
6000
C000
C000
C000
C000
6000
3000
1FFF
ENDCHAR
STARTCHAR C020571
ENCODING 8569
SWIDTH 2000 0
DWIDTH 20 0
BBX 15 11 3 0
BITMAP
FFE0
0038
000C
0006
0006
0006
0006
0006
000C
001C
FFF0
ENDCHAR
STARTCHAR C020572
ENCODING 8570
SWIDTH 2000 0
DWIDTH 20 0
BBX 13 14 4 -1
BITMAP
C018
C018
C018
C018
C018
C018
C018
C018
C018
C018
E038
6030
38E0
1F80
ENDCHAR
STARTCHAR C020573
ENCODING 8571
SWIDTH 2000 0
DWIDTH 20 0
BBX 13 14 4 -1
BITMAP
0FC0
38E0
6030
E038
C018
C018
C018
C018
C018
C018
C018
C018
C018
C018
ENDCHAR
STARTCHAR C020574
ENCODING 8572
SWIDTH 2000 0
DWIDTH 20 0
BBX 13 11 4 0
BITMAP
0700
0700
0D80
18C0
18C0
3060
3060
6030
6030
C018
0018
ENDCHAR
STARTCHAR C020575
ENCODING 8573
SWIDTH 2000 0
DWIDTH 20 0
BBX 15 12 3 0
BITMAP
C006
600C
600C
3018
3018
1830
0C60
0C60
06C0
06C0
0380
0380
ENDCHAR
STARTCHAR C020576
ENCODING 8574
SWIDTH 2000 0
DWIDTH 20 0
BBX 14 9 4 0
BITMAP
FFFC
000C
000C
000C
000C
000C
000C
000C
000C
ENDCHAR
STARTCHAR C020577
ENCODING 8575
SWIDTH 2000 0
DWIDTH 20 0
BBX 0 0 0 0
BITMAP
ENDCHAR
STARTCHAR C021040
ENCODING 8736
SWIDTH 2000 0
DWIDTH 20 0
BBX 1 4 20 4
BITMAP
80
00
00
80
ENDCHAR
STARTCHAR C021041
ENCODING 8737
SWIDTH 2000 0
DWIDTH 20 0
BBX 19 10 1 1
BITMAP
000C00
000700
000380
FFFFC0
000060
000060
FFFFC0
000180
000300
000600
ENDCHAR
STARTCHAR C021042
ENCODING 8738
SWIDTH 2000 0
DWIDTH 20 0
BBX 17 10 2 1
BITMAP
0C1800
180C00
300600
7FFF00
C00180
C00180
7FFF00
300600
180C00
0C1800
ENDCHAR
STARTCHAR C021043
ENCODING 8739
SWIDTH 2000 0
DWIDTH 20 0
BBX 15 14 3 0
BITMAP
C006
600C
600C
3018
3FF8
1830
1830
0C60
0C60
0C60
06C0
06C0
0380
0380
ENDCHAR
STARTCHAR C021044
ENCODING 8740
SWIDTH 2000 0
DWIDTH 20 0
BBX 11 13 5 0
BITMAP
7FE0
0060
0060
0060
0060
0060
FFE0
0060
0060
0060
0060
0060
FFE0
ENDCHAR
STARTCHAR C021045
ENCODING 8741
SWIDTH 2000 0
DWIDTH 20 0
BBX 5 3 8 13
BITMAP
78
E0
C0
ENDCHAR
STARTCHAR C021046
ENCODING 8742
SWIDTH 2000 0
DWIDTH 20 0
BBX 9 3 6 13
BITMAP
7000
FE00
1F80
ENDCHAR
STARTCHAR C021047
ENCODING 8743
SWIDTH 2000 0
DWIDTH 20 0
BBX 9 3 6 13
BITMAP
C180
7700
3E00
ENDCHAR
STARTCHAR C021050
ENCODING 8744
SWIDTH 2000 0
DWIDTH 20 0
BBX 9 3 6 13
BITMAP
C180
C300
7F00
ENDCHAR
STARTCHAR C021051
ENCODING 8745
SWIDTH 2000 0
DWIDTH 20 0
BBX 7 3 7 13
BITMAP
7E
D8
30
ENDCHAR
STARTCHAR C021052
ENCODING 8746
SWIDTH 2000 0
DWIDTH 20 0
BBX 5 4 8 12
BITMAP
70
D8
D8
70
ENDCHAR
STARTCHAR C021053
ENCODING 8747
SWIDTH 2000 0
DWIDTH 20 0
BBX 4 2 9 5
BITMAP
F0
F0
ENDCHAR
STARTCHAR C021054
ENCODING 8748
SWIDTH 2000 0
DWIDTH 20 0
BBX 5 4 8 -3
BITMAP
30
78
30
F0
ENDCHAR
STARTCHAR C021055
ENCODING 8749
SWIDTH 2000 0
DWIDTH 20 0
BBX 3 3 9 -3
BITMAP
C0
00
E0
ENDCHAR
STARTCHAR C021056
ENCODING 8750
SWIDTH 2000 0
DWIDTH 20 0
BBX 3 14 9 0
BITMAP
60
60
00
00
C0
C0
C0
C0
C0
C0
C0
E0
E0
E0
ENDCHAR
STARTCHAR C021057
ENCODING 8751
SWIDTH 2000 0
DWIDTH 20 0
BBX 7 14 7 0
BITMAP
18
18
00
00
0C
0C
0C
7C
F0
C0
C0
C0
6E
3E
ENDCHAR
STARTCHAR C021060
ENCODING 8752
SWIDTH 2000 0
DWIDTH 20 0
BBX 3 8 9 2
BITMAP
E0
E0
00
00
00
00
E0
E0
ENDCHAR
STARTCHAR C021061
ENCODING 8753
SWIDTH 2000 0
DWIDTH 20 0
BBX 8 15 6 -1
BITMAP
07
0C
0C
0C
0C
1C
7E
7E
7E
3C
18
18
30
30
E0
ENDCHAR
STARTCHAR C021062
ENCODING 8754
SWIDTH 2000 0
DWIDTH 20 0
BBX 17 16 2 -2
BITMAP
FFFF80
780180
3C0180
1E0180
0F0180
078180
03C180
00E000
00C000
018000
030000
0E0180
1C0180
380180
7FFF80
FFFF80
ENDCHAR
STARTCHAR C021063
ENCODING 8755
SWIDTH 2000 0
DWIDTH 20 0
BBX 15 16 4 -2
BITMAP
FFFE
3018
3018
3018
3018
3018
3018
3018
3018
3018
3018
3018
3018
3018
3018
FC7E
ENDCHAR
STARTCHAR C021064
ENCODING 8756
SWIDTH 2000 0
DWIDTH 20 0
BBX 15 14 3 -1
BITMAP
C000
6FC6
3C7C
3018
3018
600C
600C
600C
600C
7018
3018
3C78
77CC
E006
ENDCHAR
STARTCHAR C021065
ENCODING 8757
SWIDTH 2000 0
DWIDTH 20 0
BBX 18 14 1 -1
BITMAP
03FF80
78C380
D8C1C0
F8C0C0
78C600
00C600
00FE00
00CE00
00C600
00C000
00C000
00C000
00C000
03F000
ENDCHAR
STARTCHAR C021066
ENCODING 8758
SWIDTH 2000 0
DWIDTH 20 0
BBX 19 17 1 -2
BITMAP
1E0C00
360C00
631800
633000
636000
636000
63C000
378000
3FF3C0
07FFE0
079E60
0D9E60
199E60
319E60
319E60
60F3C0
C0F3C0
ENDCHAR
STARTCHAR C021067
ENCODING 8759
SWIDTH 2000 0
DWIDTH 20 0
BBX 13 16 4 -2
BITMAP
0018
0038
00F8
0398
0618
1C18
3018
E018
E018
3018
1C18
0618
0398
00F8
0038
0018
ENDCHAR
STARTCHAR C021070
ENCODING 8760
SWIDTH 2000 0
DWIDTH 20 0
BBX 13 16 4 -2
BITMAP
0018
0078
00F8
03F8
0FF8
1FF8
7FF8
FFF8
FFF8
7FF8
1FF8
0FF8
03F8
00F8
0078
0018
ENDCHAR
STARTCHAR C021071
ENCODING 8761
SWIDTH 2000 0
DWIDTH 20 0
BBX 13 16 4 -2
BITMAP
C000
E000
F800
CC00
C700
C1C0
C060
C038
C018
C070
C1C0
C300
CE00
F800
E000
C000
ENDCHAR
STARTCHAR C021072
ENCODING 8762
SWIDTH 2000 0
DWIDTH 20 0
BBX 12 14 5 -1
BITMAP
E000
F000
FC00
FF00
FF80
FFE0
FFF0
FFF0
FFE0
FF80
FF00
FC00
F000
E000
ENDCHAR
STARTCHAR C021073
ENCODING 8763
SWIDTH 2000 0
DWIDTH 20 0
BBX 15 17 3 -2
BITMAP
0300
0780
0CC0
0C60
1830
3030
6018
600C
C00C
C006
C006
C006
E6CE
7EFC
0CC0
0CC0
0FE0
ENDCHAR
STARTCHAR C021074
ENCODING 8764
SWIDTH 2000 0
DWIDTH 20 0
BBX 15 16 3 -2
BITMAP
0380
07C0
0FE0
1FF0
1FF8
3FF8
7FFC
7FFE
FFFE
FFFE
FFFE
FFFE
7FFC
0380
07C0
0FC0
ENDCHAR
STARTCHAR C021075
ENCODING 8765
SWIDTH 2000 0
DWIDTH 20 0
BBX 16 16 2 -2
BITMAP
1F7C
3366
61C3
6003
C003
6003
6003
6003
3006
3006
180C
1818
0C30
0630
0360
01C0
ENDCHAR
STARTCHAR C021076
ENCODING 8766
SWIDTH 2000 0
DWIDTH 20 0
BBX 17 17 2 -3
BITMAP
3E3E00
7F7F00
FFFF80
FFFF80
FFFF80
FFFF80
FFFF80
7FFF00
7FFF00
3FFE00
1FFE00
1FFC00
0FF800
07F000
03E000
03E000
01C000
ENDCHAR
STARTCHAR C021077
ENCODING 8767
SWIDTH 2000 0
DWIDTH 20 0
BBX 19 17 1 -2
BITMAP
01F000
031800
060C00
060C00
060C00
060C00
031800
7FBFC0
6000E0
C00060
C00060
C00060
61F8C0
77BFC0
1DB600
033000
03F800
ENDCHAR
STARTCHAR C021100
ENCODING 8768
SWIDTH 2000 0
DWIDTH 20 0
BBX 18 17 1 -2
BITMAP
01F000
03F800
07FC00
07FC00
07FC00
03F800
1FF000
3FFF80
7FFFC0
FFFFC0
FFFFC0
7FFFC0
7FFFC0
3EEF80
01E000
01F000
01F000
ENDCHAR
STARTCHAR C021101
ENCODING 8769
SWIDTH 2000 0
DWIDTH 20 0
BBX 17 16 2 -2
BITMAP
07F000
1C1C00
31C600
77F300
6FFB00
DFFD80
DFFD80
DFFD80
DFFD80
DFFD80
DFFD80
6FFB00
67F300
300600
1C1C00
07F000
ENDCHAR
STARTCHAR C021102
ENCODING 8770
SWIDTH 2000 0
DWIDTH 20 0
BBX 19 18 1 -3
BITMAP
00C000
01F000
031800
06EC00
0DF600
1BFB00
37FD80
6FFEC0
DFFF60
EFFEE0
77FDC0
3BFB80
1DF700
0EEE00
071C00
03B800
01F000
00C000
ENDCHAR
STARTCHAR C021103
ENCODING 8771
SWIDTH 2000 0
DWIDTH 20 0
BBX 17 16 2 -2
BITMAP
FFFF80
C00180
C00180
C00180
CFF980
CFF980
CFF980
CFF980
CFF980
CFF980
CFF980
CFF980
C00180
C00180
C00180
FFFF80
ENDCHAR
STARTCHAR C021104
ENCODING 8772
SWIDTH 2000 0
DWIDTH 20 0
BBX 17 16 2 -2
BITMAP
07F000
1F3C00
3F0E00
7F0700
FF0300
FF0180
FF0180
FF0180
FF0180
FF0180
FF0180
FF0300
7F0700
3F0E00
1F3C00
07F000
ENDCHAR
STARTCHAR C021105
ENCODING 8773
SWIDTH 2000 0
DWIDTH 20 0
BBX 17 16 2 -2
BITMAP
07F000
1E7C00
387E00
707F00
607F80
C07F80
C07F80
C07F80
C07F80
C07F80
E07F80
607F80
707F00
387E00
1E7C00
07F000
ENDCHAR
STARTCHAR C021106
ENCODING 8774
SWIDTH 2000 0
DWIDTH 20 0
BBX 17 16 2 -2
BITMAP
FFFF80
F6DB80
C00180
EDBD80
F6DB80
EDBD80
C00180
F6DB80
EDBD80
F6DB80
C00180
EDBD80
F6DB80
C00180
EDBD80
FFFF80
ENDCHAR
STARTCHAR C021107
ENCODING 8775
SWIDTH 2000 0
DWIDTH 20 0
BBX 17 16 2 -2
BITMAP
FFFF80
C00180
C00180
C00180
FFFF80
C00180
C00180
FFFF80
C00180
C00180
C00180
FFFF80
C00180
C00180
C00180
FFFF80
ENDCHAR
STARTCHAR C021110
ENCODING 8776
SWIDTH 2000 0
DWIDTH 20 0
BBX 17 16 2 -2
BITMAP
FFFF80
CCD980
CCD980
CCD980
CCD980
CCD980
CCD980
CCD980
CCD980
CCD980
CCD980
CCD980
CCD980
CCD980
CCD980
FFFF80
ENDCHAR
STARTCHAR C021111
ENCODING 8777
SWIDTH 2000 0
DWIDTH 20 0
BBX 17 16 2 -2
BITMAP
FFFF80
C18380
C30780
C60D80
CC1980
D83180
F06180
E0C180
C18380
C30780
C60D80
CC1980
D83180
F06180
E0C180
FFFF80
ENDCHAR
STARTCHAR C021112
ENCODING 8778
SWIDTH 2000 0
DWIDTH 20 0
BBX 17 16 2 -2
BITMAP
FFFF80
E0C180
F06180
D83180
CC1980
C60D80
C30780
C18380
E0C180
F06180
D83180
CC1980
C60D80
C30780
C18380
FFFF80
ENDCHAR
STARTCHAR C021113
ENCODING 8779
SWIDTH 2000 0
DWIDTH 20 0
BBX 17 16 2 -2
BITMAP
FFFF80
CCD980
CCD980
CCD980
FFFF80
CCD980
CCD980
FFFF80
CCD980
CCD980
CCD980
FFFF80
CCD980
CCD980
CCD980
FFFF80
ENDCHAR
STARTCHAR C021114
ENCODING 8780
SWIDTH 2000 0
DWIDTH 20 0
BBX 17 16 2 -2
BITMAP
FFFF80
E3C380
F66780
DC3D80
CC1D80
FE3780
E36380
C1C180
E3C380
F66780
DC3D80
CC1980
FE3D80
F36780
E1C380
FFFF80
ENDCHAR
STARTCHAR C021115
ENCODING 8781
SWIDTH 2000 0
DWIDTH 20 0
BBX 17 16 2 -2
BITMAP
00C000
06F000
07F000
0FB000
0FB000
0FF000
0FF800
07F800
07F800
36FE00
67F380
CFB180
CD8380
F00F00
7FFE00
1FF800
ENDCHAR
STARTCHAR C021116
ENCODING 8782
SWIDTH 2000 0
DWIDTH 20 0
BBX 18 13 1 0
BITMAP
07F800
3C0F00
6FFD80
DF1CC0
DFFCC0
FF1FC0
EE0C00
1E0E00
360E00
660F00
631B00
C1F300
7FFF00
ENDCHAR
STARTCHAR C021117
ENCODING 8783
SWIDTH 2000 0
DWIDTH 20 0
BBX 19 13 1 0
BITMAP
03F800
1FFF00
7FFFC0
FF1FE0
FFFFE0
FF1FE0
0E1E00
1E0F00
1C0F00
3E0F80
3E1F80
7F1F80
7FFF80
ENDCHAR
STARTCHAR C021120
ENCODING 8784
SWIDTH 2000 0
DWIDTH 20 0
BBX 19 9 1 2
BITMAP
07F800
FC7FE0
01C1E0
FFF0E0
0FF8E0
07FCE0
03F1E0
01EF60
00F800
ENDCHAR
STARTCHAR C021121
ENCODING 8785
SWIDTH 2000 0
DWIDTH 20 0
BBX 19 8 1 2
BITMAP
07FF00
FC61E0
F03FE0
E3FE00
E7FE00
E1EC00
FCF800
0FF000
ENDCHAR
STARTCHAR C021122
ENCODING 8786
SWIDTH 2000 0
DWIDTH 20 0
BBX 12 17 4 -3
BITMAP
3F30
6330
C330
C330
C330
6330
3F30
0330
0330
0330
0330
0330
0330
0330
0330
0330
0030
ENDCHAR
STARTCHAR C021123
ENCODING 8787
SWIDTH 2000 0
DWIDTH 20 0
BBX 12 18 5 -3
BITMAP
0600
0600
0600
0600
0600
FFF0
0600
0600
0600
0600
0600
0600
0600
0600
0600
0600
0600
0600
ENDCHAR
STARTCHAR C021124
ENCODING 8788
SWIDTH 2000 0
DWIDTH 20 0
BBX 11 18 5 -3
BITMAP
0C00
0C00
0C00
FFE0
0C00
0C00
FFC0
0C00
0C00
0C00
0C00
0C00
0C00
0C00
0C00
0C00
0C00
0C00
ENDCHAR
STARTCHAR C021125
ENCODING 8789
SWIDTH 2000 0
DWIDTH 20 0
BBX 6 14 8 -1
BITMAP
70
F8
60
60
60
60
60
60
60
60
60
60
FC
70
ENDCHAR
STARTCHAR C021126
ENCODING 8790
SWIDTH 2000 0
DWIDTH 20 0
BBX 14 12 3 0
BITMAP
01FC
0038
0078
00D8
0180
0300
0600
0C00
1800
3000
6000
C000
ENDCHAR
STARTCHAR C021127
ENCODING 8791
SWIDTH 2000 0
DWIDTH 20 0
BBX 13 12 4 0
BITMAP
0018
0030
0060
00C0
0180
0300
0600
CC00
D800
F000
E000
FC00
ENDCHAR
STARTCHAR C021130
ENCODING 8792
SWIDTH 2000 0
DWIDTH 20 0
BBX 13 11 5 0
BITMAP
FC00
E000
F000
1800
0C00
0600
0300
0180
00C0
0070
0018
ENDCHAR
STARTCHAR C021131
ENCODING 8793
SWIDTH 2000 0
DWIDTH 20 0
BBX 13 12 4 0
BITMAP
C000
6000
3000
1800
0C00
0600
0300
0198
00D8
0078
0038
01F8
ENDCHAR
STARTCHAR C021132
ENCODING 8794
SWIDTH 2000 0
DWIDTH 20 0
BBX 7 13 7 0
BITMAP
C0
C0
C0
C0
FC
EE
C6
C6
C6
CC
D8
F0
E0
ENDCHAR
STARTCHAR C021133
ENCODING 8795
SWIDTH 2000 0
DWIDTH 20 0
BBX 6 16 7 -2
BITMAP
0C
0C
0C
0C
0C
0C
0C
0C
0C
0C
0C
0C
0C
3C
7C
F8
ENDCHAR
STARTCHAR C021134
ENCODING 8796
SWIDTH 2000 0
DWIDTH 20 0
BBX 11 16 4 -2
BITMAP
0C00
0E00
0F00
0FC0
0DE0
0CE0
0C60
0C60
0C60
0C60
0CC0
0C00
0C00
7C00
F800
7000
ENDCHAR
STARTCHAR C021135
ENCODING 8797
SWIDTH 2000 0
DWIDTH 20 0
BBX 15 15 3 -2
BITMAP
0FFE
0FFE
0C06
0FFE
0FFE
0C06
0C06
0C06
0C06
0C06
0C06
3C1E
783E
F87C
6000
ENDCHAR
STARTCHAR C021136
ENCODING 8798
SWIDTH 2000 0
DWIDTH 20 0
BBX 17 16 2 -2
BITMAP
07F800
1E1E00
380700
763B00
667380
E6E000
E7C000
FFCF80
07C180
066180
067380
E63B00
700700
380E00
1C3C00
07F000
ENDCHAR
STARTCHAR C021137
ENCODING 8799
SWIDTH 2000 0
DWIDTH 20 0
BBX 19 15 1 -1
BITMAP
300180
6FFD80
6638C0
6070C0
C0C060
C3FE60
CE0360
D80660
FFFF60
C0C060
C0C060
C0C0C0
60C0C0
60C0C0
30C180
ENDCHAR
STARTCHAR C021140
ENCODING 8800
SWIDTH 2000 0
DWIDTH 20 0
BBX 19 15 1 -1
BITMAP
C3C000
718000
718000
718000
798000
798F00
6D9980
6DB0C0
67B0C0
67B0C0
63B0C0
63B0C0
6199E0
F199E0
000F00
ENDCHAR
STARTCHAR C021141
ENCODING 8801
SWIDTH 2000 0
DWIDTH 20 0
BBX 18 15 2 -1
BITMAP
1F0000
730000
630000
C18000
C00000
C03E00
C03700
C06300
C06300
C06300
C1E300
E1E300
7366C0
3E36C0
001C00
ENDCHAR
STARTCHAR C021142
ENCODING 8802
SWIDTH 2000 0
DWIDTH 20 0
BBX 18 14 2 0
BITMAP
FFE3C0
DB7380
1B7380
187380
187780
187780
187F80
187F80
187F80
187D80
186D80
186D80
186D80
7CFFC0
ENDCHAR
STARTCHAR C021143
ENCODING 8803
SWIDTH 2000 0
DWIDTH 20 0
BBX 19 10 1 -1
BITMAP
787F80
CC6D80
EC6D80
0C6D80
3C6D80
EC6D80
CC6D80
CF6D80
FFFFE0
0000C0
ENDCHAR
STARTCHAR C021144
ENCODING 8804
SWIDTH 2000 0
DWIDTH 20 0
BBX 19 12 1 -3
BITMAP
FC7F80
6C6D80
666D80
666D80
666D80
666D80
666D80
666D80
7FEDE0
7800C0
600000
600000
ENDCHAR
STARTCHAR C021145
ENCODING 8805
SWIDTH 2000 0
DWIDTH 20 0
BBX 19 15 1 -1
BITMAP
7FC000
ECC1C0
CC60C0
0C60C0
0C1CC0
0C36C0
0C66C0
0C66C0
0C67C0
0C7CC0
0C60C0
0C60C0
0C73C0
3E3FE0
000C00
ENDCHAR
STARTCHAR C021146
ENCODING 8806
SWIDTH 2000 0
DWIDTH 20 0
BBX 0 0 0 0
BITMAP
ENDCHAR
STARTCHAR C021147
ENCODING 8807
SWIDTH 2000 0
DWIDTH 20 0
BBX 0 0 0 0
BITMAP
ENDCHAR
STARTCHAR C021150
ENCODING 8808
SWIDTH 2000 0
DWIDTH 20 0
BBX 0 0 0 0
BITMAP
ENDCHAR
STARTCHAR C021151
ENCODING 8809
SWIDTH 2000 0
DWIDTH 20 0
BBX 1 10 20 6
BITMAP
80
80
00
00
00
80
80
00
80
80
ENDCHAR
STARTCHAR C021152
ENCODING 8810
SWIDTH 2000 0
DWIDTH 20 0
BBX 0 0 0 0
BITMAP
ENDCHAR
STARTCHAR C021153
ENCODING 8811
SWIDTH 2000 0
DWIDTH 20 0
BBX 0 0 0 0
BITMAP
ENDCHAR
STARTCHAR C021154
ENCODING 8812
SWIDTH 2000 0
DWIDTH 20 0
BBX 0 0 0 0
BITMAP
ENDCHAR
STARTCHAR C021155
ENCODING 8813
SWIDTH 2000 0
DWIDTH 20 0
BBX 0 0 0 0
BITMAP
ENDCHAR
STARTCHAR C021156
ENCODING 8814
SWIDTH 2000 0
DWIDTH 20 0
BBX 1 9 20 -3
BITMAP
80
00
00
00
00
00
00
00
80
ENDCHAR
STARTCHAR C021157
ENCODING 8815
SWIDTH 2000 0
DWIDTH 20 0
BBX 0 0 0 0
BITMAP
ENDCHAR
STARTCHAR C021160
ENCODING 8816
SWIDTH 2000 0
DWIDTH 20 0
BBX 0 0 0 0
BITMAP
ENDCHAR
STARTCHAR C021161
ENCODING 8817
SWIDTH 2000 0
DWIDTH 20 0
BBX 0 0 0 0
BITMAP
ENDCHAR
STARTCHAR C021162
ENCODING 8818
SWIDTH 2000 0
DWIDTH 20 0
BBX 0 0 0 0
BITMAP
ENDCHAR
STARTCHAR C021163
ENCODING 8819
SWIDTH 2000 0
DWIDTH 20 0
BBX 1 16 20 -1
BITMAP
80
00
00
00
00
00
00
80
80
00
00
80
80
80
80
80
ENDCHAR
STARTCHAR C021164
ENCODING 8820
SWIDTH 2000 0
DWIDTH 20 0
BBX 0 0 0 0
BITMAP
ENDCHAR
STARTCHAR C021165
ENCODING 8821
SWIDTH 2000 0
DWIDTH 20 0
BBX 0 0 0 0
BITMAP
ENDCHAR
STARTCHAR C021166
ENCODING 8822
SWIDTH 2000 0
DWIDTH 20 0
BBX 0 0 0 0
BITMAP
ENDCHAR
STARTCHAR C021167
ENCODING 8823
SWIDTH 2000 0
DWIDTH 20 0
BBX 0 0 0 0
BITMAP
ENDCHAR
STARTCHAR C021170
ENCODING 8824
SWIDTH 2000 0
DWIDTH 20 0
BBX 1 10 20 6
BITMAP
80
80
00
00
00
80
80
00
80
80
ENDCHAR
STARTCHAR C021171
ENCODING 8825
SWIDTH 2000 0
DWIDTH 20 0
BBX 0 0 0 0
BITMAP
ENDCHAR
STARTCHAR C021172
ENCODING 8826
SWIDTH 2000 0
DWIDTH 20 0
BBX 0 0 0 0
BITMAP
ENDCHAR
STARTCHAR C021173
ENCODING 8827
SWIDTH 2000 0
DWIDTH 20 0
BBX 0 0 0 0
BITMAP
ENDCHAR
STARTCHAR C021174
ENCODING 8828
SWIDTH 2000 0
DWIDTH 20 0
BBX 0 0 0 0
BITMAP
ENDCHAR
STARTCHAR C021175
ENCODING 8829
SWIDTH 2000 0
DWIDTH 20 0
BBX 1 9 20 -3
BITMAP
80
00
00
00
00
00
00
00
80
ENDCHAR
STARTCHAR C021176
ENCODING 8830
SWIDTH 2000 0
DWIDTH 20 0
BBX 0 0 0 0
BITMAP
ENDCHAR
STARTCHAR C021177
ENCODING 8831
SWIDTH 2000 0
DWIDTH 20 0
BBX 0 0 0 0
BITMAP
ENDCHAR
STARTCHAR C021440
ENCODING 8992
SWIDTH 2000 0
DWIDTH 20 0
BBX 1 3 20 11
BITMAP
80
80
80
ENDCHAR
STARTCHAR C021441
ENCODING 8993
SWIDTH 2000 0
DWIDTH 20 0
BBX 3 14 9 0
BITMAP
E0
E0
E0
60
60
60
60
60
60
60
00
00
60
60
ENDCHAR
STARTCHAR C021442
ENCODING 8994
SWIDTH 2000 0
DWIDTH 20 0
BBX 7 4 7 12
BITMAP
7E
6C
7C
D8
ENDCHAR
STARTCHAR C021443
ENCODING 8995
SWIDTH 2000 0
DWIDTH 20 0
BBX 9 16 6 -2
BITMAP
1800
1B00
1B00
3300
3300
FF80
3300
3600
3600
3600
6600
FF80
6600
6C00
6C00
6C00
ENDCHAR
STARTCHAR C021444
ENCODING 8996
SWIDTH 2000 0
DWIDTH 20 0
BBX 11 18 5 -3
BITMAP
1B00
1F00
7BC0
DBC0
DB60
DB00
DB00
7B00
3F80
1FE0
1BE0
1B60
1B60
DB60
FBC0
3F80
1B00
1B00
ENDCHAR
STARTCHAR C021445
ENCODING 8997
SWIDTH 2000 0
DWIDTH 20 0
BBX 17 17 2 -3
BITMAP
3E0180
630300
630600
630C00
631800
633000
636000
36C000
1D8000
033E00
076300
0E6300
1C6300
386300
706300
E07600
003E00
ENDCHAR
STARTCHAR C021446
ENCODING 8998
SWIDTH 2000 0
DWIDTH 20 0
BBX 14 14 3 -1
BITMAP
1FC0
18C0
18C0
19C0
1F80
0E00
3E3C
6718
E718
C3B0
E1F0
E0E0
79E0
3F7C
ENDCHAR
STARTCHAR C021447
ENCODING 8999
SWIDTH 2000 0
DWIDTH 20 0
BBX 3 5 9 11
BITMAP
E0
E0
E0
C0
C0
ENDCHAR
STARTCHAR C021450
ENCODING 9000
SWIDTH 2000 0
DWIDTH 20 0
BBX 4 16 15 -2
BITMAP
30
60
60
C0
C0
C0
C0
C0
C0
C0
C0
C0
C0
60
60
30
ENDCHAR
STARTCHAR C021451
ENCODING 9001
SWIDTH 2000 0
DWIDTH 20 0
BBX 5 17 1 -3
BITMAP
60
30
30
30
18
18
18
18
18
18
18
18
18
30
30
60
C0
ENDCHAR
STARTCHAR C021452
ENCODING 9002
SWIDTH 2000 0
DWIDTH 20 0
BBX 8 8 7 2
BITMAP
18
18
DE
7C
3C
FF
18
18
ENDCHAR
STARTCHAR C021453
ENCODING 9003
SWIDTH 2000 0
DWIDTH 20 0
BBX 12 12 4 0
BITMAP
0600
0600
0600
0600
0600
0600
FFF0
0600
0600
0600
0600
0600
ENDCHAR
STARTCHAR C021454
ENCODING 9004
SWIDTH 2000 0
DWIDTH 20 0
BBX 3 5 1 -3
BITMAP
E0
E0
60
60
C0
ENDCHAR
STARTCHAR C021455
ENCODING 9005
SWIDTH 2000 0
DWIDTH 20 0
BBX 12 1 5 5
BITMAP
FFF0
ENDCHAR
STARTCHAR C021456
ENCODING 9006
SWIDTH 2000 0
DWIDTH 20 0
BBX 2 2 1 0
BITMAP
C0
C0
ENDCHAR
STARTCHAR C021457
ENCODING 9007
SWIDTH 2000 0
DWIDTH 20 0
BBX 19 18 1 -3
BITMAP
000060
0000C0
000180
000300
000600
000C00
001800
003000
006000
00C000
018000
030000
060000
0C0000
180000
300000
600000
C00000
ENDCHAR
STARTCHAR C021460
ENCODING 9008
SWIDTH 2000 0
DWIDTH 20 0
BBX 9 15 6 -1
BITMAP
3E00
7300
6300
C180
C180
C180
C180
C180
C180
C180
C180
C300
6300
6600
3C00
ENDCHAR
STARTCHAR C021461
ENCODING 9009
SWIDTH 2000 0
DWIDTH 20 0
BBX 8 14 7 0
BITMAP
38
78
18
18
18
18
18
18
18
18
18
18
18
FF
ENDCHAR
STARTCHAR C021462
ENCODING 9010
SWIDTH 2000 0
DWIDTH 20 0
BBX 9 14 6 0
BITMAP
3E00
6300
6380
E180
6380
0300
0700
0600
0C00
1800
3000
6180
6300
FF00
ENDCHAR
STARTCHAR C021463
ENCODING 9011
SWIDTH 2000 0
DWIDTH 20 0
BBX 8 15 7 -1
BITMAP
38
EC
C6
C6
06
06
0C
3C
06
03
03
C3
C3
E6
7C
ENDCHAR
STARTCHAR C021464
ENCODING 9012
SWIDTH 2000 0
DWIDTH 20 0
BBX 8 14 6 0
BITMAP
06
06
0E
1E
1E
36
36
66
66
C6
7F
06
06
0F
ENDCHAR
STARTCHAR C021465
ENCODING 9013
SWIDTH 2000 0
DWIDTH 20 0
BBX 8 14 7 -1
BITMAP
FE
C0
C0
C0
C0
FC
C6
03
03
03
C3
C7
E6
3C
ENDCHAR
STARTCHAR C021466
ENCODING 9014
SWIDTH 2000 0
DWIDTH 20 0
BBX 9 14 6 0
BITMAP
1F00
3700
6300
C000
C000
CE00
FB00
C180
C180
C180
C180
6180
6300
3E00
ENDCHAR
STARTCHAR C021467
ENCODING 9015
SWIDTH 2000 0
DWIDTH 20 0
BBX 9 14 6 -1
BITMAP
7F80
6300
C300
0600
0600
0C00
0C00
0C00
1800
1800
3800
3800
3800
3800
ENDCHAR
STARTCHAR C021470
ENCODING 9016
SWIDTH 2000 0
DWIDTH 20 0
BBX 9 14 6 0
BITMAP
3E00
7700
6300
6300
6300
7600
3E00
6700
6380
E180
E180
E180
6300
3E00
ENDCHAR
STARTCHAR C021471
ENCODING 9017
SWIDTH 2000 0
DWIDTH 20 0
BBX 9 15 6 -1
BITMAP
3E00
6700
E300
C180
C180
C180
C180
6380
3F80
0180
0300
0300
7600
3E00
1800
ENDCHAR
STARTCHAR C021472
ENCODING 9018
SWIDTH 2000 0
DWIDTH 20 0
BBX 2 9 9 0
BITMAP
C0
C0
00
00
00
00
00
C0
C0
ENDCHAR
STARTCHAR C021473
ENCODING 9019
SWIDTH 2000 0
DWIDTH 20 0
BBX 3 11 9 -2
BITMAP
60
60
00
00
00
00
00
E0
E0
60
C0
ENDCHAR
STARTCHAR C021474
ENCODING 9020
SWIDTH 2000 0
DWIDTH 20 0
BBX 13 12 4 0
BITMAP
0018
0070
03C0
0E00
3800
E000
E000
3800
0E00
0380
00E0
0038
ENDCHAR
STARTCHAR C021475
ENCODING 9021
SWIDTH 2000 0
DWIDTH 20 0
BBX 15 4 3 4
BITMAP
FFFE
0000
0000
FFFE
ENDCHAR
STARTCHAR C021476
ENCODING 9022
SWIDTH 2000 0
DWIDTH 20 0
BBX 13 12 4 0
BITMAP
C000
7000
1C00
0700
01C0
0078
0038
00E0
0380
0E00
3800
E000
ENDCHAR
STARTCHAR C021477
ENCODING 9023
SWIDTH 2000 0
DWIDTH 20 0
BBX 9 14 6 -1
BITMAP
3E00
6300
E380
E380
0300
0700
0E00
0C00
1800
1800
0000
0000
0C00
0C00
ENDCHAR
STARTCHAR C021500
ENCODING 9024
SWIDTH 2000 0
DWIDTH 20 0
BBX 13 13 4 -1
BITMAP
07C0
1C70
3030
61F8
C7F8
CCF8
D8D8
D8D8
DFF0
6EE0
6018
3830
0FE0
ENDCHAR
STARTCHAR C021501
ENCODING 9025
SWIDTH 2000 0
DWIDTH 20 0
BBX 15 13 3 0
BITMAP
0380
0780
07C0
06C0
0CC0
0CE0
1860
1FF0
1830
3030
3038
3018
F87E
ENDCHAR
STARTCHAR C021502
ENCODING 9026
SWIDTH 2000 0
DWIDTH 20 0
BBX 13 15 4 -1
BITMAP
FF00
31E0
3030
3030
3030
3060
31C0
3F60
3030
3018
3018
3018
3030
FFE0
0300
ENDCHAR
STARTCHAR C021503
ENCODING 9027
SWIDTH 2000 0
DWIDTH 20 0
BBX 13 14 4 0
BITMAP
0FE0
38F0
6030
6000
C000
C000
C000
C000
C000
C000
E018
6030
3860
1FC0
ENDCHAR
STARTCHAR C021504
ENCODING 9028
SWIDTH 2000 0
DWIDTH 20 0
BBX 14 14 4 0
BITMAP
FFC0
3070
3018
3018
300C
300C
300C
300C
300C
300C
3018
3018
3070
FFC0
ENDCHAR
STARTCHAR C021505
ENCODING 9029
SWIDTH 2000 0
DWIDTH 20 0
BBX 13 14 4 0
BITMAP
FFE0
3070
3030
3000
3000
3180
3180
3F80
3180
3180
3018
3030
30F0
FFE0
ENDCHAR
STARTCHAR C021506
ENCODING 9030
SWIDTH 2000 0
DWIDTH 20 0
BBX 12 14 5 0
BITMAP
FFE0
30F0
3030
3000
3000
3180
3380
3F80
3180
3000
3000
3000
3000
FC00
ENDCHAR
STARTCHAR C021507
ENCODING 9031
SWIDTH 2000 0
DWIDTH 20 0
BBX 14 15 4 -1
BITMAP
0700
1DF0
3030
6000
C000
C000
C000
C000
C0FC
C030
C030
6030
3030
1870
0FC0
ENDCHAR
STARTCHAR C021510
ENCODING 9032
SWIDTH 2000 0
DWIDTH 20 0
BBX 15 14 3 0
BITMAP
FC7E
3018
3018
3018
3018
3018
3FF8
3018
3018
3018
3018
3018
3018
FC7E
ENDCHAR
STARTCHAR C021511
ENCODING 9033
SWIDTH 2000 0
DWIDTH 20 0
BBX 6 14 8 0
BITMAP
FC
30
30
30
30
30
30
30
30
30
30
30
30
FC
ENDCHAR
STARTCHAR C021512
ENCODING 9034
SWIDTH 2000 0
DWIDTH 20 0
BBX 8 16 7 -2
BITMAP
7F
0C
0C
0C
0C
0C
0C
0C
0C
0C
0C
0C
0C
0C
F8
F8
ENDCHAR
STARTCHAR C021513
ENCODING 9035
SWIDTH 2000 0
DWIDTH 20 0
BBX 15 14 3 0
BITMAP
FCFC
3070
3060
30C0
3180
3300
3700
3F80
3180
30C0
30E0
3060
3030
FCFE
ENDCHAR
STARTCHAR C021514
ENCODING 9036
SWIDTH 2000 0
DWIDTH 20 0
BBX 12 14 5 0
BITMAP
FC00
3000
3000
3000
3000
3000
3000
3000
3000
3000
3030
3030
30E0
FFE0
ENDCHAR
STARTCHAR C021515
ENCODING 9037
SWIDTH 2000 0
DWIDTH 20 0
BBX 18 14 1 0
BITMAP
F807C0
380700
3C0F00
3C0F00
3C1B00
361B00
361B00
333300
333300
336300
31E300
31E300
30C300
FCCFC0
ENDCHAR
STARTCHAR C021516
ENCODING 9038
SWIDTH 2000 0
DWIDTH 20 0
BBX 15 14 3 0
BITMAP
F07E
3818
3818
3C18
3618
3618
3318
3198
30D8
30D8
3078
3038
3018
FC18
ENDCHAR
STARTCHAR C021517
ENCODING 9039
SWIDTH 2000 0
DWIDTH 20 0
BBX 13 14 4 0
BITMAP
1FC0
38E0
6030
6030
C018
C018
C018
C018
C018
C018
6030
6030
38E0
1FC0
ENDCHAR
STARTCHAR C021520
ENCODING 9040
SWIDTH 2000 0
DWIDTH 20 0
BBX 12 14 5 0
BITMAP
FFC0
30E0
3030
3030
3030
3030
30E0
3FC0
3000
3000
3000
3000
3000
FE00
ENDCHAR
STARTCHAR C021521
ENCODING 9041
SWIDTH 2000 0
DWIDTH 20 0
BBX 13 16 4 -2
BITMAP
1FC0
38E0
7030
E038
E018
C018
C018
C018
C018
C018
C018
FF30
71E0
38C0
0FE0
00F8
ENDCHAR
STARTCHAR C021522
ENCODING 9042
SWIDTH 2000 0
DWIDTH 20 0
BBX 13 14 4 0
BITMAP
FFC0
3060
3030
3030
3030
3060
30C0
3F80
3380
3180
31C0
30E0
3060
FC78
ENDCHAR
STARTCHAR C021523
ENCODING 9043
SWIDTH 2000 0
DWIDTH 20 0
BBX 11 15 5 -1
BITMAP
3F80
63C0
C0C0
C000
C000
6000
3E00
0780
01C0
00E0
0060
C060
E0C0
7980
0F00
ENDCHAR
STARTCHAR C021524
ENCODING 9044
SWIDTH 2000 0
DWIDTH 20 0
BBX 14 14 4 0
BITMAP
7FE0
F338
C30C
0300
0300
0300
0300
0300
0300
0300
0300
0300
0300
0FC0
ENDCHAR
STARTCHAR C021525
ENCODING 9045
SWIDTH 2000 0
DWIDTH 20 0
BBX 15 14 3 0
BITMAP
F83E
3018
3018
3018
3018
3018
3018
3018
3018
3018
3018
3018
1870
0FE0
ENDCHAR
STARTCHAR C021526
ENCODING 9046
SWIDTH 2000 0
DWIDTH 20 0
BBX 15 13 3 1
BITMAP
FC7E
3018
1818
1830
1830
0C60
0C60
0E60
06C0
06C0
03C0
0380
0380
ENDCHAR
STARTCHAR C021527
ENCODING 9047
SWIDTH 2000 0
DWIDTH 20 0
BBX 21 14 0 0
BITMAP
FDF9F0
307060
3830C0
1870C0
1870C0
1CF980
0CD980
0CD980
0F9F00
078F00
078F00
070E00
030600
030608
ENDCHAR
STARTCHAR C021530
ENCODING 9048
SWIDTH 2000 0
DWIDTH 20 0
BBX 14 14 3 0
BITMAP
7E7C
1830
0C60
0CC0
06C0
0380
0300
0380
06C0
0CC0
1860
1860
3830
FCFC
ENDCHAR
STARTCHAR C021531
ENCODING 9049
SWIDTH 2000 0
DWIDTH 20 0
BBX 14 14 4 0
BITMAP
FCFC
7030
3060
1860
1CC0
0CC0
0780
0700
0300
0300
0300
0300
0300
0FE0
ENDCHAR
STARTCHAR C021532
ENCODING 9050
SWIDTH 2000 0
DWIDTH 20 0
BBX 11 14 5 0
BITMAP
0FC0
78E0
60C0
C180
0380
0300
0600
0C00
0C00
1800
3000
3060
60E0
FFC0
ENDCHAR
STARTCHAR C021533
ENCODING 9051
SWIDTH 2000 0
DWIDTH 20 0
BBX 5 18 15 -3
BITMAP
F8
C0
C0
C0
C0
C0
C0
C0
C0
C0
C0
C0
C0
C0
C0
C0
C0
F8
ENDCHAR
STARTCHAR C021534
ENCODING 9052
SWIDTH 2000 0
DWIDTH 20 0
BBX 19 13 1 0
BITMAP
F1E1E0
60C0C0
70E180
30E180
FFFFE0
31E300
19B300
FFFFE0
1B3600
0F3E00
0F1C00
0E1C00
0E1C00
ENDCHAR
STARTCHAR C021535
ENCODING 9053
SWIDTH 2000 0
DWIDTH 20 0
BBX 5 18 1 -3
BITMAP
F8
18
18
18
18
18
18
18
18
18
18
18
18
18
18
18
18
F8
ENDCHAR
STARTCHAR C021536
ENCODING 9054
SWIDTH 2000 0
DWIDTH 20 0
BBX 7 3 7 12
BITMAP
38
7C
C6
ENDCHAR
STARTCHAR C021537
ENCODING 9055
SWIDTH 2000 0
DWIDTH 20 0
BBX 19 1 1 -3
BITMAP
FFFFE0
ENDCHAR
STARTCHAR C021540
ENCODING 9056
SWIDTH 2000 0
DWIDTH 20 0
BBX 5 8 8 8
BITMAP
E0
E0
60
70
30
18
18
18
ENDCHAR
STARTCHAR C021541
ENCODING 9057
SWIDTH 2000 0
DWIDTH 20 0
BBX 10 9 6 0
BITMAP
7E00
E300
E300
0300
3F00
6300
C300
C300
FFC0
ENDCHAR
STARTCHAR C021542
ENCODING 9058
SWIDTH 2000 0
DWIDTH 20 0
BBX 10 15 5 -1
BITMAP
6000
E000
6000
6000
6000
7F00
7180
60C0
60C0
60C0
60C0
60C0
6180
7B00
0E00
ENDCHAR
STARTCHAR C021543
ENCODING 9059
SWIDTH 2000 0
DWIDTH 20 0
BBX 9 10 6 -1
BITMAP
3F00
6380
E000
C000
C000
C000
C000
6180
3700
1C00
ENDCHAR
STARTCHAR C021544
ENCODING 9060
SWIDTH 2000 0
DWIDTH 20 0
BBX 10 14 6 0
BITMAP
0180
0780
0180
0180
0180
3F80
6380
C180
C180
C180
C180
C180
6180
7FC0
ENDCHAR
STARTCHAR C021545
ENCODING 9061
SWIDTH 2000 0
DWIDTH 20 0
BBX 9 10 6 0
BITMAP
3E00
6300
6180
C180
FF80
C000
C000
C000
6180
3F00
ENDCHAR
STARTCHAR C021546
ENCODING 9062
SWIDTH 2000 0
DWIDTH 20 0
BBX 7 14 7 0
BITMAP
1E
36
30
30
30
FE
30
30
30
30
30
30
30
FC
ENDCHAR
STARTCHAR C021547
ENCODING 9063
SWIDTH 2000 0
DWIDTH 20 0
BBX 11 12 5 -3
BITMAP
3EE0
7380
6180
6180
6180
6300
7E00
7800
6F80
C0C0
E1C0
7F80
ENDCHAR
STARTCHAR C021550
ENCODING 9064
SWIDTH 2000 0
DWIDTH 20 0
BBX 10 14 5 0
BITMAP
3000
7000
3000
3000
3000
3F00
3980
3180
3180
3180
3180
3180
3180
FFC0
ENDCHAR
STARTCHAR C021551
ENCODING 9065
SWIDTH 2000 0
DWIDTH 20 0
BBX 4 14 8 0
BITMAP
30
30
00
00
60
E0
60
60
60
60
60
60
60
F0
ENDCHAR
STARTCHAR C021552
ENCODING 9066
SWIDTH 2000 0
DWIDTH 20 0
BBX 5 17 8 -3
BITMAP
18
18
00
00
00
38
18
18
18
18
18
18
18
18
18
F8
F0
ENDCHAR
STARTCHAR C021553
ENCODING 9067
SWIDTH 2000 0
DWIDTH 20 0
BBX 10 13 5 0
BITMAP
E000
6000
6000
6000
67C0
6300
6600
6C00
7C00
6600
6700
6300
F3C0
ENDCHAR
STARTCHAR C021554
ENCODING 9068
SWIDTH 2000 0
DWIDTH 20 0
BBX 4 14 9 0
BITMAP
60
E0
60
60
60
60
60
60
60
60
60
60
60
F0
ENDCHAR
STARTCHAR C021555
ENCODING 9069
SWIDTH 2000 0
DWIDTH 20 0
BBX 16 10 2 0
BITMAP
3718
FDFE
38C6
30C6
30C6
30C6
30C6
30C6
30C6
F9FF
ENDCHAR
STARTCHAR C021556
ENCODING 9070
SWIDTH 2000 0
DWIDTH 20 0
BBX 11 10 5 0
BITMAP
3380
7FC0
38C0
30C0
30C0
30C0
30C0
30C0
30C0
F9E0
ENDCHAR
STARTCHAR C021557
ENCODING 9071
SWIDTH 2000 0
DWIDTH 20 0
BBX 9 10 6 -1
BITMAP
3E00
6300
E380
C180
C180
C180
C180
E380
6300
3E00
ENDCHAR
STARTCHAR C021560
ENCODING 9072
SWIDTH 2000 0
DWIDTH 20 0
BBX 9 12 6 -3
BITMAP
FF00
6300
6180
6180
6180
6180
6180
6300
7600
7C00
6000
F000
ENDCHAR
STARTCHAR C021561
ENCODING 9073
SWIDTH 2000 0
DWIDTH 20 0
BBX 10 13 6 -3
BITMAP
1C00
7F80
6180
C180
C180
C180
C180
C180
6180
3780
1D80
0180
07C0
ENDCHAR
STARTCHAR C021562
ENCODING 9074
SWIDTH 2000 0
DWIDTH 20 0
BBX 7 9 7 0
BITMAP
EE
7E
60
60
60
60
60
60
F0
ENDCHAR
STARTCHAR C021563
ENCODING 9075
SWIDTH 2000 0
DWIDTH 20 0
BBX 8 9 7 0
BITMAP
FE
C6
C0
F0
3E
07
03
C6
FE
ENDCHAR
STARTCHAR C021564
ENCODING 9076
SWIDTH 2000 0
DWIDTH 20 0
BBX 7 13 7 -1
BITMAP
30
30
30
FE
30
30
30
30
30
30
30
3E
0C
ENDCHAR
STARTCHAR C021565
ENCODING 9077
SWIDTH 2000 0
DWIDTH 20 0
BBX 10 9 6 0
BITMAP
E380
6180
6180
6180
6180
6180
6180
6380
3FC0
ENDCHAR
STARTCHAR C021566
ENCODING 9078
SWIDTH 2000 0
DWIDTH 20 0
BBX 10 9 6 0
BITMAP
F3C0
6300
6300
3300
3600
1E00
1C00
1C00
0C00
ENDCHAR
STARTCHAR C021567
ENCODING 9079
SWIDTH 2000 0
DWIDTH 20 0
BBX 15 9 3 0
BITMAP
FFDE
718C
318C
33D8
1ED8
1EF0
0C70
0C70
0C00
ENDCHAR
STARTCHAR C021570
ENCODING 9080
SWIDTH 2000 0
DWIDTH 20 0
BBX 11 9 5 0
BITMAP
FBE0
3180
1B00
0E00
0E00
1B00
3300
61C0
FBE0
ENDCHAR
STARTCHAR C021571
ENCODING 9081
SWIDTH 2000 0
DWIDTH 20 0
BBX 11 12 5 -3
BITMAP
F9E0
70C0
3180
3980
1B00
1B00
1E00
0E00
0C00
0C00
1800
7800
ENDCHAR
STARTCHAR C021572
ENCODING 9082
SWIDTH 2000 0
DWIDTH 20 0
BBX 9 10 6 -1
BITMAP
3F80
6300
0600
0C00
0C00
1800
3180
6300
FF00
1800
ENDCHAR
STARTCHAR C021573
ENCODING 9083
SWIDTH 2000 0
DWIDTH 20 0
BBX 6 19 14 -3
BITMAP
0C
18
30
30
30
30
30
30
60
C0
60
30
30
30
30
30
30
30
18
ENDCHAR
STARTCHAR C021574
ENCODING 9084
SWIDTH 2000 0
DWIDTH 20 0
BBX 2 18 9 -3
BITMAP
C0
C0
C0
C0
C0
C0
C0
C0
C0
C0
C0
C0
C0
C0
C0
C0
C0
C0
ENDCHAR
STARTCHAR C021575
ENCODING 9085
SWIDTH 2000 0
DWIDTH 20 0
BBX 4 18 3 -3
BITMAP
C0
60
60
60
60
60
60
60
30
30
60
60
60
60
60
60
60
C0
ENDCHAR
STARTCHAR C021576
ENCODING 9086
SWIDTH 2000 0
DWIDTH 20 0
BBX 9 1 6 13
BITMAP
FF80
ENDCHAR
STARTCHAR C021577
ENCODING 9087
SWIDTH 2000 0
DWIDTH 20 0
BBX 0 0 0 0
BITMAP
ENDCHAR
STARTCHAR C022040
ENCODING 9248
SWIDTH 2000 0
DWIDTH 20 0
BBX 0 0 0 0
BITMAP
ENDCHAR
STARTCHAR C022041
ENCODING 9249
SWIDTH 2000 0
DWIDTH 20 0
BBX 13 10 4 1
BITMAP
FFF8
7018
0018
0018
0018
0018
0018
0018
0018
0018
ENDCHAR
STARTCHAR C022042
ENCODING 9250
SWIDTH 2000 0
DWIDTH 20 0
BBX 15 11 3 1
BITMAP
0600
FEFE
6606
0606
0606
0606
0606
0606
0606
0606
0006
ENDCHAR
STARTCHAR C022043
ENCODING 9251
SWIDTH 2000 0
DWIDTH 20 0
BBX 17 11 2 1
BITMAP
060000
FE1800
661C00
061800
061800
063800
063C00
066600
066300
06C180
018180
ENDCHAR
STARTCHAR C022044
ENCODING 9252
SWIDTH 2000 0
DWIDTH 20 0
BBX 14 8 4 2
BITMAP
E000
6000
6000
6000
6000
6000
603C
3FFC
ENDCHAR
STARTCHAR C022045
ENCODING 9253
SWIDTH 2000 0
DWIDTH 20 0
BBX 17 11 2 1
BITMAP
000300
E1FF80
60F800
600C00
601C00
601C00
603C00
633700
6E6380
78C180
018180
ENDCHAR
STARTCHAR C022046
ENCODING 9254
SWIDTH 2000 0
DWIDTH 20 0
BBX 18 11 2 0
BITMAP
C03E00
6003C0
61FFC0
600000
601800
607E00
61E700
67C300
7CC300
60E700
007E00
ENDCHAR
STARTCHAR C022047
ENCODING 9255
SWIDTH 2000 0
DWIDTH 20 0
BBX 14 9 3 2
BITMAP
0038
FFF8
6000
6000
6000
6000
6000
603C
7FFC
ENDCHAR
STARTCHAR C022050
ENCODING 9256
SWIDTH 2000 0
DWIDTH 20 0
BBX 16 11 3 1
BITMAP
018E
E0FE
7EC0
60C0
60C0
60C0
60C0
60C0
63C6
6EFF
7800
ENDCHAR
STARTCHAR C022051
ENCODING 9257
SWIDTH 2000 0
DWIDTH 20 0
BBX 14 11 3 1
BITMAP
0038
FFF8
6038
0030
0030
FFF8
6000
6000
6000
601C
7FFC
ENDCHAR
STARTCHAR C022052
ENCODING 9258
SWIDTH 2000 0
DWIDTH 20 0
BBX 16 10 2 1
BITMAP
0603
FF3F
0603
0603
FE03
6003
6003
6003
6F83
7803
ENDCHAR
STARTCHAR C022053
ENCODING 9259
SWIDTH 2000 0
DWIDTH 20 0
BBX 16 10 2 1
BITMAP
FFFF
0663
0663
0663
FE63
6063
6066
6066
67FF
7C60
ENDCHAR
STARTCHAR C022054
ENCODING 9260
SWIDTH 2000 0
DWIDTH 20 0
BBX 16 11 3 1
BITMAP
0003
FFC3
06C3
06C3
06FF
FEC3
60C3
60C3
60C3
67FF
7CC3
ENDCHAR
STARTCHAR C022055
ENCODING 9261
SWIDTH 2000 0
DWIDTH 20 0
BBX 16 11 3 1
BITMAP
FF70
6638
0618
0638
FE30
6030
6078
606C
67C6
7D87
0183
ENDCHAR
STARTCHAR C022056
ENCODING 9262
SWIDTH 2000 0
DWIDTH 20 0
BBX 17 11 2 1
BITMAP
00C300
FF7F80
066000
066000
066700
FE7F00
606000
606000
606000
67E380
7C7F80
ENDCHAR
STARTCHAR C022057
ENCODING 9263
SWIDTH 2000 0
DWIDTH 20 0
BBX 17 10 3 1
BITMAP
FF0700
07FC00
060E00
060E00
FECC00
60CC00
60EC00
60F800
6E1B80
7BFF80
ENDCHAR
STARTCHAR C022060
ENCODING 9264
SWIDTH 2000 0
DWIDTH 20 0
BBX 18 11 2 0
BITMAP
FE7E00
660180
060FC0
0DF800
EE1800
787E00
60E700
60E300
63E300
7E6700
707E00
ENDCHAR
STARTCHAR C022061
ENCODING 9265
SWIDTH 2000 0
DWIDTH 20 0
BBX 14 10 4 1
BITMAP
FFFC
6018
6018
6018
6018
6018
6030
6030
7FF8
6000
ENDCHAR
STARTCHAR C022062
ENCODING 9266
SWIDTH 2000 0
DWIDTH 20 0
BBX 13 12 3 1
BITMAP
0030
E018
3018
3018
3018
3FF8
3018
3018
3018
3018
3FF8
3018
ENDCHAR
STARTCHAR C022063
ENCODING 9267
SWIDTH 2000 0
DWIDTH 20 0
BBX 16 12 2 0
BITMAP
0067
C733
6333
6333
633F
7F33
6333
6333
6333
6333
7F3F
0333
ENDCHAR
STARTCHAR C022064
ENCODING 9268
SWIDTH 2000 0
DWIDTH 20 0
BBX 15 11 4 1
BITMAP
0C60
CC70
CC70
CC70
FC60
CC60
CCF0
CCD8
CD9C
FF0E
C006
ENDCHAR
STARTCHAR C022065
ENCODING 9269
SWIDTH 2000 0
DWIDTH 20 0
BBX 15 10 3 1
BITMAP
0380
01C0
0380
0380
07C0
0E70
1C1C
380E
6006
C000
ENDCHAR
STARTCHAR C022066
ENCODING 9270
SWIDTH 2000 0
DWIDTH 20 0
BBX 16 9 3 2
BITMAP
0C38
0E38
0C38
1C30
1E70
33F8
63CE
C186
0307
ENDCHAR
STARTCHAR C022067
ENCODING 9271
SWIDTH 2000 0
DWIDTH 20 0
BBX 11 11 5 1
BITMAP
0600
3F80
71C0
E0E0
C060
C060
C060
C060
E0E0
71C0
3F80
ENDCHAR
STARTCHAR C022070
ENCODING 9272
SWIDTH 2000 0
DWIDTH 20 0
BBX 14 10 4 2
BITMAP
0038
FFF8
6300
0380
0700
0F80
1CE0
3878
701C
C00C
ENDCHAR
STARTCHAR C022071
ENCODING 9273
SWIDTH 2000 0
DWIDTH 20 0
BBX 18 10 2 2
BITMAP
018000
7FFF80
3E1C00
0E1C00
0C1800
1E3C00
3B3600
63E380
C1C180
0180C0
ENDCHAR
STARTCHAR C022072
ENCODING 9274
SWIDTH 2000 0
DWIDTH 20 0
BBX 15 11 3 1
BITMAP
0FE0
0000
0000
FFFC
7980
0380
0380
06E0
0C38
381C
6006
ENDCHAR
STARTCHAR C022073
ENCODING 9275
SWIDTH 2000 0
DWIDTH 20 0
BBX 13 11 4 1
BITMAP
0018
7FF8
3C18
0018
0018
01F8
FF18
7018
0030
0030
0030
ENDCHAR
STARTCHAR C022074
ENCODING 9276
SWIDTH 2000 0
DWIDTH 20 0
BBX 14 10 4 1
BITMAP
FFF8
6000
6000
6000
7FF8
6000
6000
6000
601C
7FFC
ENDCHAR
STARTCHAR C022075
ENCODING 9277
SWIDTH 2000 0
DWIDTH 20 0
BBX 16 9 3 2
BITMAP
001C
FFFC
3070
0030
1C70
0C60
0C60
0CCC
FFFF
ENDCHAR
STARTCHAR C022076
ENCODING 9278
SWIDTH 2000 0
DWIDTH 20 0
BBX 16 11 3 0
BITMAP
0FE0
000E
FFFF
6180
0FC0
1860
1830
1830
1830
1C70
07C0
ENDCHAR
STARTCHAR C022077
ENCODING 9279
SWIDTH 2000 0
DWIDTH 20 0
BBX 9 17 7 -2
BITMAP
F000
3000
3000
3000
3000
3000
3000
3000
3380
3F80
3000
3000
3000
3000
3000
3000
3000
ENDCHAR
STARTCHAR C022100
ENCODING 9280
SWIDTH 2000 0
DWIDTH 20 0
BBX 8 17 7 -2
BITMAP
0E
07
E3
63
63
63
63
63
63
7F
63
63
63
63
63
63
63
ENDCHAR
STARTCHAR C022101
ENCODING 9281
SWIDTH 2000 0
DWIDTH 20 0
BBX 9 17 7 -2
BITMAP
E000
3000
3000
3000
3000
3700
3F00
3000
3000
3000
3300
3F80
3000
3000
3000
3000
3000
ENDCHAR
STARTCHAR C022102
ENCODING 9282
SWIDTH 2000 0
DWIDTH 20 0
BBX 8 17 7 -2
BITMAP
0F
03
E3
63
63
63
7F
63
63
63
7F
63
63
63
63
63
03
ENDCHAR
STARTCHAR C022103
ENCODING 9283
SWIDTH 2000 0
DWIDTH 20 0
BBX 8 17 6 -2
BITMAP
0F
03
03
03
03
03
03
FF
63
03
03
03
03
03
03
03
03
ENDCHAR
STARTCHAR C022104
ENCODING 9284
SWIDTH 2000 0
DWIDTH 20 0
BBX 11 17 4 -2
BITMAP
01E0
0060
0E60
0660
0660
0660
0660
0660
FE60
6660
0660
0660
0660
0660
0660
0660
0060
ENDCHAR
STARTCHAR C022105
ENCODING 9285
SWIDTH 2000 0
DWIDTH 20 0
BBX 8 17 6 -2
BITMAP
0E
03
03
03
03
03
FF
63
03
03
03
FF
03
03
03
03
03
ENDCHAR
STARTCHAR C022106
ENCODING 9286
SWIDTH 2000 0
DWIDTH 20 0
BBX 12 17 4 -2
BITMAP
00E0
0030
0E30
0630
0630
0630
FE30
6630
0630
0630
0630
DE30
7630
0630
0630
0630
0630
ENDCHAR
STARTCHAR C022107
ENCODING 9287
SWIDTH 2000 0
DWIDTH 20 0
BBX 18 9 2 2
BITMAP
01C000
00C000
00C000
00C000
00C000
00C000
00C000
00C380
FFFFC0
ENDCHAR
STARTCHAR C022110
ENCODING 9288
SWIDTH 2000 0
DWIDTH 20 0
BBX 19 17 1 -2
BITMAP
001C00
000600
000600
000600
070600
030600
030600
030600
0307E0
030600
033E00
FFE600
380600
000600
000600
000600
000600
ENDCHAR
STARTCHAR C022111
ENCODING 9289
SWIDTH 2000 0
DWIDTH 20 0
BBX 16 16 2 -2
BITMAP
0007
0073
0033
1C33
0C33
0C33
0C33
0C33
0C3F
0C73
0FF3
FE33
3033
0033
0033
0003
ENDCHAR
STARTCHAR C022112
ENCODING 9290
SWIDTH 2000 0
DWIDTH 20 0
BBX 15 17 2 -2
BITMAP
001E
0006
0006
0C06
0606
0606
0606
0606
0606
0606
067E
1FC6
F006
0006
0006
0006
0006
ENDCHAR
STARTCHAR C022113
ENCODING 9291
SWIDTH 2000 0
DWIDTH 20 0
BBX 18 9 2 2
BITMAP
003800
0C1C00
061800
061800
061800
061800
061800
061800
FFFFC0
ENDCHAR
STARTCHAR C022114
ENCODING 9292
SWIDTH 2000 0
DWIDTH 20 0
BBX 18 13 2 -2
BITMAP
0003C0
FFFFC0
70C000
00C000
00C000
00C000
00C000
00C000
00C000
00C000
00C000
00C000
00C000
ENDCHAR
STARTCHAR C022115
ENCODING 9293
SWIDTH 2000 0
DWIDTH 20 0
BBX 16 17 1 -2
BITMAP
000E
0003
0003
0003
0003
0073
FFC3
3303
0303
033F
0303
0303
0303
0303
0303
0003
0003
ENDCHAR
STARTCHAR C022116
ENCODING 9294
SWIDTH 2000 0
DWIDTH 20 0
BBX 16 17 2 -2
BITMAP
000F
0003
0073
0033
0033
0033
07B3
FC33
0C33
0DF3
0C33
0C33
0C33
0C33
0033
0003
0003
ENDCHAR
STARTCHAR C022117
ENCODING 9295
SWIDTH 2000 0
DWIDTH 20 0
BBX 15 17 2 -2
BITMAP
001E
0006
0006
0006
0006
001E
EFF6
7F06
0306
0306
0306
0306
0306
0306
0306
0006
0006
ENDCHAR
STARTCHAR C022120
ENCODING 9296
SWIDTH 2000 0
DWIDTH 20 0
BBX 18 14 2 -3
BITMAP
0003C0
FFFFC0
7E1800
061800
061800
061800
061800
061800
061800
061800
061800
061800
061800
060000
ENDCHAR
STARTCHAR C022121
ENCODING 9297
SWIDTH 2000 0
DWIDTH 20 0
BBX 18 2 2 5
BITMAP
0007C0
FFFFC0
ENDCHAR
STARTCHAR C022122
ENCODING 9298
SWIDTH 2000 0
DWIDTH 20 0
BBX 15 17 2 -2
BITMAP
001E
0006
0006
0006
0006
0006
0006
0006
000E
00FE
FF86
3006
0006
0006
0006
0006
0006
ENDCHAR
STARTCHAR C022123
ENCODING 9299
SWIDTH 2000 0
DWIDTH 20 0
BBX 4 17 8 -2
BITMAP
E0
30
30
30
30
30
30
30
30
30
30
30
30
30
30
30
30
ENDCHAR
STARTCHAR C022124
ENCODING 9300
SWIDTH 2000 0
DWIDTH 20 0
BBX 0 0 0 0
BITMAP
ENDCHAR
STARTCHAR C022125
ENCODING 9301
SWIDTH 2000 0
DWIDTH 20 0
BBX 16 9 3 2
BITMAP
C1C0
E0C0
60C0
60C0
60C0
60C0
60C0
66C6
7CFF
ENDCHAR
STARTCHAR C022126
ENCODING 9302
SWIDTH 2000 0
DWIDTH 20 0
BBX 17 11 2 1
BITMAP
00C700
007F00
E06000
606000
606000
606000
606000
606000
676380
7C7F80
600000
ENDCHAR
STARTCHAR C022127
ENCODING 9303
SWIDTH 2000 0
DWIDTH 20 0
BBX 16 10 2 2
BITMAP
0030
F01C
3018
3038
3030
3078
306C
31C6
3FC7
3B03
ENDCHAR
STARTCHAR C022130
ENCODING 9304
SWIDTH 2000 0
DWIDTH 20 0
BBX 16 10 3 1
BITMAP
E030
6030
6078
6078
60CC
60CC
63C6
6786
7F83
73FF
ENDCHAR
STARTCHAR C022131
ENCODING 9305
SWIDTH 2000 0
DWIDTH 20 0
BBX 17 10 2 1
BITMAP
FFCE00
0CC600
0CCE00
18CC00
FCCC00
60DE00
60DB00
60F380
6EE180
78E000
ENDCHAR
STARTCHAR C022132
ENCODING 9306
SWIDTH 2000 0
DWIDTH 20 0
BBX 18 11 2 1
BITMAP
000380
FFFF80
066000
066000
066000
FE6000
606000
606000
606380
677FC0
7C0000
ENDCHAR
STARTCHAR C022133
ENCODING 9307
SWIDTH 2000 0
DWIDTH 20 0
BBX 18 10 2 1
BITMAP
FE3600
0DB700
0DB700
0DB600
7DF600
61B600
61BF00
61BD80
7DF9C0
71B0C0
ENDCHAR
STARTCHAR C022134
ENCODING 9308
SWIDTH 2000 0
DWIDTH 20 0
BBX 17 11 2 0
BITMAP
FF0C00
631C00
061C00
061E00
7F3600
603300
607300
606300
63E180
7EFF80
600000
ENDCHAR
STARTCHAR C022135
ENCODING 9309
SWIDTH 2000 0
DWIDTH 20 0
BBX 18 10 2 1
BITMAP
FF0380
66FFC0
066000
060C00
FE3E00
607300
606380
606380
677300
7C3E00
ENDCHAR
STARTCHAR C022136
ENCODING 9310
SWIDTH 2000 0
DWIDTH 20 0
BBX 17 11 2 1
BITMAP
000300
C0E180
7FE180
636180
636180
637F80
636180
636180
636180
7F7F80
606000
ENDCHAR
STARTCHAR C022137
ENCODING 9311
SWIDTH 2000 0
DWIDTH 20 0
BBX 17 10 2 1
BITMAP
003800
FF1C00
671800
671800
673800
673C00
666600
66E700
7FC380
618180
ENDCHAR
STARTCHAR C022140
ENCODING 9312
SWIDTH 2000 0
DWIDTH 20 0
BBX 17 10 2 1
BITMAP
001800
FF1800
631C00
633C00
633600
633600
666300
666300
7FE180
60FF80
ENDCHAR
STARTCHAR C022141
ENCODING 9313
SWIDTH 2000 0
DWIDTH 20 0
BBX 11 14 5 -1
BITMAP
FFE0
60C0
60C0
60C0
60C0
7FC0
6000
3F00
71C0
60C0
60C0
60C0
3180
1F00
ENDCHAR
STARTCHAR C022142
ENCODING 9314
SWIDTH 2000 0
DWIDTH 20 0
BBX 15 10 3 1
BITMAP
0E06
C67E
C606
C606
FE06
C606
C606
C606
FE06
C606
ENDCHAR
STARTCHAR C022143
ENCODING 9315
SWIDTH 2000 0
DWIDTH 20 0
BBX 15 10 3 1
BITMAP
CFDE
C6F0
C6C0
FEC0
C6C0
C6C0
C6C0
C6C0
FECE
C6FE
ENDCHAR
STARTCHAR C022144
ENCODING 9316
SWIDTH 2000 0
DWIDTH 20 0
BBX 17 12 2 0
BITMAP
180000
ECE180
6CEF80
6CE180
6CC180
7CC180
6DE180
6DB180
6F3980
6E1980
7C0180
6C0000
ENDCHAR
STARTCHAR C022145
ENCODING 9317
SWIDTH 2000 0
DWIDTH 20 0
BBX 18 11 2 1
BITMAP
198000
ECFB80
6CCE00
6CCC00
6CCC00
7DCC00
6DCC00
6DEC00
6F3C00
7E3DC0
600700
ENDCHAR
STARTCHAR C022146
ENCODING 9318
SWIDTH 2000 0
DWIDTH 20 0
BBX 16 12 3 0
BITMAP
000E
1DFE
CC30
CC30
CC30
FC70
CC78
CC6C
CCCE
FD87
C303
0600
ENDCHAR
STARTCHAR C022147
ENCODING 9319
SWIDTH 2000 0
DWIDTH 20 0
BBX 16 12 2 0
BITMAP
0007
C3FF
63C0
63C0
63CE
7FFE
63C0
63C0
63C0
7FC7
63FF
6000
ENDCHAR
STARTCHAR C022150
ENCODING 9320
SWIDTH 2000 0
DWIDTH 20 0
BBX 12 16 4 -2
BITMAP
F070
3030
3030
3FF0
3030
3030
3030
3FF0
3030
0FC0
38E0
3060
3060
3060
38E0
0FC0
ENDCHAR
STARTCHAR C022151
ENCODING 9321
SWIDTH 2000 0
DWIDTH 20 0
BBX 14 16 3 -2
BITMAP
0D9C
E6CC
66CC
7EFC
66CC
66CC
7EFC
66C0
0000
0FC0
1C60
3830
3830
1830
1C60
0FC0
ENDCHAR
STARTCHAR C022152
ENCODING 9322
SWIDTH 2000 0
DWIDTH 20 0
BBX 16 10 2 1
BITMAP
0E03
077F
0603
0E03
0E03
1B03
1B83
31C3
60C3
C003
ENDCHAR
STARTCHAR C022153
ENCODING 9323
SWIDTH 2000 0
DWIDTH 20 0
BBX 18 10 2 2
BITMAP
00F000
0E3000
0E3000
0C3000
0C3000
1C3000
1E3000
333000
63B380
C1BFC0
ENDCHAR
STARTCHAR C022154
ENCODING 9324
SWIDTH 2000 0
DWIDTH 20 0
BBX 17 11 2 1
BITMAP
000700
0EFF00
0E6000
0C6000
1C6000
1C6000
3E6000
336000
63E000
C1E300
007F80
ENDCHAR
STARTCHAR C022155
ENCODING 9325
SWIDTH 2000 0
DWIDTH 20 0
BBX 16 11 2 1
BITMAP
1807
0E63
0E63
0C63
1C7F
1C63
3E63
3363
63E3
C1FF
0063
ENDCHAR
STARTCHAR C022156
ENCODING 9326
SWIDTH 2000 0
DWIDTH 20 0
BBX 18 10 1 1
BITMAP
07FF80
070C00
060E00
0E0E00
0E0C00
1F1E00
199B00
31F180
6061C0
C000C0
ENDCHAR
STARTCHAR C022157
ENCODING 9327
SWIDTH 2000 0
DWIDTH 20 0
BBX 13 11 4 1
BITMAP
0600
0300
0700
0F80
0CC0
18C0
1860
3060
7030
6018
FFF8
ENDCHAR
STARTCHAR C022160
ENCODING 9328
SWIDTH 2000 0
DWIDTH 20 0
BBX 17 9 2 1
BITMAP
3C3E00
677300
E36300
C36180
C36180
C36180
E36380
677300
3E3E00
ENDCHAR
STARTCHAR C022161
ENCODING 9329
SWIDTH 2000 0
DWIDTH 20 0
BBX 10 11 6 1
BITMAP
1C00
0C00
0C00
3F00
6180
C0C0
C0C0
C0C0
C0C0
6180
3F00
ENDCHAR
STARTCHAR C022162
ENCODING 9330
SWIDTH 2000 0
DWIDTH 20 0
BBX 17 11 2 1
BITMAP
183000
181C00
3E1C00
661800
C31800
C33800
C33C00
C36600
C36300
66C180
3D8180
ENDCHAR
STARTCHAR C022163
ENCODING 9331
SWIDTH 2000 0
DWIDTH 20 0
BBX 17 12 2 1
BITMAP
380000
181800
181800
3E1C00
663C00
C33600
C33600
C36300
C36300
C3E300
66C180
3CFF80
ENDCHAR
STARTCHAR C022164
ENCODING 9332
SWIDTH 2000 0
DWIDTH 20 0
BBX 13 16 4 -2
BITMAP
0038
7FF8
00E0
18C0
1CC0
0DB0
03F8
FE00
0000
0F80
18C0
3060
3060
3060
18E0
0FC0
ENDCHAR
STARTCHAR C022165
ENCODING 9333
SWIDTH 2000 0
DWIDTH 20 0
BBX 18 11 2 1
BITMAP
3E3E00
000000
0381C0
FFFFC0
0C0E00
3E1F00
773380
636180
636180
777380
3E3F00
ENDCHAR
STARTCHAR C022166
ENCODING 9334
SWIDTH 2000 0
DWIDTH 20 0
BBX 14 12 4 0
BITMAP
0038
FFFC
0000
0000
0000
0F80
18C0
3060
3060
3060
18C0
0F80
ENDCHAR
STARTCHAR C022167
ENCODING 9335
SWIDTH 2000 0
DWIDTH 20 0
BBX 18 17 2 -2
BITMAP
003800
000C00
000C00
01CC00
00CC00
18CC00
18CFC0
18CC00
18CC00
18CC00
18FD80
FF8F80
600C00
000C00
000C00
000C00
000C00
ENDCHAR
STARTCHAR C022170
ENCODING 9336
SWIDTH 2000 0
DWIDTH 20 0
BBX 15 17 2 -2
BITMAP
001E
01C6
00C6
07E6
03F6
73FE
3BFE
3BFE
3BFE
1BFE
1BFE
1FFE
FCFE
00FE
00FE
00FE
0006
ENDCHAR
STARTCHAR C022171
ENCODING 9337
SWIDTH 2000 0
DWIDTH 20 0
BBX 14 18 3 -3
BITMAP
0038
000C
000C
000C
038C
318C
198C
198C
198C
198C
198C
1FFC
FC0C
000C
000C
000C
000C
000C
ENDCHAR
STARTCHAR C022172
ENCODING 9338
SWIDTH 2000 0
DWIDTH 20 0
BBX 15 17 2 -2
BITMAP
001C
0006
0006
0006
0006
00F6
FF86
3D86
0DBE
0D86
0D86
0DBE
0D86
0D86
0186
0006
0006
ENDCHAR
STARTCHAR C022173
ENCODING 9339
SWIDTH 2000 0
DWIDTH 20 0
BBX 15 16 2 -2
BITMAP
001C
0076
0036
0036
0036
03F6
FF36
1BF6
1B36
1B36
1BF6
1B36
1B36
0036
0006
0006
ENDCHAR
STARTCHAR C022174
ENCODING 9340
SWIDTH 2000 0
DWIDTH 20 0
BBX 15 17 2 -2
BITMAP
001C
0006
0006
0006
0006
0006
01F6
FFC6
0CC6
0CC6
0CC6
0CC6
0CC6
0CC6
0CC6
0006
0006
ENDCHAR
STARTCHAR C022175
ENCODING 9341
SWIDTH 2000 0
DWIDTH 20 0
BBX 5 3 8 5
BITMAP
78
F8
78
ENDCHAR
STARTCHAR C022176
ENCODING 9342
SWIDTH 2000 0
DWIDTH 20 0
BBX 11 17 5 -2
BITMAP
01E0
0060
0060
0060
0060
0060
7060
F860
7060
0060
0060
0060
0060
0060
0060
0060
0060
ENDCHAR
STARTCHAR C022177
ENCODING 9343
SWIDTH 2000 0
DWIDTH 20 0
BBX 0 0 0 0
BITMAP
ENDCHAR
STARTCHAR C022440
ENCODING 9504
SWIDTH 2000 0
DWIDTH 20 0
BBX 1 9 20 -3
BITMAP
80
00
00
00
00
00
00
00
80
ENDCHAR
STARTCHAR C022441
ENCODING 9505
SWIDTH 2000 0
DWIDTH 20 0
BBX 4 14 9 0
BITMAP
C0
C0
00
00
00
E0
60
60
60
60
60
60
60
F0
ENDCHAR
STARTCHAR C022442
ENCODING 9506
SWIDTH 2000 0
DWIDTH 20 0
BBX 11 14 5 0
BITMAP
30C0
30C0
0000
0000
0000
E1C0
60C0
60C0
60C0
60C0
60C0
60C0
60C0
F1E0
ENDCHAR
STARTCHAR C022443
ENCODING 9507
SWIDTH 2000 0
DWIDTH 20 0
BBX 13 14 4 0
BITMAP
C618
C618
0000
0000
0000
E770
6330
6330
6330
6330
6330
6330
6330
F7F8
ENDCHAR
STARTCHAR C022444
ENCODING 9508
SWIDTH 2000 0
DWIDTH 20 0
BBX 13 14 5 0
BITMAP
C000
C000
0000
0000
0000
FE78
6C60
6E60
6660
67C0
63C0
63C0
6180
F180
ENDCHAR
STARTCHAR C022445
ENCODING 9509
SWIDTH 2000 0
DWIDTH 20 0
BBX 10 9 6 0
BITMAP
F3C0
6180
7300
3300
3E00
1E00
1E00
0C00
0C00
ENDCHAR
STARTCHAR C022446
ENCODING 9510
SWIDTH 2000 0
DWIDTH 20 0
BBX 14 14 4 0
BITMAP
0030
0030
0000
0000
0000
F3F8
6318
7318
3618
3618
3C18
1C18
1C18
003C
ENDCHAR
STARTCHAR C022447
ENCODING 9511
SWIDTH 2000 0
DWIDTH 20 0
BBX 16 14 3 0
BITMAP
00CC
00CC
0000
0000
0000
F7FE
6666
6666
7C66
3C66
3C66
3866
1866
18FF
ENDCHAR
STARTCHAR C022450
ENCODING 9512
SWIDTH 2000 0
DWIDTH 20 0
BBX 18 15 2 -1
BITMAP
006D80
006D80
000000
000000
000000
F7DF80
66CD80
66CD80
76CD80
3CCD80
3CCD80
3CCD80
18CD80
19FFC0
003000
ENDCHAR
STARTCHAR C022451
ENCODING 9513
SWIDTH 2000 0
DWIDTH 20 0
BBX 15 14 3 0
BITMAP
1800
1800
0000
0000
0000
77FC
3318
31B0
31E0
30E0
31E0
3330
3338
FFFE
ENDCHAR
STARTCHAR C022452
ENCODING 9514
SWIDTH 2000 0
DWIDTH 20 0
BBX 11 9 5 0
BITMAP
FBE0
3180
1B00
1E00
0E00
1E00
3300
6180
FBE0
ENDCHAR
STARTCHAR C022453
ENCODING 9515
SWIDTH 2000 0
DWIDTH 20 0
BBX 0 0 0 0
BITMAP
ENDCHAR
STARTCHAR C022454
ENCODING 9516
SWIDTH 2000 0
DWIDTH 20 0
BBX 0 0 0 0
BITMAP
ENDCHAR
STARTCHAR C022455
ENCODING 9517
SWIDTH 2000 0
DWIDTH 20 0
BBX 0 0 0 0
BITMAP
ENDCHAR
STARTCHAR C022456
ENCODING 9518
SWIDTH 2000 0
DWIDTH 20 0
BBX 0 0 0 0
BITMAP
ENDCHAR
STARTCHAR C022457
ENCODING 9519
SWIDTH 2000 0
DWIDTH 20 0
BBX 1 9 20 -3
BITMAP
80
00
00
00
00
00
00
00
80
ENDCHAR
STARTCHAR C022460
ENCODING 9520
SWIDTH 2000 0
DWIDTH 20 0
BBX 6 14 7 0
BITMAP
FC
30
30
30
30
30
30
30
30
30
30
30
30
FC
ENDCHAR
STARTCHAR C022461
ENCODING 9521
SWIDTH 2000 0
DWIDTH 20 0
BBX 13 14 4 0
BITMAP
FFF8
3060
3060
3060
3060
3060
3060
3060
3060
3060
3060
3060
3060
FFF8
ENDCHAR
STARTCHAR C022462
ENCODING 9522
SWIDTH 2000 0
DWIDTH 20 0
BBX 17 14 2 0
BITMAP
FFFF80
30C600
30C600
30C600
30C600
30C600
30C600
30C600
30C600
30C600
30C600
30C600
30C600
FFFF80
ENDCHAR
STARTCHAR C022463
ENCODING 9523
SWIDTH 2000 0
DWIDTH 20 0
BBX 17 14 2 0
BITMAP
FFCF80
370700
330600
330600
338C00
318C00
318C00
31D800
30D800
30D800
30F000
307000
307000
FC6000
ENDCHAR
STARTCHAR C022464
ENCODING 9524
SWIDTH 2000 0
DWIDTH 20 0
BBX 15 14 3 0
BITMAP
FC7E
3818
3818
1830
1830
1C60
0C60
0C60
06C0
06C0
07C0
0380
0380
0300
ENDCHAR
STARTCHAR C022465
ENCODING 9525
SWIDTH 2000 0
DWIDTH 20 0
BBX 17 14 2 0
BITMAP
FCFF80
307600
306600
386600
18C600
18C600
18C600
1D8600
0D8600
0F0600
0F0600
070600
060600
061F80
ENDCHAR
STARTCHAR C022466
ENCODING 9526
SWIDTH 2000 0
DWIDTH 20 0
BBX 19 14 1 0
BITMAP
FDFFE0
70D980
30D980
30D980
399980
199980
199980
1D9980
0F1980
0F1980
0F1980
0E1980
061980
067FE0
ENDCHAR
STARTCHAR C022467
ENCODING 9527
SWIDTH 2000 0
DWIDTH 20 0
BBX 19 14 1 0
BITMAP
FBFFE0
70F6C0
31B6C0
31B6C0
31B6C0
3B36C0
3B36C0
1B36C0
1E36C0
1E36C0
1E36C0
0E36C0
0C36C0
0C7FE0
ENDCHAR
STARTCHAR C022470
ENCODING 9528
SWIDTH 2000 0
DWIDTH 20 0
BBX 17 14 2 0
BITMAP
FFCF80
338700
338600
31CC00
30D800
30F800
307000
307000
30F800
30D800
318C00
330E00
330600
FF9F80
ENDCHAR
STARTCHAR C022471
ENCODING 9529
SWIDTH 2000 0
DWIDTH 20 0
BBX 15 14 3 0
BITMAP
7E7C
1830
0C60
0C60
06C0
0780
0300
0780
06C0
0CC0
1860
1870
3038
FCFE
ENDCHAR
STARTCHAR C022472
ENCODING 9530
SWIDTH 2000 0
DWIDTH 20 0
BBX 0 0 0 0
BITMAP
ENDCHAR
STARTCHAR C022473
ENCODING 9531
SWIDTH 2000 0
DWIDTH 20 0
BBX 0 0 0 0
BITMAP
ENDCHAR
STARTCHAR C022474
ENCODING 9532
SWIDTH 2000 0
DWIDTH 20 0
BBX 0 0 0 0
BITMAP
ENDCHAR
STARTCHAR C022475
ENCODING 9533
SWIDTH 2000 0
DWIDTH 20 0
BBX 0 0 0 0
BITMAP
ENDCHAR
STARTCHAR C022476
ENCODING 9534
SWIDTH 2000 0
DWIDTH 20 0
BBX 1 9 20 -3
BITMAP
80
00
00
00
00
00
00
00
80
ENDCHAR
STARTCHAR C022477
ENCODING 9535
SWIDTH 2000 0
DWIDTH 20 0
BBX 0 0 0 0
BITMAP
ENDCHAR
STARTCHAR C022500
ENCODING 9536
SWIDTH 2000 0
DWIDTH 20 0
BBX 1 1 20 0
BITMAP
80
ENDCHAR
STARTCHAR C022501
ENCODING 9537
SWIDTH 2000 0
DWIDTH 20 0
BBX 17 13 2 0
BITMAP
001800
007C00
006C00
00CC00
018C00
030C00
030C00
060C00
0FFC00
180C00
180E00
300E00
FC3F80
ENDCHAR
STARTCHAR C022502
ENCODING 9538
SWIDTH 2000 0
DWIDTH 20 0
BBX 15 14 3 0
BITMAP
1FE0
073C
0606
0606
0606
0C0C
0C78
0FF0
1818
180C
180C
3818
3038
FFE0
ENDCHAR
STARTCHAR C022503
ENCODING 9539
SWIDTH 2000 0
DWIDTH 20 0
BBX 15 14 3 0
BITMAP
0FFE
070E
0606
060C
0600
0E00
0C00
0C00
0C00
1800
1800
1800
3800
FE00
ENDCHAR
STARTCHAR C022504
ENCODING 9540
SWIDTH 2000 0
DWIDTH 20 0
BBX 14 13 3 0
BITMAP
001C
003C
006C
00CC
018C
031C
0318
0618
0C18
1818
3018
6018
FFF8
ENDCHAR
STARTCHAR C022505
ENCODING 9541
SWIDTH 2000 0
DWIDTH 20 0
BBX 15 14 3 0
BITMAP
1FFE
070E
0606
0600
0E00
0C00
0CE0
1FE0
1860
1800
180C
300C
3038
FFF0
ENDCHAR
STARTCHAR C022506
ENCODING 9542
SWIDTH 2000 0
DWIDTH 20 0
BBX 14 14 4 0
BITMAP
1FFC
1E18
3830
3060
00C0
0180
0300
0600
0C00
1800
3030
7060
E1E0
FFC0
ENDCHAR
STARTCHAR C022507
ENCODING 9543
SWIDTH 2000 0
DWIDTH 20 0
BBX 19 14 1 0
BITMAP
0FEFE0
030380
030300
060300
060700
060600
0E0600
0FFE00
0C0C00
1C0C00
180C00
181800
381800
FEFE00
ENDCHAR
STARTCHAR C022510
ENCODING 9544
SWIDTH 2000 0
DWIDTH 20 0
BBX 13 15 4 -1
BITMAP
07E0
1C30
3818
3018
6018
ECD8
CFD8
DF98
D9B8
C030
C070
C060
60C0
3F80
0C00
ENDCHAR
STARTCHAR C022511
ENCODING 9545
SWIDTH 2000 0
DWIDTH 20 0
BBX 11 14 5 0
BITMAP
0FE0
0380
0300
0700
0600
0600
0600
0C00
0C00
0C00
1C00
1800
1800
FE00
ENDCHAR
STARTCHAR C022512
ENCODING 9546
SWIDTH 2000 0
DWIDTH 20 0
BBX 19 14 1 0
BITMAP
0FEFE0
038380
030600
030C00
063800
066000
07E000
0F6000
0C3000
0C3000
181800
181800
381C00
FE7F00
ENDCHAR
STARTCHAR C022513
ENCODING 9547
SWIDTH 2000 0
DWIDTH 20 0
BBX 15 13 3 0
BITMAP
0070
00F0
01B0
0330
0330
0630
0C30
0C30
1830
3030
3030
6038
F8FE
ENDCHAR
STARTCHAR C022514
ENCODING 9548
SWIDTH 2000 0
DWIDTH 20 0
BBX 19 14 1 0
BITMAP
0F01E0
0703C0
070780
0F0780
0F0F00
1B1B00
1B1B00
1B3700
336600
336600
33CE00
638C00
630C00
FB3F00
ENDCHAR
STARTCHAR C022515
ENCODING 9549
SWIDTH 2000 0
DWIDTH 20 0
BBX 19 14 1 0
BITMAP
0F07E0
038180
078300
078300
06C300
06C600
0CE600
0C6600
0C6600
183C00
183C00
183C00
381800
FC1800
ENDCHAR
STARTCHAR C022516
ENCODING 9550
SWIDTH 2000 0
DWIDTH 20 0
BBX 15 14 3 0
BITMAP
0FFE
1FFE
1806
1800
0000
0C30
0FF0
0FE0
1860
0000
6018
C030
E030
FFF0
ENDCHAR
STARTCHAR C022517
ENCODING 9551
SWIDTH 2000 0
DWIDTH 20 0
BBX 13 15 4 -1
BITMAP
07E0
0C30
1818
3018
7018
6018
6018
E038
C030
C070
C060
60E0
61C0
3F00
0C00
ENDCHAR
STARTCHAR C022520
ENCODING 9552
SWIDTH 2000 0
DWIDTH 20 0
BBX 17 14 2 0
BITMAP
0FFF80
070700
060600
060600
060C00
0C0C00
0C0C00
0C1800
181800
181800
183000
383000
303000
FCF800
ENDCHAR
STARTCHAR C022521
ENCODING 9553
SWIDTH 2000 0
DWIDTH 20 0
BBX 15 14 3 0
BITMAP
0FF8
030E
0706
0606
0606
0E0E
0C1C
0FF0
1C00
1800
1800
3800
3000
FE00
ENDCHAR
STARTCHAR C022522
ENCODING 9554
SWIDTH 2000 0
DWIDTH 20 0
BBX 15 14 3 0
BITMAP
07FE
0E0E
060C
0300
0300
0180
01C0
00C0
0380
0600
0C18
1830
7070
FFF0
ENDCHAR
STARTCHAR C022523
ENCODING 9555
SWIDTH 2000 0
DWIDTH 20 0
BBX 15 14 3 0
BITMAP
3FFE
718E
E186
0386
0300
0300
0700
0600
0600
0E00
0C00
0C00
1C00
7F00
ENDCHAR
STARTCHAR C022524
ENCODING 9556
SWIDTH 2000 0
DWIDTH 20 0
BBX 14 14 4 0
BITMAP
7C7C
0CFC
0F80
0700
0E00
0C00
0C00
0C00
1800
1800
1800
3000
3000
FC00
ENDCHAR
STARTCHAR C022525
ENCODING 9557
SWIDTH 2000 0
DWIDTH 20 0
BBX 13 14 4 0
BITMAP
07E0
0780
1FE0
39B0
7318
6318
E318
C638
C630
C670
6C60
3DC0
1F80
7E00
ENDCHAR
STARTCHAR C022526
ENCODING 9558
SWIDTH 2000 0
DWIDTH 20 0
BBX 19 14 1 0
BITMAP
0FE7E0
030300
038600
018C00
01D800
00F000
00E000
00E000
01F000
073000
0C3800
181800
381C00
FC7F00
ENDCHAR
STARTCHAR C022527
ENCODING 9559
SWIDTH 2000 0
DWIDTH 20 0
BBX 15 14 3 0
BITMAP
301E
FBFE
1BB6
1B30
3330
7330
6630
6670
6660
7FE0
1F80
0C00
1C00
7F00
ENDCHAR
STARTCHAR C022530
ENCODING 9560
SWIDTH 2000 0
DWIDTH 20 0
BBX 15 14 3 0
BITMAP
00F0
039C
0E06
1C06
1806
3806
3006
300E
301C
1838
0EE0
C78C
CD98
FDF8
ENDCHAR
STARTCHAR C022531
ENCODING 9561
SWIDTH 2000 0
DWIDTH 20 0
BBX 0 0 0 0
BITMAP
ENDCHAR
STARTCHAR C022532
ENCODING 9562
SWIDTH 2000 0
DWIDTH 20 0
BBX 0 0 0 0
BITMAP
ENDCHAR
STARTCHAR C022533
ENCODING 9563
SWIDTH 2000 0
DWIDTH 20 0
BBX 0 0 0 0
BITMAP
ENDCHAR
STARTCHAR C022534
ENCODING 9564
SWIDTH 2000 0
DWIDTH 20 0
BBX 1 9 20 -3
BITMAP
80
00
00
00
00
00
00
00
80
ENDCHAR
STARTCHAR C022535
ENCODING 9565
SWIDTH 2000 0
DWIDTH 20 0
BBX 0 0 0 0
BITMAP
ENDCHAR
STARTCHAR C022536
ENCODING 9566
SWIDTH 2000 0
DWIDTH 20 0
BBX 0 0 0 0
BITMAP
ENDCHAR
STARTCHAR C022537
ENCODING 9567
SWIDTH 2000 0
DWIDTH 20 0
BBX 0 0 0 0
BITMAP
ENDCHAR
STARTCHAR C022540
ENCODING 9568
SWIDTH 2000 0
DWIDTH 20 0
BBX 1 4 20 1
BITMAP
80
80
80
80
ENDCHAR
STARTCHAR C022541
ENCODING 9569
SWIDTH 2000 0
DWIDTH 20 0
BBX 11 9 5 0
BITMAP
0F60
3BE0
33C0
63C0
E380
C300
C300
CF00
7B80
ENDCHAR
STARTCHAR C022542
ENCODING 9570
SWIDTH 2000 0
DWIDTH 20 0
BBX 12 17 5 -3
BITMAP
01C0
0760
0C60
0C70
1860
1860
37C0
3780
30C0
30C0
60C0
60C0
7180
FF80
C000
C000
C000
ENDCHAR
STARTCHAR C022543
ENCODING 9571
SWIDTH 2000 0
DWIDTH 20 0
BBX 11 12 5 -3
BITMAP
78E0
DDC0
0D80
0F00
0E00
0C00
1800
1800
3800
3000
7000
6000
ENDCHAR
STARTCHAR C022544
ENCODING 9572
SWIDTH 2000 0
DWIDTH 20 0
BBX 11 14 5 0
BITMAP
0F00
0F80
19C0
0CC0
0660
0300
1F00
3180
6180
6180
E180
6380
6700
3E00
ENDCHAR
STARTCHAR C022545
ENCODING 9573
SWIDTH 2000 0
DWIDTH 20 0
BBX 9 9 6 0
BITMAP
1F00
3180
6000
6000
7E00
C000
C000
E300
7E00
ENDCHAR
STARTCHAR C022546
ENCODING 9574
SWIDTH 2000 0
DWIDTH 20 0
BBX 9 16 6 -3
BITMAP
7000
6380
6F00
3C00
3000
6000
C000
C000
C000
C000
C000
7C00
0600
0C00
FC00
7800
ENDCHAR
STARTCHAR C022547
ENCODING 9575
SWIDTH 2000 0
DWIDTH 20 0
BBX 9 12 6 -3
BITMAP
7780
FD80
3980
3180
7300
6300
E600
C600
0E00
0C00
1C00
1800
ENDCHAR
STARTCHAR C022550
ENCODING 9576
SWIDTH 2000 0
DWIDTH 20 0
BBX 11 14 5 0
BITMAP
03C0
0EC0
1C60
1860
30C0
30C0
7FC0
61C0
6180
6180
E300
C300
6600
7C00
ENDCHAR
STARTCHAR C022551
ENCODING 9577
SWIDTH 2000 0
DWIDTH 20 0
BBX 5 9 8 0
BITMAP
38
38
70
60
E0
C0
C0
D8
F0
ENDCHAR
STARTCHAR C022552
ENCODING 9578
SWIDTH 2000 0
DWIDTH 20 0
BBX 9 9 6 0
BITMAP
3B80
3600
3C00
7800
7800
6C00
CC00
CF00
CE00
ENDCHAR
STARTCHAR C022553
ENCODING 9579
SWIDTH 2000 0
DWIDTH 20 0
BBX 9 14 6 0
BITMAP
0C00
0F00
0300
0300
0300
0300
0700
0F00
1F00
3B00
3300
6300
E380
C180
ENDCHAR
STARTCHAR C022554
ENCODING 9580
SWIDTH 2000 0
DWIDTH 20 0
BBX 11 10 5 -2
BITMAP
0C60
1C60
18E0
38C0
31C0
3180
31E0
7FE0
6C00
E000
ENDCHAR
STARTCHAR C022555
ENCODING 9581
SWIDTH 2000 0
DWIDTH 20 0
BBX 9 9 6 0
BITMAP
E000
6180
6180
6300
6300
6600
CC00
F800
F000
ENDCHAR
STARTCHAR C022556
ENCODING 9582
SWIDTH 2000 0
DWIDTH 20 0
BBX 11 16 5 -2
BITMAP
0780
0C00
0DC0
0FE0
3800
3000
3000
1FC0
3380
E000
C000
C000
E000
7F00
0300
1F00
ENDCHAR
STARTCHAR C022557
ENCODING 9583
SWIDTH 2000 0
DWIDTH 20 0
BBX 9 10 6 -1
BITMAP
1F00
3180
6180
E180
C180
C380
C300
C600
6C00
3800
ENDCHAR
STARTCHAR C022560
ENCODING 9584
SWIDTH 2000 0
DWIDTH 20 0
BBX 11 8 5 0
BITMAP
7FE0
DB00
1B00
3600
3600
6600
E600
C780
ENDCHAR
STARTCHAR C022561
ENCODING 9585
SWIDTH 2000 0
DWIDTH 20 0
BBX 11 10 5 -2
BITMAP
07C0
1C60
1860
3860
30E0
70C0
7180
7B00
6E00
E000
ENDCHAR
STARTCHAR C022562
ENCODING 9586
SWIDTH 2000 0
DWIDTH 20 0
BBX 11 11 5 -1
BITMAP
03E0
0EE0
3F00
7180
6180
E180
C180
C300
6700
3C00
1800
ENDCHAR
STARTCHAR C022563
ENCODING 9587
SWIDTH 2000 0
DWIDTH 20 0
BBX 8 9 7 0
BITMAP
7F
DE
30
60
60
60
C0
D8
F0
ENDCHAR
STARTCHAR C022564
ENCODING 9588
SWIDTH 2000 0
DWIDTH 20 0
BBX 9 10 6 -1
BITMAP
3300
3380
3180
7380
6300
C300
C600
CC00
D800
7000
ENDCHAR
STARTCHAR C022565
ENCODING 9589
SWIDTH 2000 0
DWIDTH 20 0
BBX 11 10 5 -2
BITMAP
1FC0
7360
E660
CC60
CC60
CCC0
F980
3F00
1800
3000
ENDCHAR
STARTCHAR C022566
ENCODING 9590
SWIDTH 2000 0
DWIDTH 20 0
BBX 11 11 5 -2
BITMAP
3C60
3CE0
07C0
0780
0700
0600
0E00
1E00
3600
76C0
E7C0
ENDCHAR
STARTCHAR C022567
ENCODING 9591
SWIDTH 2000 0
DWIDTH 20 0
BBX 11 17 5 -3
BITMAP
0180
0380
0380
0300
0300
36E0
76E0
6660
ECC0
CCC0
CCC0
7980
3F00
1800
3800
3000
3000
ENDCHAR
STARTCHAR C022570
ENCODING 9592
SWIDTH 2000 0
DWIDTH 20 0
BBX 12 9 5 0
BITMAP
1860
3330
6730
C730
C630
CE70
CC60
CCC0
FF80
ENDCHAR
STARTCHAR C022571
ENCODING 9593
SWIDTH 2000 0
DWIDTH 20 0
BBX 0 0 0 0
BITMAP
ENDCHAR
STARTCHAR C022572
ENCODING 9594
SWIDTH 2000 0
DWIDTH 20 0
BBX 1 9 20 -3
BITMAP
80
00
00
00
00
00
00
00
80
ENDCHAR
STARTCHAR C022573
ENCODING 9595
SWIDTH 2000 0
DWIDTH 20 0
BBX 0 0 0 0
BITMAP
ENDCHAR
STARTCHAR C022574
ENCODING 9596
SWIDTH 2000 0
DWIDTH 20 0
BBX 0 0 0 0
BITMAP
ENDCHAR
STARTCHAR C022575
ENCODING 9597
SWIDTH 2000 0
DWIDTH 20 0
BBX 0 0 0 0
BITMAP
ENDCHAR
STARTCHAR C022576
ENCODING 9598
SWIDTH 2000 0
DWIDTH 20 0
BBX 0 0 0 0
BITMAP
ENDCHAR
STARTCHAR C022577
ENCODING 9599
SWIDTH 2000 0
DWIDTH 20 0
BBX 1 16 20 -1
BITMAP
80
00
00
00
00
00
00
80
80
00
00
80
80
80
80
80
ENDCHAR
STARTCHAR C023040
ENCODING 9760
SWIDTH 2000 0
DWIDTH 20 0
BBX 1 1 20 5
BITMAP
80
ENDCHAR
STARTCHAR C023041
ENCODING 9761
SWIDTH 2000 0
DWIDTH 20 0
BBX 20 1 0 5
BITMAP
FFFFF0
ENDCHAR
STARTCHAR C023042
ENCODING 9762
SWIDTH 2000 0
DWIDTH 20 0
BBX 0 0 0 0
BITMAP
ENDCHAR
STARTCHAR C023043
ENCODING 9763
SWIDTH 2000 0
DWIDTH 20 0
BBX 10 1 10 5
BITMAP
FFC0
ENDCHAR
STARTCHAR C023044
ENCODING 9764
SWIDTH 2000 0
DWIDTH 20 0
BBX 21 20 0 -4
BITMAP
000008
000008
000000
000000
000000
000008
000008
000000
000008
000008
FFE000
006000
006000
006000
006000
006000
006000
006000
006000
006000
ENDCHAR
STARTCHAR C023045
ENCODING 9765
SWIDTH 2000 0
DWIDTH 20 0
BBX 21 11 0 5
BITMAP
006000
006000
006000
006000
006000
006000
006000
006000
006000
FFE000
000008
ENDCHAR
STARTCHAR C023046
ENCODING 9766
SWIDTH 2000 0
DWIDTH 20 0
BBX 10 1 10 5
BITMAP
FFC0
ENDCHAR
STARTCHAR C023047
ENCODING 9767
SWIDTH 2000 0
DWIDTH 20 0
BBX 10 1 10 5
BITMAP
FFC0
ENDCHAR
STARTCHAR C023050
ENCODING 9768
SWIDTH 2000 0
DWIDTH 20 0
BBX 21 10 0 -4
BITMAP
FFFFF8
006000
006000
006000
006000
006000
006000
006000
006000
006000
ENDCHAR
STARTCHAR C023051
ENCODING 9769
SWIDTH 2000 0
DWIDTH 20 0
BBX 21 20 0 -4
BITMAP
006000
006000
006000
006000
006000
006000
006000
006000
006000
006000
FFE008
006000
006000
006000
006000
006000
006000
006000
006008
006000
ENDCHAR
STARTCHAR C023052
ENCODING 9770
SWIDTH 2000 0
DWIDTH 20 0
BBX 21 11 0 5
BITMAP
006000
006000
006000
006000
006000
006000
006000
006000
006000
006000
FFFFF8
ENDCHAR
STARTCHAR C023053
ENCODING 9771
SWIDTH 2000 0
DWIDTH 20 0
BBX 21 20 0 -4
BITMAP
006000
006000
006000
006000
006000
006000
006000
006000
006000
006008
FFFFF8
006000
006000
006000
006000
006000
006000
006000
006000
006000
ENDCHAR
STARTCHAR C023054
ENCODING 9772
SWIDTH 2000 0
DWIDTH 20 0
BBX 21 20 0 -4
BITMAP
000008
000008
000008
000008
000008
000008
000008
000008
000008
FFFFF8
FFFFF8
000008
000008
000008
000008
000008
000008
000008
000008
000008
ENDCHAR
STARTCHAR C023055
ENCODING 9773
SWIDTH 2000 0
DWIDTH 20 0
BBX 2 20 9 -4
BITMAP
C0
C0
C0
C0
C0
C0
C0
C0
C0
C0
C0
C0
C0
C0
C0
C0
C0
C0
C0
C0
ENDCHAR
STARTCHAR C023056
ENCODING 9774
SWIDTH 2000 0
DWIDTH 20 0
BBX 11 11 9 -4
BITMAP
FFE0
FFE0
C000
C000
C000
C000
C000
C000
C000
C000
C000
ENDCHAR
STARTCHAR C023057
ENCODING 9775
SWIDTH 2000 0
DWIDTH 20 0
BBX 21 11 0 -4
BITMAP
FFE008
FFE008
006000
006000
006000
006000
006000
006000
006000
006000
006000
ENDCHAR
STARTCHAR C023060
ENCODING 9776
SWIDTH 2000 0
DWIDTH 20 0
BBX 21 11 0 5
BITMAP
006008
006008
006008
006008
006008
006008
006008
006008
006008
FFE008
FFE008
ENDCHAR
STARTCHAR C023061
ENCODING 9777
SWIDTH 2000 0
DWIDTH 20 0
BBX 11 11 9 5
BITMAP
C000
C000
C000
C000
C000
C000
C000
C000
C000
FFE0
FFE0
ENDCHAR
STARTCHAR C023062
ENCODING 9778
SWIDTH 2000 0
DWIDTH 20 0
BBX 12 20 9 -4
BITMAP
C000
C000
C000
C000
C000
C000
C000
C000
C000
FFE0
FFE0
C000
C000
C000
C000
C000
C000
C000
C000
C000
ENDCHAR
STARTCHAR C023063
ENCODING 9779
SWIDTH 2000 0
DWIDTH 20 0
BBX 21 20 0 -4
BITMAP
000008
000008
000000
000000
000000
000008
000008
000000
000008
FFFFF8
FFFFF0
006000
006000
006000
006000
006000
006000
006000
006000
006000
ENDCHAR
STARTCHAR C023064
ENCODING 9780
SWIDTH 2000 0
DWIDTH 20 0
BBX 11 20 0 -4
BITMAP
0060
0060
0060
0060
0060
0060
0060
0060
0060
FFE0
FFE0
0060
0060
0060
0060
0060
0060
0060
0060
0060
ENDCHAR
STARTCHAR C023065
ENCODING 9781
SWIDTH 2000 0
DWIDTH 20 0
BBX 19 11 1 5
BITMAP
006000
006000
006000
006000
006000
006000
006000
006000
006000
FFFFE0
FFFFE0
ENDCHAR
STARTCHAR C023066
ENCODING 9782
SWIDTH 2000 0
DWIDTH 20 0
BBX 21 20 0 -4
BITMAP
003000
003000
003000
003000
003000
003000
003000
003000
003000
7FFFF0
7FFFF0
003000
003000
003000
003000
003000
003000
003000
003000
003000
ENDCHAR
STARTCHAR C023067
ENCODING 9783
SWIDTH 2000 0
DWIDTH 20 0
BBX 12 20 9 -4
BITMAP
6000
6000
6000
6000
6000
6000
6000
6000
6000
6000
7FE0
6000
6000
6000
6000
6000
6000
6000
6000
6000
ENDCHAR
STARTCHAR C023070
ENCODING 9784
SWIDTH 2000 0
DWIDTH 20 0
BBX 21 11 0 -4
BITMAP
FFFFF0
FFFFF8
006000
006000
006000
006000
006000
006000
006000
006008
006000
ENDCHAR
STARTCHAR C023071
ENCODING 9785
SWIDTH 2000 0
DWIDTH 20 0
BBX 21 20 0 -4
BITMAP
003000
003000
003000
003000
003000
003000
003000
003000
003000
003008
7FF008
003000
003000
003000
003000
003000
003000
003000
003000
003000
ENDCHAR
STARTCHAR C023072
ENCODING 9786
SWIDTH 2000 0
DWIDTH 20 0
BBX 21 11 0 5
BITMAP
006000
006000
006000
006000
006000
006000
006000
006000
006000
FFFFF8
FFFFF8
ENDCHAR
STARTCHAR C023073
ENCODING 9787
SWIDTH 2000 0
DWIDTH 20 0
BBX 21 20 0 -4
BITMAP
006000
006000
006000
006000
006000
006000
006000
006000
006000
FFFFF8
FFFFF8
006000
006000
006000
006000
006000
006000
006000
006000
006000
ENDCHAR
STARTCHAR C023074
ENCODING 9788
SWIDTH 2000 0
DWIDTH 20 0
BBX 10 2 10 5
BITMAP
FFC0
FFC0
ENDCHAR
STARTCHAR C023075
ENCODING 9789
SWIDTH 2000 0
DWIDTH 20 0
BBX 21 19 0 -4
BITMAP
000008
000000
000000
000000
000000
000000
000000
000008
000008
FFFFF0
006000
006008
006008
006008
006008
006008
006000
006000
006000
ENDCHAR
STARTCHAR C023076
ENCODING 9790
SWIDTH 2000 0
DWIDTH 20 0
BBX 21 20 0 -4
BITMAP
006000
006000
006000
006000
006000
006000
006000
006000
006000
FFE000
FFE008
006000
006000
006000
006000
006000
006000
006000
006000
006000
ENDCHAR
STARTCHAR C023077
ENCODING 9791
SWIDTH 2000 0
DWIDTH 20 0
BBX 21 11 0 5
BITMAP
006000
006000
006000
006000
006000
006000
006000
006000
006000
006000
FFFFF8
ENDCHAR
STARTCHAR C023100
ENCODING 9792
SWIDTH 2000 0
DWIDTH 20 0
BBX 21 20 0 -4
BITMAP
006000
006000
006000
006000
006000
006000
006000
006000
006000
006000
FFFFF8
006000
006000
006000
006000
006000
006000
006000
006000
006000
ENDCHAR
STARTCHAR C023101
ENCODING 9793
SWIDTH 2000 0
DWIDTH 20 0
BBX 21 11 0 -4
BITMAP
000008
FFE008
006000
006000
006000
006000
006000
006000
006000
006000
006000
ENDCHAR
STARTCHAR C023102
ENCODING 9794
SWIDTH 2000 0
DWIDTH 20 0
BBX 21 20 0 -4
BITMAP
000008
000008
000000
000000
000000
000008
000008
000000
000008
FFE008
FFE000
006000
006000
006000
006000
006000
006000
006000
006000
006000
ENDCHAR
STARTCHAR C023103
ENCODING 9795
SWIDTH 2000 0
DWIDTH 20 0
BBX 20 11 1 5
BITMAP
006000
006000
006000
006000
006000
006000
006000
006000
006000
006010
FFE010
ENDCHAR
STARTCHAR C023104
ENCODING 9796
SWIDTH 2000 0
DWIDTH 20 0
BBX 21 11 0 5
BITMAP
003008
003008
003008
003008
003008
003008
003008
003008
003008
FFF008
FFF008
ENDCHAR
STARTCHAR C023105
ENCODING 9797
SWIDTH 2000 0
DWIDTH 20 0
BBX 11 11 9 5
BITMAP
C000
C000
C000
C000
C000
C000
C000
C000
C000
C000
FFE0
ENDCHAR
STARTCHAR C023106
ENCODING 9798
SWIDTH 2000 0
DWIDTH 20 0
BBX 10 2 10 5
BITMAP
FFC0
FFC0
ENDCHAR
STARTCHAR C023107
ENCODING 9799
SWIDTH 2000 0
DWIDTH 20 0
BBX 10 10 10 -4
BITMAP
FFC0
C000
C000
C000
C000
C000
C000
C000
C000
C000
ENDCHAR
STARTCHAR C023110
ENCODING 9800
SWIDTH 2000 0
DWIDTH 20 0
BBX 10 2 10 5
BITMAP
FFC0
FFC0
ENDCHAR
STARTCHAR C023111
ENCODING 9801
SWIDTH 2000 0
DWIDTH 20 0
BBX 12 20 9 -4
BITMAP
6000
6000
6000
6000
6000
6000
6000
6000
6000
6000
FFE0
C000
C000
C000
C000
C000
C000
C000
C000
C000
ENDCHAR
STARTCHAR C023112
ENCODING 9802
SWIDTH 2000 0
DWIDTH 20 0
BBX 12 20 9 -4
BITMAP
6000
6000
6000
6000
6000
6000
6000
6000
6000
7FE0
6000
6000
6000
6000
6000
6000
6000
6000
6000
6000
ENDCHAR
STARTCHAR C023113
ENCODING 9803
SWIDTH 2000 0
DWIDTH 20 0
BBX 12 20 9 -4
BITMAP
6000
6000
6000
6000
6000
6000
6000
6000
6000
7FE0
FFE0
C000
C000
C000
C000
C000
C000
C000
C000
C000
ENDCHAR
STARTCHAR C023114
ENCODING 9804
SWIDTH 2000 0
DWIDTH 20 0
BBX 12 20 9 -4
BITMAP
6000
6000
6000
6000
6000
6000
6000
6000
6000
7FE0
7FE0
6000
6000
6000
6000
6000
6000
6000
6000
6000
ENDCHAR
STARTCHAR C023115
ENCODING 9805
SWIDTH 2000 0
DWIDTH 20 0
BBX 11 20 0 -4
BITMAP
0060
0060
0060
0060
0060
0060
0060
0060
0060
0060
FFE0
0060
0060
0060
0060
0060
0060
0060
0060
0060
ENDCHAR
STARTCHAR C023116
ENCODING 9806
SWIDTH 2000 0
DWIDTH 20 0
BBX 11 20 1 -4
BITMAP
0060
0060
0060
0060
0060
0060
0060
0060
0060
0060
FFE0
0060
0060
0060
0060
0060
0060
0060
0060
0060
ENDCHAR
STARTCHAR C023117
ENCODING 9807
SWIDTH 2000 0
DWIDTH 20 0
BBX 11 20 1 -4
BITMAP
0060
0060
0060
0060
0060
0060
0060
0060
0060
FFE0
FFE0
0060
0060
0060
0060
0060
0060
0060
0060
0060
ENDCHAR
STARTCHAR C023120
ENCODING 9808
SWIDTH 2000 0
DWIDTH 20 0
BBX 21 20 0 -4
BITMAP
006000
006000
006000
006000
006000
006000
006000
006000
006000
7FE008
7FF008
003000
003000
003000
003000
003000
003000
003000
003000
003000
ENDCHAR
STARTCHAR C023121
ENCODING 9809
SWIDTH 2000 0
DWIDTH 20 0
BBX 21 20 0 -4
BITMAP
000008
000008
000000
000000
000000
000008
000008
000000
000008
FFE008
FFFFF0
006000
006000
006000
006000
006000
006000
006000
006000
006000
ENDCHAR
STARTCHAR C023122
ENCODING 9810
SWIDTH 2000 0
DWIDTH 20 0
BBX 21 11 0 -4
BITMAP
003FF8
FFFFF8
006000
006000
006000
006000
006000
006000
006000
006000
006000
ENDCHAR
STARTCHAR C023123
ENCODING 9811
SWIDTH 2000 0
DWIDTH 20 0
BBX 21 11 0 -4
BITMAP
FFE000
FFFFF8
006000
006000
006000
006000
006000
006000
006000
006000
006000
ENDCHAR
STARTCHAR C023124
ENCODING 9812
SWIDTH 2000 0
DWIDTH 20 0
BBX 21 11 0 -4
BITMAP
007FF8
FFFFF8
006000
006000
006000
006000
006000
006000
006000
006000
006000
ENDCHAR
STARTCHAR C023125
ENCODING 9813
SWIDTH 2000 0
DWIDTH 20 0
BBX 21 11 0 5
BITMAP
006000
006000
006000
006000
006000
006000
006000
006000
006000
FFE000
FFFFF8
ENDCHAR
STARTCHAR C023126
ENCODING 9814
SWIDTH 2000 0
DWIDTH 20 0
BBX 21 19 0 -3
BITMAP
006000
006000
006000
006000
006000
006000
006000
006000
006000
007FF0
FFFFF8
000000
000000
000000
000000
000000
000000
000000
000008
ENDCHAR
STARTCHAR C023127
ENCODING 9815
SWIDTH 2000 0
DWIDTH 20 0
BBX 21 11 0 5
BITMAP
006000
006000
006000
006000
006000
006000
006000
006000
006000
FFE000
FFFFF8
ENDCHAR
STARTCHAR C023130
ENCODING 9816
SWIDTH 2000 0
DWIDTH 20 0
BBX 21 11 0 5
BITMAP
006000
006000
006000
006000
006000
006000
006000
006000
006000
007FF8
FFFFF8
ENDCHAR
STARTCHAR C023131
ENCODING 9817
SWIDTH 2000 0
DWIDTH 20 0
BBX 21 20 0 -4
BITMAP
006000
006000
006000
006000
006000
006000
006000
006000
006000
FFE000
FFFFF8
006000
006000
006000
006000
006000
006000
006000
006000
006000
ENDCHAR
STARTCHAR C023132
ENCODING 9818
SWIDTH 2000 0
DWIDTH 20 0
BBX 21 20 0 -4
BITMAP
006000
006000
006000
006000
006000
006000
006000
006000
006000
007FF0
FFFFF8
006000
006000
006000
006000
006000
006000
006000
006000
006000
ENDCHAR
STARTCHAR C023133
ENCODING 9819
SWIDTH 2000 0
DWIDTH 20 0
BBX 21 20 0 -4
BITMAP
006000
006008
006000
006000
006000
006000
006000
006000
006008
006008
FFFFF0
006000
006008
006008
006008
006008
006008
006000
006000
006000
ENDCHAR
STARTCHAR C023134
ENCODING 9820
SWIDTH 2000 0
DWIDTH 20 0
BBX 21 20 0 -4
BITMAP
006000
006000
006000
006000
006000
006000
006000
006000
006000
006000
FFFFF0
006000
006000
006000
006000
006000
006000
006000
006000
006000
ENDCHAR
STARTCHAR C023135
ENCODING 9821
SWIDTH 2000 0
DWIDTH 20 0
BBX 21 20 0 -4
BITMAP
003000
003000
003000
003000
003000
003000
003000
003000
003000
7FF000
7FFFF8
003000
003000
003000
003000
003000
003000
003000
003000
003000
ENDCHAR
STARTCHAR C023136
ENCODING 9822
SWIDTH 2000 0
DWIDTH 20 0
BBX 21 20 0 -4
BITMAP
006000
006000
006000
006000
006000
006000
006000
006000
006000
007FF8
FFFFF8
006000
006000
006000
006000
006000
006000
006000
006000
006000
ENDCHAR
STARTCHAR C023137
ENCODING 9823
SWIDTH 2000 0
DWIDTH 20 0
BBX 21 20 0 -4
BITMAP
006000
006000
006000
006000
006000
006000
006000
006000
006000
FFE000
FFFFF8
006000
006000
006000
006000
006000
006000
006000
006000
006000
ENDCHAR
STARTCHAR C023140
ENCODING 9824
SWIDTH 2000 0
DWIDTH 20 0
BBX 21 20 0 -4
BITMAP
006008
006008
006000
006000
006000
006008
006008
006000
006008
007FF8
FFFFF0
006000
006000
006000
006000
006000
006000
006000
006000
006000
ENDCHAR
STARTCHAR C023141
ENCODING 9825
SWIDTH 2000 0
DWIDTH 20 0
BBX 21 20 0 -4
BITMAP
003000
003000
003000
003000
003000
003000
003000
003000
003000
7FFFF0
7FFFF0
006000
006000
006000
006000
006000
006000
006000
006000
006000
ENDCHAR
STARTCHAR C023142
ENCODING 9826
SWIDTH 2000 0
DWIDTH 20 0
BBX 21 20 0 -4
BITMAP
003000
003000
003000
003000
003000
003000
003000
003000
003000
7FFFF8
7FFFF8
003000
003000
003000
003000
003000
003000
003000
003000
003000
ENDCHAR
STARTCHAR C023143
ENCODING 9827
SWIDTH 2000 0
DWIDTH 20 0
BBX 21 20 0 -4
BITMAP
006000
006000
006000
006000
006000
006000
006000
006000
006000
FFE000
FFFFF8
006000
006000
006000
006000
006000
006000
006000
006000
006000
ENDCHAR
STARTCHAR C023144
ENCODING 9828
SWIDTH 2000 0
DWIDTH 20 0
BBX 21 20 0 -4
BITMAP
006000
006000
006000
006000
006000
006000
006000
006000
006000
007FF0
FFFFF0
006000
006000
006000
006000
006000
006000
006000
006000
006000
ENDCHAR
STARTCHAR C023145
ENCODING 9829
SWIDTH 2000 0
DWIDTH 20 0
BBX 1 9 20 -3
BITMAP
80
00
00
00
00
00
00
00
80
ENDCHAR
STARTCHAR C023146
ENCODING 9830
SWIDTH 2000 0
DWIDTH 20 0
BBX 0 0 0 0
BITMAP
ENDCHAR
STARTCHAR C023147
ENCODING 9831
SWIDTH 2000 0
DWIDTH 20 0
BBX 0 0 0 0
BITMAP
ENDCHAR
STARTCHAR C023150
ENCODING 9832
SWIDTH 2000 0
DWIDTH 20 0
BBX 0 0 0 0
BITMAP
ENDCHAR
STARTCHAR C023151
ENCODING 9833
SWIDTH 2000 0
DWIDTH 20 0
BBX 0 0 0 0
BITMAP
ENDCHAR
STARTCHAR C023152
ENCODING 9834
SWIDTH 2000 0
DWIDTH 20 0
BBX 1 16 20 -1
BITMAP
80
00
00
00
00
00
00
80
80
00
00
80
80
80
80
80
ENDCHAR
STARTCHAR C023153
ENCODING 9835
SWIDTH 2000 0
DWIDTH 20 0
BBX 0 0 0 0
BITMAP
ENDCHAR
STARTCHAR C023154
ENCODING 9836
SWIDTH 2000 0
DWIDTH 20 0
BBX 0 0 0 0
BITMAP
ENDCHAR
STARTCHAR C023155
ENCODING 9837
SWIDTH 2000 0
DWIDTH 20 0
BBX 0 0 0 0
BITMAP
ENDCHAR
STARTCHAR C023156
ENCODING 9838
SWIDTH 2000 0
DWIDTH 20 0
BBX 0 0 0 0
BITMAP
ENDCHAR
STARTCHAR C023157
ENCODING 9839
SWIDTH 2000 0
DWIDTH 20 0
BBX 1 10 20 6
BITMAP
80
80
00
00
00
80
80
00
80
80
ENDCHAR
STARTCHAR C023160
ENCODING 9840
SWIDTH 2000 0
DWIDTH 20 0
BBX 0 0 0 0
BITMAP
ENDCHAR
STARTCHAR C023161
ENCODING 9841
SWIDTH 2000 0
DWIDTH 20 0
BBX 0 0 0 0
BITMAP
ENDCHAR
STARTCHAR C023162
ENCODING 9842
SWIDTH 2000 0
DWIDTH 20 0
BBX 0 0 0 0
BITMAP
ENDCHAR
STARTCHAR C023163
ENCODING 9843
SWIDTH 2000 0
DWIDTH 20 0
BBX 0 0 0 0
BITMAP
ENDCHAR
STARTCHAR C023164
ENCODING 9844
SWIDTH 2000 0
DWIDTH 20 0
BBX 1 9 20 -3
BITMAP
80
00
00
00
00
00
00
00
80
ENDCHAR
STARTCHAR C023165
ENCODING 9845
SWIDTH 2000 0
DWIDTH 20 0
BBX 0 0 0 0
BITMAP
ENDCHAR
STARTCHAR C023166
ENCODING 9846
SWIDTH 2000 0
DWIDTH 20 0
BBX 0 0 0 0
BITMAP
ENDCHAR
STARTCHAR C023167
ENCODING 9847
SWIDTH 2000 0
DWIDTH 20 0
BBX 0 0 0 0
BITMAP
ENDCHAR
STARTCHAR C023170
ENCODING 9848
SWIDTH 2000 0
DWIDTH 20 0
BBX 0 0 0 0
BITMAP
ENDCHAR
STARTCHAR C023171
ENCODING 9849
SWIDTH 2000 0
DWIDTH 20 0
BBX 1 16 20 -1
BITMAP
80
00
00
00
00
00
00
80
80
00
00
80
80
80
80
80
ENDCHAR
STARTCHAR C023172
ENCODING 9850
SWIDTH 2000 0
DWIDTH 20 0
BBX 0 0 0 0
BITMAP
ENDCHAR
STARTCHAR C023173
ENCODING 9851
SWIDTH 2000 0
DWIDTH 20 0
BBX 0 0 0 0
BITMAP
ENDCHAR
STARTCHAR C023174
ENCODING 9852
SWIDTH 2000 0
DWIDTH 20 0
BBX 0 0 0 0
BITMAP
ENDCHAR
STARTCHAR C023175
ENCODING 9853
SWIDTH 2000 0
DWIDTH 20 0
BBX 0 0 0 0
BITMAP
ENDCHAR
STARTCHAR C023176
ENCODING 9854
SWIDTH 2000 0
DWIDTH 20 0
BBX 1 10 20 6
BITMAP
80
80
00
00
00
80
80
00
80
80
ENDCHAR
STARTCHAR C023177
ENCODING 9855
SWIDTH 2000 0
DWIDTH 20 0
BBX 0 0 0 0
BITMAP
ENDCHAR
STARTCHAR C023440
ENCODING 10016
SWIDTH 2000 0
DWIDTH 20 0
BBX 0 0 0 0
BITMAP
ENDCHAR
STARTCHAR C023441
ENCODING 10017
SWIDTH 2000 0
DWIDTH 20 0
BBX 20 18 1 -4
BITMAP
0001C0
000360
000360
000660
0006C0
0C36D0
1C76C0
186780
38E700
30C600
30C600
319E60
61B360
73E1C0
7E0000
C00000
C00000
C00000
ENDCHAR
STARTCHAR C023442
ENCODING 10018
SWIDTH 2000 0
DWIDTH 20 0
BBX 19 15 1 -1
BITMAP
000380
0006C0
0006C0
000CC0
000CC0
FFCD80
7ECD80
6CCF00
6CCE00
6CCC00
6CCC00
6CFC60
6CC6C0
6CC780
000300
ENDCHAR
STARTCHAR C023443
ENCODING 10019
SWIDTH 2000 0
DWIDTH 20 0
BBX 17 15 2 -1
BITMAP
070E00
031B00
031B00
033300
033600
033600
7F3600
673C00
C33800
C33000
C37180
C3F300
671B00
7F1E00
180000
ENDCHAR
STARTCHAR C023444
ENCODING 10020
SWIDTH 2000 0
DWIDTH 20 0
BBX 9 15 6 -1
BITMAP
0E00
1B00
1B00
3300
3600
3600
3600
3C00
3800
3000
7180
F300
1B00
1E00
0C00
ENDCHAR
STARTCHAR C023445
ENCODING 10021
SWIDTH 2000 0
DWIDTH 20 0
BBX 18 15 2 -1
BITMAP
E00700
600D80
600D80
601980
601B00
601B00
631B00
661E00
6C1C00
7E1800
7618C0
637980
638D80
61CF00
000600
ENDCHAR
STARTCHAR C023446
ENCODING 10022
SWIDTH 2000 0
DWIDTH 20 0
BBX 18 10 1 -1
BITMAP
3E0F80
6318C0
E3B0C0
C03000
C03000
C03000
C03000
6318C0
761D80
1C0700
ENDCHAR
STARTCHAR C023447
ENCODING 10023
SWIDTH 2000 0
DWIDTH 20 0
BBX 17 15 2 0
BITMAP
000780
000180
000300
000180
000180
000300
FF7F80
FF7F80
DB6D80
DB6D80
DB6D80
DB6D80
DB6D80
DB6D80
DB6D80
ENDCHAR
STARTCHAR C023450
ENCODING 10024
SWIDTH 2000 0
DWIDTH 20 0
BBX 17 16 2 -1
BITMAP
000780
000180
000300
000180
000180
000700
3CFF00
66FF00
C0DB00
C0DB00
C0DB00
C0DB00
C0DB00
60DB00
6CDB00
380000
ENDCHAR
STARTCHAR C023451
ENCODING 10025
SWIDTH 2000 0
DWIDTH 20 0
BBX 14 15 4 0
BITMAP
003C
000C
000C
000C
003C
0018
FEF0
7398
6318
6318
6318
6318
6318
6318
6318
ENDCHAR
STARTCHAR C023452
ENCODING 10026
SWIDTH 2000 0
DWIDTH 20 0
BBX 17 15 2 0
BITMAP
000780
600180
600300
600180
600780
600300
67FF80
6CED80
78CD80
7CCD80
7CCD80
6ECD80
66CD80
66CD80
E7CD80
ENDCHAR
STARTCHAR C023453
ENCODING 10027
SWIDTH 2000 0
DWIDTH 20 0
BBX 16 14 2 0
BITMAP
1C00
7C00
6000
6000
6000
FBFF
61FB
61B3
61B3
61B3
61B3
61B3
61B3
F1B3
ENDCHAR
STARTCHAR C023454
ENCODING 10028
SWIDTH 2000 0
DWIDTH 20 0
BBX 19 10 1 0
BITMAP
0C0000
FFFFE0
E37760
C36660
C36660
C36660
C36660
C36660
C36660
E7E660
ENDCHAR
STARTCHAR C023455
ENCODING 10029
SWIDTH 2000 0
DWIDTH 20 0
BBX 21 20 0 -4
BITMAP
000008
000008
000000
000000
000000
000008
000008
0C7FF0
1CFDB8
18D9B8
19D9B0
39D9B0
3199B0
3199B0
3319B0
3FF9B0
6C0000
600000
E00000
C00000
ENDCHAR
STARTCHAR C023456
ENCODING 10030
SWIDTH 2000 0
DWIDTH 20 0
BBX 18 9 2 0
BITMAP
FFFFC0
FF7CC0
DB6CC0
DB6CC0
DB6CC0
DB6CC0
DB6CC0
DB6CC0
DB6FC0
ENDCHAR
STARTCHAR C023457
ENCODING 10031
SWIDTH 2000 0
DWIDTH 20 0
BBX 18 10 1 -1
BITMAP
3E7FC0
6376C0
C766C0
C066C0
C066C0
C066C0
C066C0
C366C0
7666C0
1C0000
ENDCHAR
STARTCHAR C023460
ENCODING 10032
SWIDTH 2000 0
DWIDTH 20 0
BBX 17 14 2 0
BITMAP
C00000
C00000
C00000
C00000
C00000
CDFF80
D8ED80
F0CD80
F8CD80
F8CD80
D8CD80
CCCD80
CCCD80
CECD80
ENDCHAR
STARTCHAR C023461
ENCODING 10033
SWIDTH 2000 0
DWIDTH 20 0
BBX 17 15 2 0
BITMAP
000780
000180
000380
000600
000780
000000
FF7F80
FF7F80
DB6D80
DB6D80
DB6D80
DB6D80
DB6D80
DB6D80
DB6D80
ENDCHAR
STARTCHAR C023462
ENCODING 10034
SWIDTH 2000 0
DWIDTH 20 0
BBX 17 16 2 -1
BITMAP
000780
000780
000300
000600
000C00
000700
3EFF80
66DD80
C0D980
C0D980
C0D980
C0D980
C0D980
66D980
36D980
1C0000
ENDCHAR
STARTCHAR C023463
ENCODING 10035
SWIDTH 2000 0
DWIDTH 20 0
BBX 14 15 4 0
BITMAP
003C
003C
000C
0038
0060
0038
FEF0
7398
6318
6318
6318
6318
6318
6318
6318
ENDCHAR
STARTCHAR C023464
ENCODING 10036
SWIDTH 2000 0
DWIDTH 20 0
BBX 18 15 1 0
BITMAP
0003C0
E000C0
6001C0
600300
6003C0
600000
67FFC0
6C7EC0
6C6CC0
7C6CC0
7C6CC0
6C6CC0
666CC0
666CC0
676CC0
ENDCHAR
STARTCHAR C023465
ENCODING 10037
SWIDTH 2000 0
DWIDTH 20 0
BBX 18 14 1 0
BITMAP
E00000
600000
600000
600000
600000
661F00
7FB180
61B180
61B380
619F80
61B180
61B180
61B180
F3FFC0
ENDCHAR
STARTCHAR C023466
ENCODING 10038
SWIDTH 2000 0
DWIDTH 20 0
BBX 21 13 0 -4
BITMAP
0637F8
0C3CC0
0C7C60
1C6C60
18EEC0
18CF80
30D800
319C00
39BFE0
6FEC30
601830
E01830
E00FE0
ENDCHAR
STARTCHAR C023467
ENCODING 10039
SWIDTH 2000 0
DWIDTH 20 0
BBX 21 19 0 -4
BITMAP
000008
000000
000000
000000
000000
000000
FFE7F0
776CE8
666C68
666C60
6666C0
666F88
667808
667C08
6667E8
000C78
001830
001830
000FE0
ENDCHAR
STARTCHAR C023470
ENCODING 10040
SWIDTH 2000 0
DWIDTH 20 0
BBX 19 18 1 -4
BITMAP
600000
600000
600000
600000
600000
678FE0
6319E0
661980
6C1980
7C1980
661F00
673000
633000
F7DF80
0030E0
003060
003060
001FC0
ENDCHAR
STARTCHAR C023471
ENCODING 10041
SWIDTH 2000 0
DWIDTH 20 0
BBX 17 14 2 0
BITMAP
E00000
600000
600000
600000
601800
601800
631E00
661800
6C1800
7C1800
761800
631800
631980
618F00
ENDCHAR
STARTCHAR C023472
ENCODING 10042
SWIDTH 2000 0
DWIDTH 20 0
BBX 21 15 0 -1
BITMAP
000008
000030
000030
000030
000030
3E3C30
636630
636630
E01E30
C07630
E0C630
E0C630
63C630
367E30
1C0000
ENDCHAR
STARTCHAR C023473
ENCODING 10043
SWIDTH 2000 0
DWIDTH 20 0
BBX 21 15 0 -1
BITMAP
E00070
600030
600030
600030
600030
67F7B0
67BDB0
6DBDF0
6D81F8
7D87F8
7D8DF8
678DF8
679DF0
67FFF0
006600
ENDCHAR
STARTCHAR C023474
ENCODING 10044
SWIDTH 2000 0
DWIDTH 20 0
BBX 21 17 0 -1
BITMAP
000008
000008
03BF00
0199E0
019870
019878
019878
019870
7F98E8
639FE8
C19830
C19810
C19810
C19810
639830
3798E0
1C0F80
ENDCHAR
STARTCHAR C023475
ENCODING 10045
SWIDTH 2000 0
DWIDTH 20 0
BBX 19 18 1 -4
BITMAP
FF8000
7D8060
6D80C0
6D8180
6D8300
6D8600
6D8C00
6D9800
003F00
007980
00D8C0
019800
030F80
0601C0
0C30C0
1818C0
301D80
600700
ENDCHAR
STARTCHAR C023476
ENCODING 10046
SWIDTH 2000 0
DWIDTH 20 0
BBX 18 17 2 -3
BITMAP
FF00C0
FF0180
DB0300
DB0600
DB0C00
DB19C0
DB31C0
DB60C0
00FF80
01E700
0367C0
067000
0C1E00
180600
306300
603300
C03E00
ENDCHAR
STARTCHAR C023477
ENCODING 10047
SWIDTH 2000 0
DWIDTH 20 0
BBX 17 13 2 -4
BITMAP
FE3F00
733180
61B000
61B800
619F00
618380
618180
61B180
733B00
7E0E00
600000
600000
600000
ENDCHAR
STARTCHAR C023500
ENCODING 10048
SWIDTH 2000 0
DWIDTH 20 0
BBX 17 10 2 -1
BITMAP
FE3F00
733300
633000
633000
631E00
630700
630180
630180
633B00
000E00
ENDCHAR
STARTCHAR C023501
ENCODING 10049
SWIDTH 2000 0
DWIDTH 20 0
BBX 19 12 1 -3
BITMAP
0E3FC0
0C7CC0
1C6C60
1CEE00
18E780
18C1E0
31D860
318C60
3BFEC0
6E0380
600000
E00000
ENDCHAR
STARTCHAR C023502
ENCODING 10050
SWIDTH 2000 0
DWIDTH 20 0
BBX 18 10 2 -1
BITMAP
FFDF80
7ED980
6CD800
6CDC00
6CCF80
6CC3C0
6CF0C0
6CD8C0
6CDF80
000300
ENDCHAR
STARTCHAR C023503
ENCODING 10051
SWIDTH 2000 0
DWIDTH 20 0
BBX 19 18 1 -4
BITMAP
01F1E0
00E0C0
0060C0
006180
006180
FE3180
733300
61B300
619B00
619B00
619E00
618E00
618E00
730C00
7E0000
600000
600000
E00000
ENDCHAR
STARTCHAR C023504
ENCODING 10052
SWIDTH 2000 0
DWIDTH 20 0
BBX 19 14 1 0
BITMAP
01F1E0
00E0C0
0060C0
006180
067180
7F3180
733300
633B00
631B00
631E00
631E00
630E00
630E00
F78C00
ENDCHAR
STARTCHAR C023505
ENCODING 10053
SWIDTH 2000 0
DWIDTH 20 0
BBX 21 17 0 -3
BITMAP
007C70
003030
003860
001860
001860
0E3CC8
0C7CC0
1C6CC0
18EEC0
18E780
30C780
318780
318300
3BE300
6E0000
600000
E00000
ENDCHAR
STARTCHAR C023506
ENCODING 10054
SWIDTH 2000 0
DWIDTH 20 0
BBX 21 16 0 -1
BITMAP
000008
007870
003060
003860
001860
001860
FFFCC0
776CC8
666CC8
666F80
666780
666788
666708
666308
666308
000008
ENDCHAR
STARTCHAR C023507
ENCODING 10055
SWIDTH 2000 0
DWIDTH 20 0
BBX 19 14 1 0
BITMAP
E0F9E0
6070C0
6030C0
6030C0
603180
603980
631980
661B00
6C1B00
7C0F00
760E00
670E00
630E00
638600
ENDCHAR
STARTCHAR C023510
ENCODING 10056
SWIDTH 2000 0
DWIDTH 20 0
BBX 21 14 0 0
BITMAP
E0FF70
61CC30
71CE60
71C660
73C660
7BC668
7BC7C0
7BC3C0
7EC3C0
6EC3C0
6EC3C0
6EC180
6CC180
F1E180
ENDCHAR
STARTCHAR C023511
ENCODING 10057
SWIDTH 2000 0
DWIDTH 20 0
BBX 18 17 1 -4
BITMAP
000E00
000E00
000E00
001E00
FE1F00
731B00
61B300
61B300
61BF80
61B180
61E180
61E180
7361C0
7E0000
600000
600000
600000
ENDCHAR
STARTCHAR C023512
ENCODING 10058
SWIDTH 2000 0
DWIDTH 20 0
BBX 18 13 2 0
BITMAP
000C00
000E00
001E00
001E00
FC1E00
E61B00
C63300
C63300
C63F00
C66380
C66180
C66180
C6F1C0
ENDCHAR
STARTCHAR C023513
ENCODING 10059
SWIDTH 2000 0
DWIDTH 20 0
BBX 21 20 0 -4
BITMAP
000008
000008
000180
000180
000380
000388
0007C8
0636C0
0C76C8
1C66C8
18ECE0
18CFE0
38CC60
318C60
31B870
3BF830
6E3CF0
600000
E00000
C00000
ENDCHAR
STARTCHAR C023514
ENCODING 10060
SWIDTH 2000 0
DWIDTH 20 0
BBX 19 14 1 0
BITMAP
000600
000600
000700
000F00
000F00
FF8F00
FD8F80
D99980
D99980
D99F80
D9B1C0
D9B0C0
D9B0C0
D9F0E0
ENDCHAR
STARTCHAR C023515
ENCODING 10061
SWIDTH 2000 0
DWIDTH 20 0
BBX 19 14 1 0
BITMAP
E00000
600700
600700
600F00
600F00
600F80
630D80
661980
6C19C0
7C3FC0
6E30C0
6630C0
6330E0
638000
ENDCHAR
STARTCHAR C023516
ENCODING 10062
SWIDTH 2000 0
DWIDTH 20 0
BBX 20 18 0 -4
BITMAP
07FEF0
018C30
018E60
018E60
01CE60
FEDE60
73DF60
61FBC0
61FBC0
61FBC0
61F1C0
61F1C0
63B180
7F3180
6C0000
600000
600000
600000
ENDCHAR
STARTCHAR C023517
ENCODING 10063
SWIDTH 2000 0
DWIDTH 20 0
BBX 20 17 1 -3
BITMAP
07FEE0
038C60
018C60
018CC0
019EC0
DFDEC0
F3DEC0
C3DFC0
C3F3C0
C37380
C37380
C37180
C37180
C78180
000000
000000
000010
ENDCHAR
STARTCHAR C023520
ENCODING 10064
SWIDTH 2000 0
DWIDTH 20 0
BBX 21 16 0 -3
BITMAP
00F770
007330
003330
003760
0E7760
0CF7E0
1CFFE0
19DDE8
19DDE0
399DC0
339CC0
331CC0
77C0C0
7C0000
600000
E00008
ENDCHAR
STARTCHAR C023521
ENCODING 10065
SWIDTH 2000 0
DWIDTH 20 0
BBX 19 14 1 0
BITMAP
01FFE0
00CE60
00E6C0
00EEC0
006EC0
FF6EC0
FF7FC0
DB7BC0
DB7B80
DB3B80
DB3B80
DB3B80
DB3180
DB0000
ENDCHAR
STARTCHAR C023522
ENCODING 10066
SWIDTH 2000 0
DWIDTH 20 0
BBX 19 14 1 0
BITMAP
E1FFE0
60CE60
60EEC0
60EEC0
606EC0
606EC0
637FC0
667BC0
6C7B80
7C3B80
7E3B80
663380
633180
63B000
ENDCHAR
STARTCHAR C023523
ENCODING 10067
SWIDTH 2000 0
DWIDTH 20 0
BBX 21 14 0 0
BITMAP
E0FFF8
60D9B0
71D9B0
71D9B0
71DDB0
7BDDF0
7BCFE0
7BCFE0
7BCEE0
6ECEE0
6ECEE0
6ECEC0
6CC6C0
F1E008
ENDCHAR
STARTCHAR C023524
ENCODING 10068
SWIDTH 2000 0
DWIDTH 20 0
BBX 19 14 1 0
BITMAP
F1E000
60C000
60C000
60C000
60C000
60CFE0
60DCE0
7FD9C0
60C180
60C300
60C600
60CE00
60DC60
F1FFE0
ENDCHAR
STARTCHAR C023525
ENCODING 10069
SWIDTH 2000 0
DWIDTH 20 0
BBX 21 16 0 -1
BITMAP
000008
61FE00
60CC00
60CC00
60CC00
60CC00
60CDF0
66FFB8
6CCF38
78CC60
78CCE0
7CCCC8
6CCD98
6ECDB8
EECFF8
000008
ENDCHAR
STARTCHAR C023526
ENCODING 10070
SWIDTH 2000 0
DWIDTH 20 0
BBX 21 14 0 0
BITMAP
E3FF00
636608
776608
776608
776608
7F66F8
7F67B8
7F7FB8
7F6668
7F6668
7B66C8
7B66C8
7B6798
7FEFF0
ENDCHAR
STARTCHAR C023527
ENCODING 10071
SWIDTH 2000 0
DWIDTH 20 0
BBX 20 15 0 -1
BITMAP
30CC00
FCCC00
C6CC00
C6CC00
C0CC00
C0CDF0
C0FFB0
C0CF30
CFCC60
C6CCE0
C6CCC0
C6CDC0
C6CD90
7DFFB0
3000E0
ENDCHAR
STARTCHAR C023530
ENCODING 10072
SWIDTH 2000 0
DWIDTH 20 0
BBX 20 14 1 0
BITMAP
FF9C00
3F1800
331800
331800
331800
331BE0
33FF60
331E60
3318C0
331980
331990
331B30
331B70
339FF0
ENDCHAR
STARTCHAR C023531
ENCODING 10073
SWIDTH 2000 0
DWIDTH 20 0
BBX 15 14 3 0
BITMAP
07F0
1C38
301C
700E
600E
600E
600E
600E
301C
1C38
C7E6
C3C6
C3C6
FFFE
ENDCHAR
STARTCHAR C023532
ENCODING 10074
SWIDTH 2000 0
DWIDTH 20 0
BBX 21 16 0 0
BITMAP
000008
000008
E007C0
601C60
603030
603018
603018
603010
633018
663038
6C1830
7E0C60
7607C0
6367B0
63E7B0
61FEF0
ENDCHAR
STARTCHAR C023533
ENCODING 10075
SWIDTH 2000 0
DWIDTH 20 0
BBX 19 14 1 0
BITMAP
000F80
C1B8E0
E3B060
E3E020
E3E020
F7E020
F7E020
F7F060
FDB060
DD9DC0
DDE720
DDE720
D9E720
E1FFE0
ENDCHAR
STARTCHAR C023534
ENCODING 10076
SWIDTH 2000 0
DWIDTH 20 0
BBX 16 18 3 -4
BITMAP
01FF
00C3
00C0
00C0
00C0
3CCC
E6FC
C3CC
C3C0
C3C0
C3C0
C3C0
C7C0
FFE0
D800
C000
C000
C000
ENDCHAR
STARTCHAR C023535
ENCODING 10077
SWIDTH 2000 0
DWIDTH 20 0
BBX 19 14 1 0
BITMAP
003FE0
001860
001800
001800
061800
7F9800
719B80
619F80
619800
619800
619800
619800
619800
F3FC00
ENDCHAR
STARTCHAR C023536
ENCODING 10078
SWIDTH 2000 0
DWIDTH 20 0
BBX 20 17 1 -3
BITMAP
003FE0
001860
001800
001800
001800
0C7810
1C7990
18FF90
38D810
31D810
319810
319810
631810
77FC10
7C0000
C00000
C00000
ENDCHAR
STARTCHAR C023537
ENCODING 10079
SWIDTH 2000 0
DWIDTH 20 0
BBX 19 14 1 -1
BITMAP
0000E0
000060
000060
000060
FF3E60
FF6360
DB63E0
DBC1E0
DBC1E0
DBC1E0
DBC1E0
DBE3E0
DB6360
003E00
ENDCHAR
STARTCHAR C023540
ENCODING 10080
SWIDTH 2000 0
DWIDTH 20 0
BBX 18 14 1 -1
BITMAP
0000C0
0000C0
0000C0
0000C0
3E00C0
630FC0
C319C0
C030C0
C030C0
C030C0
C030C0
C330C0
761BC0
1C0E00
ENDCHAR
STARTCHAR C023541
ENCODING 10081
SWIDTH 2000 0
DWIDTH 20 0
BBX 21 14 0 0
BITMAP
000030
000030
000038
000038
000038
EEF1B8
7F9BF8
619E38
607E30
61DE30
619E30
639E30
639B70
71FDF0
ENDCHAR
STARTCHAR C023542
ENCODING 10082
SWIDTH 2000 0
DWIDTH 20 0
BBX 19 18 1 -3
BITMAP
000C00
000C00
000C00
C77C00
FDCC00
C3CC00
DFCC00
DDCC00
DFFC00
0630C0
000380
000E00
003BE0
006660
01C380
0700E0
1C0060
7003E0
ENDCHAR
STARTCHAR C023543
ENCODING 10083
SWIDTH 2000 0
DWIDTH 20 0
BBX 19 18 1 -3
BITMAP
000C00
000C00
000C00
C77C00
FDCC00
C3CC00
DFCC00
DDCC00
DFFC00
0630C0
0003E0
000EE0
003F60
00EDC0
038600
0E0380
380180
000700
ENDCHAR
STARTCHAR C023544
ENCODING 10084
SWIDTH 2000 0
DWIDTH 20 0
BBX 16 10 2 -1
BITMAP
7E77
603F
6038
7030
3E30
0730
C330
6330
7E30
0C00
ENDCHAR
STARTCHAR C023545
ENCODING 10085
SWIDTH 2000 0
DWIDTH 20 0
BBX 19 15 1 -1
BITMAP
F80000
6F8000
60C000
60C000
60C000
60DF00
60F180
61B980
7F0180
601F80
603180
603180
607180
6037E0
001C00
ENDCHAR
STARTCHAR C023546
ENCODING 10086
SWIDTH 2000 0
DWIDTH 20 0
BBX 21 14 0 0
BITMAP
E0F008
60DC00
60CE00
60C608
60C608
60CFE8
66CF38
6CCF38
78F838
78C1F8
6CC338
6CC738
66C738
67E3F8
ENDCHAR
STARTCHAR C023547
ENCODING 10087
SWIDTH 2000 0
DWIDTH 20 0
BBX 21 14 0 0
BITMAP
E7FC00
676E00
776608
FF6608
FF6608
FF67E8
FF6738
FF6F38
FF7C38
DF61F8
DB6338
DB6338
DB6330
FF63F0
ENDCHAR
STARTCHAR C023550
ENCODING 10088
SWIDTH 2000 0
DWIDTH 20 0
BBX 21 15 0 -1
BITMAP
79F808
6ECC00
C6CE00
C6C600
C0C600
C0C7E0
C0CF30
C0CF30
CFF830
C6C1F0
C6C330
C6C630
66C630
7FE3F0
180000
ENDCHAR
STARTCHAR C023551
ENCODING 10089
SWIDTH 2000 0
DWIDTH 20 0
BBX 19 15 1 -1
BITMAP
EEFC00
6ED800
66D800
66D800
6F9800
6F9800
7F9FC0
7F9CC0
3B9860
3B1860
3B1860
331860
331CC0
333FC0
000300
ENDCHAR
STARTCHAR C023552
ENCODING 10090
SWIDTH 2000 0
DWIDTH 20 0
BBX 15 14 3 0
BITMAP
6000
6000
6000
6000
6000
6FFE
6766
6666
6666
6666
6666
6666
6666
F67E
ENDCHAR
STARTCHAR C023553
ENCODING 10091
SWIDTH 2000 0
DWIDTH 20 0
BBX 15 14 3 0
BITMAP
6000
6000
6000
6000
6000
679E
6398
61B0
60F0
60E0
60F0
61B8
631C
F70E
ENDCHAR
STARTCHAR C023554
ENCODING 10092
SWIDTH 2000 0
DWIDTH 20 0
BBX 20 17 1 -4
BITMAP
FF0000
C38010
C18010
C18010
C38FF0
C70CF0
FF1870
C19870
C0D870
C0D870
C0D870
C19C60
FF0FE0
000060
000060
000060
0000E0
ENDCHAR
STARTCHAR C023555
ENCODING 10093
SWIDTH 2000 0
DWIDTH 20 0
BBX 19 18 1 -4
BITMAP
3C0000
660000
C30000
C30000
C30000
C079E0
C030C0
C03980
C79980
C31980
C30F00
C30F00
630E00
770600
1C0C00
000C00
003C00
007800
ENDCHAR
STARTCHAR C023556
ENCODING 10094
SWIDTH 2000 0
DWIDTH 20 0
BBX 21 17 0 -3
BITMAP
7F0000
C18000
C00000
C00000
C00000
707CF0
3F1860
079C60
01CCC8
00CCC0
00C780
C0C780
61C300
7F0300
000000
000000
000008
ENDCHAR
STARTCHAR C023557
ENCODING 10095
SWIDTH 2000 0
DWIDTH 20 0
BBX 19 17 1 -3
BITMAP
3C1800
663000
C36000
C06000
C0C000
C18000
C30000
670000
3EC000
0CFFE0
18F660
18F660
30FBC0
60DF00
C007E0
C00E60
0007E0
ENDCHAR
STARTCHAR C023560
ENCODING 10096
SWIDTH 2000 0
DWIDTH 20 0
BBX 0 0 0 0
BITMAP
ENDCHAR
STARTCHAR C023561
ENCODING 10097
SWIDTH 2000 0
DWIDTH 20 0
BBX 0 0 0 0
BITMAP
ENDCHAR
STARTCHAR C023562
ENCODING 10098
SWIDTH 2000 0
DWIDTH 20 0
BBX 0 0 0 0
BITMAP
ENDCHAR
STARTCHAR C023563
ENCODING 10099
SWIDTH 2000 0
DWIDTH 20 0
BBX 1 16 20 -1
BITMAP
80
00
00
00
00
00
00
80
80
00
00
80
80
80
80
80
ENDCHAR
STARTCHAR C023564
ENCODING 10100
SWIDTH 2000 0
DWIDTH 20 0
BBX 0 0 0 0
BITMAP
ENDCHAR
STARTCHAR C023565
ENCODING 10101
SWIDTH 2000 0
DWIDTH 20 0
BBX 0 0 0 0
BITMAP
ENDCHAR
STARTCHAR C023566
ENCODING 10102
SWIDTH 2000 0
DWIDTH 20 0
BBX 0 0 0 0
BITMAP
ENDCHAR
STARTCHAR C023567
ENCODING 10103
SWIDTH 2000 0
DWIDTH 20 0
BBX 0 0 0 0
BITMAP
ENDCHAR
STARTCHAR C023570
ENCODING 10104
SWIDTH 2000 0
DWIDTH 20 0
BBX 1 10 20 6
BITMAP
80
80
00
00
00
80
80
00
80
80
ENDCHAR
STARTCHAR C023571
ENCODING 10105
SWIDTH 2000 0
DWIDTH 20 0
BBX 0 0 0 0
BITMAP
ENDCHAR
STARTCHAR C023572
ENCODING 10106
SWIDTH 2000 0
DWIDTH 20 0
BBX 0 0 0 0
BITMAP
ENDCHAR
STARTCHAR C023573
ENCODING 10107
SWIDTH 2000 0
DWIDTH 20 0
BBX 0 0 0 0
BITMAP
ENDCHAR
STARTCHAR C023574
ENCODING 10108
SWIDTH 2000 0
DWIDTH 20 0
BBX 0 0 0 0
BITMAP
ENDCHAR
STARTCHAR C023575
ENCODING 10109
SWIDTH 2000 0
DWIDTH 20 0
BBX 1 9 20 -3
BITMAP
80
00
00
00
00
00
00
00
80
ENDCHAR
STARTCHAR C023576
ENCODING 10110
SWIDTH 2000 0
DWIDTH 20 0
BBX 0 0 0 0
BITMAP
ENDCHAR
STARTCHAR C023577
ENCODING 10111
SWIDTH 2000 0
DWIDTH 20 0
BBX 0 0 0 0
BITMAP
ENDCHAR
STARTCHAR C024040
ENCODING 10272
SWIDTH 2000 0
DWIDTH 20 0
BBX 1 1 20 0
BITMAP
80
ENDCHAR
STARTCHAR C024041
ENCODING 10273
SWIDTH 2000 0
DWIDTH 20 0
BBX 21 14 0 0
BITMAP
00FFE0
00F0E0
00F030
01B000
01B180
033180
063F80
063188
0FF180
0C3000
183000
303030
3030E0
FCFFE0
ENDCHAR
STARTCHAR C024042
ENCODING 10274
SWIDTH 2000 0
DWIDTH 20 0
BBX 14 14 3 0
BITMAP
7FC0
1870
1818
1818
180C
180C
180C
FF0C
180C
180C
1818
1818
1870
7FC0
ENDCHAR
STARTCHAR C024043
ENCODING 10275
SWIDTH 2000 0
DWIDTH 20 0
BBX 11 14 5 0
BITMAP
0E00
7B80
7180
0180
0380
1F80
7180
6180
6180
6380
3FC0
0000
0000
FFE0
ENDCHAR
STARTCHAR C024044
ENCODING 10276
SWIDTH 2000 0
DWIDTH 20 0
BBX 17 14 2 0
BITMAP
7E3F00
180C00
180C00
FFFF80
180C00
180C00
180C00
1FFC00
180C00
180C00
180C00
180C00
180C00
7E3F00
ENDCHAR
STARTCHAR C024045
ENCODING 10277
SWIDTH 2000 0
DWIDTH 20 0
BBX 0 0 0 0
BITMAP
ENDCHAR
STARTCHAR C024046
ENCODING 10278
SWIDTH 2000 0
DWIDTH 20 0
BBX 14 14 4 0
BITMAP
FCFC
3030
3030
3030
3030
3030
3030
3030
3030
3030
3030
3030
33E0
FFE0
ENDCHAR
STARTCHAR C024047
ENCODING 10279
SWIDTH 2000 0
DWIDTH 20 0
BBX 1 10 20 6
BITMAP
80
80
00
00
00
80
80
00
80
80
ENDCHAR
STARTCHAR C024050
ENCODING 10280
SWIDTH 2000 0
DWIDTH 20 0
BBX 12 14 5 0
BITMAP
FE00
3000
3000
3000
3000
3000
3600
3600
3000
3000
3000
3030
3060
FFE0
ENDCHAR
STARTCHAR C024051
ENCODING 10281
SWIDTH 2000 0
DWIDTH 20 0
BBX 13 14 4 0
BITMAP
7E00
1800
1800
1B00
1E00
1C00
1800
3800
7800
D800
D800
1818
1830
7FF0
ENDCHAR
STARTCHAR C024052
ENCODING 10282
SWIDTH 2000 0
DWIDTH 20 0
BBX 15 15 3 -1
BITMAP
0FE6
387E
601C
603C
C06C
C0C6
C186
C306
C606
CC06
F806
700C
3018
7C70
C7C0
ENDCHAR
STARTCHAR C024053
ENCODING 10283
SWIDTH 2000 0
DWIDTH 20 0
BBX 19 15 1 -1
BITMAP
0FFFC0
3861C0
606060
606000
C06300
C06300
C06700
C07F00
C06300
C06300
C06000
606060
3060E0
1DF7C0
071C00
ENDCHAR
STARTCHAR C024054
ENCODING 10284
SWIDTH 2000 0
DWIDTH 20 0
BBX 9 14 6 0
BITMAP
3E00
6300
E380
C180
C180
C180
C180
C180
E380
6300
3E00
0000
0000
FF80
ENDCHAR
STARTCHAR C024055
ENCODING 10285
SWIDTH 2000 0
DWIDTH 20 0
BBX 13 14 4 0
BITMAP
FE00
1800
1800
1FE0
1830
1818
1818
1818
1818
1838
1FE0
1800
1800
7C00
ENDCHAR
STARTCHAR C024056
ENCODING 10286
SWIDTH 2000 0
DWIDTH 20 0
BBX 14 14 3 0
BITMAP
7FF8
E31C
C30C
0300
0300
0300
0300
3FF0
0300
0300
0300
0300
0300
1FE0
ENDCHAR
STARTCHAR C024057
ENCODING 10287
SWIDTH 2000 0
DWIDTH 20 0
BBX 12 15 4 -1
BITMAP
33C0
FE60
3830
3030
3030
3030
3030
3030
3030
3030
3030
3730
3330
7F60
01C0
ENDCHAR
STARTCHAR C024060
ENCODING 10288
SWIDTH 2000 0
DWIDTH 20 0
BBX 1 6 20 3
BITMAP
80
80
80
80
80
80
ENDCHAR
STARTCHAR C024061
ENCODING 10289
SWIDTH 2000 0
DWIDTH 20 0
BBX 19 18 1 -3
BITMAP
03F800
0E0E00
180300
300180
6000C0
7FFEC0
C60660
C00660
C00660
C00660
C00660
C00660
6006C0
6006C0
300180
180300
0E0E00
03F800
ENDCHAR
STARTCHAR C024062
ENCODING 10290
SWIDTH 2000 0
DWIDTH 20 0
BBX 19 18 1 -3
BITMAP
03F800
0E0E00
180300
300180
6000C0
7E00C0
C60060
C60060
C60060
C60060
C60060
C60660
63FFC0
6000C0
300180
180300
0E0E00
03F800
ENDCHAR
STARTCHAR C024063
ENCODING 10291
SWIDTH 2000 0
DWIDTH 20 0
BBX 19 18 1 -3
BITMAP
03F800
0E0E00
180300
300180
6000C0
6FFEC0
C60060
C60060
C60060
C60060
C60060
C60060
67FFC0
6000C0
300180
180300
0E0E00
03F800
ENDCHAR
STARTCHAR C024064
ENCODING 10292
SWIDTH 2000 0
DWIDTH 20 0
BBX 19 18 1 -3
BITMAP
03F800
0E0E00
180300
300180
6000C0
6FFEC0
C00C60
C00C60
CFFE60
C60060
C60060
C60060
6600C0
67FFC0
300180
180300
0E0E00
03F800
ENDCHAR
STARTCHAR C024065
ENCODING 10293
SWIDTH 2000 0
DWIDTH 20 0
BBX 19 18 1 -3
BITMAP
03F800
0E0E00
180300
300180
7800C0
6FFEC0
C60E60
C60C60
C60C60
C60C60
C60C60
C60C60
67FEC0
6600C0
300180
180300
0E0E00
03F800
ENDCHAR
STARTCHAR C024066
ENCODING 10294
SWIDTH 2000 0
DWIDTH 20 0
BBX 19 18 1 -3
BITMAP
03F800
0E0E00
180300
300180
7E1CC0
660CC0
C60C60
C7FC60
C60C60
C60C60
C60C60
C60C60
67FCC0
660CC0
300180
180300
0E0E00
03F800
ENDCHAR
STARTCHAR C024067
ENCODING 10295
SWIDTH 2000 0
DWIDTH 20 0
BBX 19 18 1 -3
BITMAP
03F800
0E0E00
180300
300180
60C0C0
6070C0
C06060
C0E060
C1F060
C19860
C30E60
C60760
7C03C0
6000C0
300180
180300
0E0E00
03F800
ENDCHAR
STARTCHAR C024070
ENCODING 10296
SWIDTH 2000 0
DWIDTH 20 0
BBX 19 18 1 -3
BITMAP
03F800
0E0E00
180300
300180
60E0C0
63F8C0
C70C60
CE0660
CE0660
CC0660
CC0660
C60660
671CC0
63F8C0
300180
180300
0E0E00
03F800
ENDCHAR
STARTCHAR C024071
ENCODING 10297
SWIDTH 2000 0
DWIDTH 20 0
BBX 19 18 1 -3
BITMAP
03F800
0E0E00
180300
300180
600EC0
6FFEC0
C70C60
C01C60
C03860
C07060
C0F060
C1DC60
6707C0
6C03C0
300180
180300
0E0E00
03F800
ENDCHAR
STARTCHAR C024072
ENCODING 10298
SWIDTH 2000 0
DWIDTH 20 0
BBX 19 18 1 -3
BITMAP
03F800
0E0E00
180300
318180
60F8C0
6000C0
C00C60
CFFE60
C61C60
C03860
C07060
C0F060
639EC0
6607C0
3C0180
180300
0E0E00
03F800
ENDCHAR
STARTCHAR C024073
ENCODING 10299
SWIDTH 2000 0
DWIDTH 20 0
BBX 19 18 1 -3
BITMAP
03F800
0E0E00
180300
300180
6007C0
6FFFC0
C00660
C00660
C00E60
DFFE60
C60C60
C00C60
601CC0
6018C0
303180
186300
0E0E00
03F800
ENDCHAR
STARTCHAR C024074
ENCODING 10300
SWIDTH 2000 0
DWIDTH 20 0
BBX 19 18 1 -3
BITMAP
03F800
0E0E00
180300
300180
600CC0
6FFEC0
C60060
C60060
C60060
C7FC60
C60060
C60060
660FC0
67F8C0
300180
180300
0E0E00
03F800
ENDCHAR
STARTCHAR C024075
ENCODING 10301
SWIDTH 2000 0
DWIDTH 20 0
BBX 19 18 1 -3
BITMAP
03F800
0E0E00
180300
300180
6006C0
6FFFC0
C03860
C31860
C31860
C3B060
C1B060
C03360
7FFFC0
6000C0
300180
180300
0E0E00
03F800
ENDCHAR
STARTCHAR C024076
ENCODING 10302
SWIDTH 2000 0
DWIDTH 20 0
BBX 19 18 1 -3
BITMAP
03F800
0E0E00
180300
330180
61F8C0
6000C0
C00660
DFFFE0
C06060
C3F860
C71C60
C60C60
660CC0
671CC0
33F980
180300
0E0E00
03F800
ENDCHAR
STARTCHAR C024077
ENCODING 10303
SWIDTH 2000 0
DWIDTH 20 0
BBX 19 18 1 -3
BITMAP
03F800
0E0E00
180300
301D80
600CC0
600CC0
DFEC60
C0CC60
C1CC60
C18FE0
C30C60
C60C60
7C0CC0
600CC0
300D80
180F00
0E0E00
03F800
ENDCHAR
STARTCHAR C024100
ENCODING 10304
SWIDTH 2000 0
DWIDTH 20 0
BBX 19 18 1 -3
BITMAP
03F800
0E0E00
180300
301D80
600CC0
780CC0
CC0C60
CC0C60
CC0C60
CC0FE0
CC7C60
CFCC60
6C0CC0
600CC0
300D80
180F00
0E0E00
03F800
ENDCHAR
STARTCHAR C024101
ENCODING 10305
SWIDTH 2000 0
DWIDTH 20 0
BBX 19 18 1 -3
BITMAP
03F800
0E0E00
180300
301D80
60CCC0
7FECC0
CC0C60
CC0C60
CC0C60
CC0FE0
CC7C60
CFCC60
600CC0
600CC0
300D80
180F00
0E0E00
03F800
ENDCHAR
STARTCHAR C024102
ENCODING 10306
SWIDTH 2000 0
DWIDTH 20 0
BBX 19 18 1 -3
BITMAP
03F800
0E0E00
180300
301D80
600CC0
7FECC0
C0CC60
C0CC60
DFEC60
CC0FE0
CC0C60
CC7C60
6FCCC0
600CC0
300D80
180F00
0E0E00
03F800
ENDCHAR
STARTCHAR C024103
ENCODING 10307
SWIDTH 2000 0
DWIDTH 20 0
BBX 19 18 1 -3
BITMAP
03F800
0E0E00
180300
301D80
600CC0
600CC0
DFEC60
CC6C60
CC6C60
CCCFE0
CCCC60
CFEC60
6C0CC0
600CC0
300D80
180F00
0E0E00
03F800
ENDCHAR
STARTCHAR C024104
ENCODING 10308
SWIDTH 2000 0
DWIDTH 20 0
BBX 19 18 1 -3
BITMAP
03F800
0E0E00
180300
301D80
600CC0
61CCC0
D8CC60
D8CC60
DFCC60
D8CFE0
D8CC60
DFCC60
78CCC0
600CC0
300D80
180F00
0E0E00
03F800
ENDCHAR
STARTCHAR C024105
ENCODING 10309
SWIDTH 2000 0
DWIDTH 20 0
BBX 19 18 1 -3
BITMAP
03F800
0E0E00
180300
301D80
600CC0
61CCC0
C18C60
C38C60
C30C60
C7CFE0
CCEC60
D86C60
700CC0
600CC0
300D80
180F00
0E0E00
03F800
ENDCHAR
STARTCHAR C024106
ENCODING 10310
SWIDTH 2000 0
DWIDTH 20 0
BBX 19 18 1 -3
BITMAP
03F800
0E0E00
180300
301D80
600CC0
630CC0
CFCC60
DCEC60
D86C60
D86FE0
DCEC60
CFCC60
600CC0
600CC0
300D80
180F00
0E0E00
03F800
ENDCHAR
STARTCHAR C024107
ENCODING 10311
SWIDTH 2000 0
DWIDTH 20 0
BBX 19 18 1 -3
BITMAP
03F800
0E0E00
180300
301D80
600CC0
60CCC0
CFCC60
C1CC60
C18C60
C38FE0
C6EC60
CC6C60
780CC0
600CC0
300D80
180F00
0E0E00
03F800
ENDCHAR
STARTCHAR C024110
ENCODING 10312
SWIDTH 2000 0
DWIDTH 20 0
BBX 19 18 1 -3
BITMAP
03F800
0E0E00
180300
301D80
670CC0
61CCC0
C00C60
DFEC60
CCCC60
C18FE0
C38C60
C7EC60
6C6CC0
780CC0
300D80
180F00
0E0E00
03F800
ENDCHAR
STARTCHAR C024111
ENCODING 10313
SWIDTH 2000 0
DWIDTH 20 0
BBX 19 18 1 -3
BITMAP
03F800
0E0E00
180300
301D80
600CC0
7BECC0
CEEC60
C0CC60
DFCC60
C18FE0
C30C60
C60C60
6C0CC0
780CC0
300D80
180F00
0E0E00
03F800
ENDCHAR
STARTCHAR C024112
ENCODING 10314
SWIDTH 2000 0
DWIDTH 20 0
BBX 19 18 1 -3
BITMAP
03F800
0E0E00
180300
301D80
600CC0
61CCC0
CF0C60
CC0C60
CFCC60
CC0FE0
CC0C60
CDFC60
6F0CC0
600CC0
300D80
180F00
0E0E00
03F800
ENDCHAR
STARTCHAR C024113
ENCODING 10315
SWIDTH 2000 0
DWIDTH 20 0
BBX 19 18 1 -3
BITMAP
03F800
0E0E00
180300
301D80
600CC0
73ECC0
DE0C60
C0EC60
CECC60
C6CF60
C1BC60
FFEC60
780CC0
600CC0
300D80
180F00
0E0E00
03F800
ENDCHAR
STARTCHAR C024114
ENCODING 10316
SWIDTH 2000 0
DWIDTH 20 0
BBX 19 18 1 -3
BITMAP
03F800
0E0E00
180300
301D80
678CC0
600CC0
C06C60
FFFC60
CFCDE0
DCEF60
DC6C60
DC6C60
6CECC0
6FCCC0
300D80
180F00
0E0E00
03F800
ENDCHAR
STARTCHAR C024115
ENCODING 10317
SWIDTH 2000 0
DWIDTH 20 0
BBX 19 18 1 -3
BITMAP
03F800
0E0E00
180300
300180
6000C0
61F0C0
C39860
C01860
C03860
C1F860
C31860
C31860
633EC0
61E0C0
300180
180300
0E0E00
03F800
ENDCHAR
STARTCHAR C024116
ENCODING 10318
SWIDTH 2000 0
DWIDTH 20 0
BBX 19 18 1 -3
BITMAP
03F800
0E0E00
180300
370180
6300C0
6300C0
C30060
C3FC60
C38E60
C30660
C30660
C30660
6306C0
630CC0
33D980
187300
0E0E00
03F800
ENDCHAR
STARTCHAR C024117
ENCODING 10319
SWIDTH 2000 0
DWIDTH 20 0
BBX 19 18 1 -3
BITMAP
03F800
0E0E00
180300
300180
6000C0
61F8C0
C33860
C30060
C70060
C70060
C70060
C30C60
61F8C0
6060C0
300180
180300
0E0E00
03F800
ENDCHAR
STARTCHAR C024120
ENCODING 10320
SWIDTH 2000 0
DWIDTH 20 0
BBX 19 18 1 -3
BITMAP
03F800
0E0E00
180300
307980
6018C0
6018C0
C01860
C3F860
C63860
CC1860
CC1860
CC1860
6C18C0
6618C0
33F980
18CF00
0E0E00
03F800
ENDCHAR
STARTCHAR C024121
ENCODING 10321
SWIDTH 2000 0
DWIDTH 20 0
BBX 19 18 1 -3
BITMAP
03F800
0E0E00
180300
300180
6000C0
61F0C0
C33060
C61860
C7F860
C60060
C60060
C60060
6318C0
61F0C0
300180
180300
0E0E00
03F800
ENDCHAR
STARTCHAR C024122
ENCODING 10322
SWIDTH 2000 0
DWIDTH 20 0
BBX 19 18 1 -3
BITMAP
03F800
0E0E00
180300
307980
60C0C0
60C0C0
C0C060
C3F060
C0C060
C0C060
C0C060
C0C060
60C0C0
60C0C0
30C180
19E300
0E0E00
03F800
ENDCHAR
STARTCHAR C024123
ENCODING 10323
SWIDTH 2000 0
DWIDTH 20 0
BBX 19 18 1 -3
BITMAP
03F800
0E0E00
180300
300180
61FEC0
63B8C0
C31860
C31860
C31860
C1F060
C3C060
C3F860
660CC0
661CC0
33F980
180300
0E0E00
03F800
ENDCHAR
STARTCHAR C024124
ENCODING 10324
SWIDTH 2000 0
DWIDTH 20 0
BBX 19 18 1 -3
BITMAP
03F800
0E0E00
180300
330180
6300C0
6300C0
C30060
C37060
C3F860
C31860
C31860
C31860
6318C0
6318C0
331980
180300
0E0E00
03F800
ENDCHAR
STARTCHAR C024125
ENCODING 10325
SWIDTH 2000 0
DWIDTH 20 0
BBX 19 18 1 -3
BITMAP
03F800
0E0E00
18E300
30E180
6000C0
6000C0
C00060
C0E060
C06060
C06060
C06060
C06060
6060C0
6060C0
30F180
180300
0E0E00
03F800
ENDCHAR
STARTCHAR C024126
ENCODING 10326
SWIDTH 2000 0
DWIDTH 20 0
BBX 19 18 1 -3
BITMAP
03F800
0E0E00
18E300
300180
6000C0
6000C0
C0E060
C06060
C06060
C06060
C06060
C06060
6060C0
6060C0
306180
1BE300
0FCE00
03F800
ENDCHAR
STARTCHAR C024127
ENCODING 10327
SWIDTH 2000 0
DWIDTH 20 0
BBX 19 18 1 -3
BITMAP
03F800
0E0E00
180300
370180
6300C0
6300C0
C30060
C33860
C33060
C36060
C3E060
C3F060
6330C0
6318C0
37BF80
180300
0E0E00
03F800
ENDCHAR
STARTCHAR C024130
ENCODING 10328
SWIDTH 2000 0
DWIDTH 20 0
BBX 19 18 1 -3
BITMAP
03F800
0E0E00
180300
30E180
6060C0
6060C0
C06060
C06060
C06060
C06060
C06060
C06060
6060C0
6060C0
306180
180300
0E0E00
03F800
ENDCHAR
STARTCHAR C024131
ENCODING 10329
SWIDTH 2000 0
DWIDTH 20 0
BBX 19 18 1 -3
BITMAP
03F800
0E0E00
180300
300180
6000C0
7FDEC0
CE7360
CC6360
CC6360
CC6360
CC6360
CC6360
7EF7C0
6000C0
300180
180300
0E0E00
03F800
ENDCHAR
STARTCHAR C024132
ENCODING 10330
SWIDTH 2000 0
DWIDTH 20 0
BBX 19 18 1 -3
BITMAP
03F800
0E0E00
180300
300180
6000C0
67F0C0
C39860
C31860
C31860
C31860
C31860
C31860
6398C0
6000C0
300180
180300
0E0E00
03F800
ENDCHAR
STARTCHAR C024133
ENCODING 10331
SWIDTH 2000 0
DWIDTH 20 0
BBX 19 18 1 -3
BITMAP
03F800
0E0E00
180300
300180
6000C0
61F0C0
C31860
C61C60
C60C60
C60C60
C60C60
C71C60
6318C0
61F0C0
300180
180300
0E0E00
03F800
ENDCHAR
STARTCHAR C024134
ENCODING 10332
SWIDTH 2000 0
DWIDTH 20 0
BBX 19 18 1 -3
BITMAP
03F800
0E0E00
180300
300180
63F0C0
61D8C0
C18C60
C18C60
C18C60
C18C60
C18C60
C1F860
61E0C0
6180C0
33C180
180300
0E0E00
03F800
ENDCHAR
STARTCHAR C024135
ENCODING 10333
SWIDTH 2000 0
DWIDTH 20 0
BBX 19 18 1 -3
BITMAP
03F800
0E0E00
180300
300180
67F8C0
6618C0
CC1860
CC1860
CC1860
CC1860
C61860
C3F860
60D8C0
6018C0
303D80
180300
0E0E00
03F800
ENDCHAR
STARTCHAR C024136
ENCODING 10334
SWIDTH 2000 0
DWIDTH 20 0
BBX 19 18 1 -3
BITMAP
03F800
0E0E00
180300
300180
6000C0
601CC0
C0FC60
C0E060
C0C060
C0C060
C0C060
C0C060
60C0C0
6000C0
300180
180300
0E0E00
03F800
ENDCHAR
STARTCHAR C024137
ENCODING 10335
SWIDTH 2000 0
DWIDTH 20 0
BBX 19 18 1 -3
BITMAP
03F800
0E0E00
180300
300180
6000C0
61F8C0
C31860
C38060
C1C060
C07860
C01860
C31860
6398C0
60F0C0
300180
180300
0E0E00
03F800
ENDCHAR
STARTCHAR C024140
ENCODING 10336
SWIDTH 2000 0
DWIDTH 20 0
BBX 19 18 1 -3
BITMAP
03F800
0E0E00
180300
300180
60C0C0
60C0C0
C1F860
C0C060
C0C060
C0C060
C0C060
C0C060
60C0C0
60D8C0
307180
180300
0E0E00
03F800
ENDCHAR
STARTCHAR C024141
ENCODING 10337
SWIDTH 2000 0
DWIDTH 20 0
BBX 19 18 1 -3
BITMAP
03F800
0E0E00
180300
300180
6000C0
6018C0
C73860
C31860
C31860
C31860
C31860
C31860
63B8C0
61E0C0
300180
180300
0E0E00
03F800
ENDCHAR
STARTCHAR C024142
ENCODING 10338
SWIDTH 2000 0
DWIDTH 20 0
BBX 19 18 1 -3
BITMAP
03F800
0E0E00
180300
300180
6000C0
67BCC0
C31860
C31860
C1B060
C1B060
C1E060
C0E060
60E0C0
6000C0
300180
180300
0E0E00
03F800
ENDCHAR
STARTCHAR C024143
ENCODING 10339
SWIDTH 2000 0
DWIDTH 20 0
BBX 19 18 1 -3
BITMAP
03F800
0E0E00
180300
300180
6000C0
6000C0
CCE360
CC6660
C67660
C6FC60
C7BC60
C39C60
6398C0
6318C0
300180
180300
0E0E00
03F800
ENDCHAR
STARTCHAR C024144
ENCODING 10340
SWIDTH 2000 0
DWIDTH 20 0
BBX 19 18 1 -3
BITMAP
03F800
0E0E00
180300
300180
6000C0
67FCC0
C39860
C1B060
C0E060
C06060
C1F060
C33860
631CC0
6000C0
300180
180300
0E0E00
03F800
ENDCHAR
STARTCHAR C024145
ENCODING 10341
SWIDTH 2000 0
DWIDTH 20 0
BBX 19 18 1 -3
BITMAP
03F800
0E0E00
180300
300180
67DEC0
638CC0
C19860
C19860
C0F060
C0F060
C06060
C06060
6060C0
63C0C0
338180
180300
0E0E00
03F800
ENDCHAR
STARTCHAR C024146
ENCODING 10342
SWIDTH 2000 0
DWIDTH 20 0
BBX 19 18 1 -3
BITMAP
03F800
0E0E00
180300
300180
6000C0
6000C0
C1F860
C33060
C06060
C0E060
C0C060
C18060
6318C0
63F8C0
300180
180300
0E0E00
03F800
ENDCHAR
STARTCHAR C024147
ENCODING 10343
SWIDTH 2000 0
DWIDTH 20 0
BBX 19 18 1 -3
BITMAP
03F800
0E0E00
180300
33C180
60C0C0
60C0C0
C0C060
C0C060
C0C060
C0C060
C0C060
C0C060
60C0C0
60C0C0
33F180
180300
0E0E00
03F800
ENDCHAR
STARTCHAR C024150
ENCODING 10344
SWIDTH 2000 0
DWIDTH 20 0
BBX 19 18 1 -3
BITMAP
03F800
0E0E00
186300
31F980
630CC0
630CC0
C01C60
C01860
C03060
C06060
C0C060
C18060
630CC0
630CC0
37F980
180300
0E0E00
03F800
ENDCHAR
STARTCHAR C024151
ENCODING 10345
SWIDTH 2000 0
DWIDTH 20 0
BBX 19 18 1 -3
BITMAP
03F800
0E0E00
180300
31F180
6338C0
6318C0
C31860
C01860
C03060
C1E060
C03860
C00C60
600CC0
630CC0
331980
19F300
0E0E00
03F800
ENDCHAR
STARTCHAR C024152
ENCODING 10346
SWIDTH 2000 0
DWIDTH 20 0
BBX 19 18 1 -3
BITMAP
03F800
0E0E00
186300
306180
60E0C0
61E0C0
C1E060
C36060
C36060
C66060
CC6060
CFF860
6060C0
6060C0
30F180
180300
0E0E00
03F800
ENDCHAR
STARTCHAR C024153
ENCODING 10347
SWIDTH 2000 0
DWIDTH 20 0
BBX 19 18 1 -3
BITMAP
03F800
0E0E00
180300
33F980
6300C0
6300C0
C30060
C36060
C3F860
C01C60
C00C60
C00C60
630CC0
6318C0
333980
19E300
0E0E00
03F800
ENDCHAR
STARTCHAR C024154
ENCODING 10348
SWIDTH 2000 0
DWIDTH 20 0
BBX 19 18 1 -3
BITMAP
03F800
0E0E00
180300
306180
61F8C0
6318C0
C30060
C60060
C7E060
C73060
C61860
C61860
6618C0
6318C0
333180
19E300
0E0E00
03F800
ENDCHAR
STARTCHAR C024155
ENCODING 10349
SWIDTH 2000 0
DWIDTH 20 0
BBX 19 18 1 -3
BITMAP
03F800
0E0E00
180300
33FD80
6318C0
6618C0
C03060
C03060
C06060
C06060
C0C060
C0C060
61C0C0
61C0C0
31C180
180300
0E0E00
03F800
ENDCHAR
STARTCHAR C024156
ENCODING 10350
SWIDTH 2000 0
DWIDTH 20 0
BBX 19 18 1 -3
BITMAP
03F800
0E0E00
1C0700
39F380
7319C0
631CC0
E318E0
C31860
C1F060
C1F060
C31860
C60C60
660CC0
660CC0
371980
19F300
0E0E00
03F800
ENDCHAR
STARTCHAR C024157
ENCODING 10351
SWIDTH 2000 0
DWIDTH 20 0
BBX 19 18 1 -3
BITMAP
03F800
0E0E00
18F300
319980
6318C0
630CC0
C30C60
C30C60
C19C60
C0FC60
C00C60
C01860
6398C0
61B0C0
30E180
180300
0E0E00
03F800
ENDCHAR
STARTCHAR C024160
ENCODING 10352
SWIDTH 2000 0
DWIDTH 20 0
BBX 19 18 1 -3
BITMAP
03F800
0E0E00
180300
300180
7E0EC0
661BC0
C631E0
C631E0
C631E0
C631E0
C631E0
C631E0
661BC0
7F8EC0
300180
180300
0E0E00
03F800
ENDCHAR
STARTCHAR C024161
ENCODING 10353
SWIDTH 2000 0
DWIDTH 20 0
BBX 19 18 1 -3
BITMAP
03F800
0E0E00
180300
300180
7E3CC0
660CC0
C60C60
C60C60
C60C60
C60C60
C60C60
C60C60
660CC0
7FBFC0
300180
180300
0E0E00
03F800
ENDCHAR
STARTCHAR C024162
ENCODING 10354
SWIDTH 2000 0
DWIDTH 20 0
BBX 19 18 1 -3
BITMAP
03F800
0E0E00
180300
300180
7E1FC0
6633C0
C633E0
C60360
C60660
C60C60
C61860
C63060
6631C0
7FBFC0
300180
180300
0E0E00
03F800
ENDCHAR
STARTCHAR C024163
ENCODING 10355
SWIDTH 2000 0
DWIDTH 20 0
BBX 19 18 1 -3
BITMAP
03F800
0E0E00
180300
300180
7E1FC0
663BC0
C603E0
C60360
C60E60
C603E0
C601E0
C639E0
6633C0
7F9EC0
300180
180300
0E0E00
03F800
ENDCHAR
STARTCHAR C024164
ENCODING 10356
SWIDTH 2000 0
DWIDTH 20 0
BBX 19 18 1 -3
BITMAP
03F800
0E0E00
180300
300180
7E06C0
6606C0
C60E60
C61E60
C61E60
C63660
C66660
C67FE0
6606C0
7F87C0
300180
180300
0E0E00
03F800
ENDCHAR
STARTCHAR C024165
ENCODING 10357
SWIDTH 2000 0
DWIDTH 20 0
BBX 19 18 1 -3
BITMAP
03F800
0E0E00
180300
300180
667EC0
6E60C0
C66060
C66060
C67E60
C60360
C60360
C60360
6663C0
6636C0
3F1D80
180300
0E0E00
03F800
ENDCHAR
STARTCHAR C024166
ENCODING 10358
SWIDTH 2000 0
DWIDTH 20 0
BBX 15 17 3 -3
BITMAP
E006
600C
6018
6030
6060
6060
60C0
E180
0338
06EE
0CC6
18C6
301C
6030
C060
C0C6
00FE
ENDCHAR
STARTCHAR C024167
ENCODING 10359
SWIDTH 2000 0
DWIDTH 20 0
BBX 15 17 3 -3
BITMAP
E006
600C
6018
6030
6060
60C0
60C0
F180
037C
06C6
0CE6
180C
303C
6006
C0C6
C0C6
007C
ENDCHAR
STARTCHAR C024170
ENCODING 10360
SWIDTH 2000 0
DWIDTH 20 0
BBX 17 18 2 -3
BITMAP
1C0000
760000
E70300
060600
0C0C00
381800
633000
C66000
FEC000
019E00
033300
063380
060300
0C0F00
180180
307180
603380
001E00
ENDCHAR
STARTCHAR C024171
ENCODING 10361
SWIDTH 2000 0
DWIDTH 20 0
BBX 15 16 3 -2
BITMAP
7006
300C
3018
3030
3030
3060
30C0
F980
0318
0638
0C78
18D8
3198
3318
63FC
C018
ENDCHAR
STARTCHAR C024172
ENCODING 10362
SWIDTH 2000 0
DWIDTH 20 0
BBX 15 16 3 -2
BITMAP
FC06
CE0C
0E0C
1818
0E30
C660
C6C0
CD80
7B18
0638
0678
0CD8
1998
3318
63FC
C018
ENDCHAR
STARTCHAR C024173
ENCODING 10363
SWIDTH 2000 0
DWIDTH 20 0
BBX 16 18 3 -4
BITMAP
7006
300C
3018
3030
3030
3060
30C0
3180
633C
06E7
0CC3
18E6
303C
30E7
60C3
C0C3
007E
0018
ENDCHAR
STARTCHAR C024174
ENCODING 10364
SWIDTH 2000 0
DWIDTH 20 0
BBX 17 18 2 -4
BITMAP
7E0180
660300
660600
0C0C00
061800
033000
E36000
66C000
3D9E00
01F300
036380
067300
0C1E00
187380
306180
606180
003700
001C00
ENDCHAR
STARTCHAR C024175
ENCODING 10365
SWIDTH 2000 0
DWIDTH 20 0
BBX 17 18 2 -3
BITMAP
FE0000
C00300
C00600
FC0C00
E71800
033000
636000
636000
3EC000
01BF00
037380
066380
0C6300
183F00
306380
606180
606380
003E00
ENDCHAR
STARTCHAR C024176
ENCODING 10366
SWIDTH 2000 0
DWIDTH 20 0
BBX 16 17 3 -3
BITMAP
FE06
C60C
0C18
0C30
1860
18C0
18C0
3980
033C
06E6
0CC6
1866
303C
60E7
C0C3
C0C6
007C
ENDCHAR
STARTCHAR C024177
ENCODING 10367
SWIDTH 2000 0
DWIDTH 20 0
BBX 0 0 0 0
BITMAP
ENDCHAR
STARTCHAR C024440
ENCODING 10528
SWIDTH 2000 0
DWIDTH 20 0
BBX 1 6 20 1
BITMAP
80
00
00
00
80
80
ENDCHAR
STARTCHAR C024441
ENCODING 10529
SWIDTH 2000 0
DWIDTH 20 0
BBX 15 10 3 -1
BITMAP
3EF8
73CC
E386
03FE
1F00
7300
E300
E38C
7FF8
1800
ENDCHAR
STARTCHAR C024442
ENCODING 10530
SWIDTH 2000 0
DWIDTH 20 0
BBX 10 15 6 -1
BITMAP
0300
0F00
0300
3FC0
0300
3F00
6700
C300
C300
C300
C300
C300
E300
7F00
1800
ENDCHAR
STARTCHAR C024443
ENCODING 10531
SWIDTH 2000 0
DWIDTH 20 0
BBX 9 14 6 -1
BITMAP
3000
1B00
0E00
3E00
0700
3F00
6780
C180
C180
C180
C180
E380
6300
3E00
ENDCHAR
STARTCHAR C024444
ENCODING 10532
SWIDTH 2000 0
DWIDTH 20 0
BBX 10 13 5 0
BITMAP
F000
3000
FF00
3000
3F00
3980
3180
3180
3180
3180
3180
3180
7BC0
ENDCHAR
STARTCHAR C024445
ENCODING 10533
SWIDTH 2000 0
DWIDTH 20 0
BBX 4 9 9 0
BITMAP
60
E0
60
60
60
60
60
60
F0
ENDCHAR
STARTCHAR C024446
ENCODING 10534
SWIDTH 2000 0
DWIDTH 20 0
BBX 9 15 6 -2
BITMAP
C180
0000
0000
0000
6180
E380
6180
6180
6180
6180
6180
6180
F180
0180
0F00
ENDCHAR
STARTCHAR C024447
ENCODING 10535
SWIDTH 2000 0
DWIDTH 20 0
BBX 10 9 6 0
BITMAP
F3C0
6300
6E00
6C00
7C00
6E00
6700
6300
F3C0
ENDCHAR
STARTCHAR C024450
ENCODING 10536
SWIDTH 2000 0
DWIDTH 20 0
BBX 9 13 6 0
BITMAP
F000
3000
3000
3000
3000
3180
3180
3000
3000
3000
3000
3000
7800
ENDCHAR
STARTCHAR C024451
ENCODING 10537
SWIDTH 2000 0
DWIDTH 20 0
BBX 8 14 7 0
BITMAP
38
18
1B
1E
1C
1C
18
18
38
78
D8
18
18
3C
ENDCHAR
STARTCHAR C024452
ENCODING 10538
SWIDTH 2000 0
DWIDTH 20 0
BBX 11 10 5 0
BITMAP
0E00
3B80
61C0
E3E0
C6E0
CCE0
F8E0
70C0
71C0
DF00
ENDCHAR
STARTCHAR C024453
ENCODING 10539
SWIDTH 2000 0
DWIDTH 20 0
BBX 15 10 3 -1
BITMAP
3EFC
638C
C186
C1FE
C180
C180
C180
63C0
36FC
1C00
ENDCHAR
STARTCHAR C024454
ENCODING 10540
SWIDTH 2000 0
DWIDTH 20 0
BBX 11 15 5 -1
BITMAP
1F00
3180
60C0
60C0
60C0
60C0
6380
61C0
60E0
60E0
6060
6060
66E0
66C0
C780
ENDCHAR
STARTCHAR C024455
ENCODING 10541
SWIDTH 2000 0
DWIDTH 20 0
BBX 9 16 6 -2
BITMAP
6000
E000
6000
6000
6000
7F00
6300
6180
6180
6180
6180
6180
6300
7600
7C00
F000
ENDCHAR
STARTCHAR C024456
ENCODING 10542
SWIDTH 2000 0
DWIDTH 20 0
BBX 8 14 7 0
BITMAP
30
30
30
30
FE
30
FC
30
30
30
30
30
33
3E
ENDCHAR
STARTCHAR C024457
ENCODING 10543
SWIDTH 2000 0
DWIDTH 20 0
BBX 9 13 6 -4
BITMAP
7F00
7380
6180
6180
6180
6180
6180
6180
F180
1D80
1D80
0F00
0600
ENDCHAR
STARTCHAR C024460
ENCODING 10544
SWIDTH 2000 0
DWIDTH 20 0
BBX 13 12 3 0
BITMAP
3000
7000
6000
CDE0
0F30
0C30
0C30
0C30
0C30
0C30
0C30
1E78
ENDCHAR
STARTCHAR C024461
ENCODING 10545
SWIDTH 2000 0
DWIDTH 20 0
BBX 19 15 1 -2
BITMAP
300300
300180
6000C0
7FFCC0
C00C60
C00C60
C00C60
C00C60
C00C60
C00C60
600CC0
600CC0
600180
300180
180300
ENDCHAR
STARTCHAR C024462
ENCODING 10546
SWIDTH 2000 0
DWIDTH 20 0
BBX 19 15 1 -2
BITMAP
300300
300180
6000C0
7E00C0
C60060
C60060
C60060
C60060
C60060
C60060
67FFC0
6000C0
600180
300180
180300
ENDCHAR
STARTCHAR C024463
ENCODING 10547
SWIDTH 2000 0
DWIDTH 20 0
BBX 19 15 1 -2
BITMAP
300300
300180
6000C0
600CC0
CFFE60
C60060
C60060
C60060
C60060
C60C60
67FFC0
6000C0
600180
300180
180300
ENDCHAR
STARTCHAR C024464
ENCODING 10548
SWIDTH 2000 0
DWIDTH 20 0
BBX 19 15 1 -2
BITMAP
300300
300180
6000C0
6FFCC0
C00C60
C00C60
CFFC60
C60060
C60060
C60060
6606C0
67FFC0
600180
300180
180300
ENDCHAR
STARTCHAR C024465
ENCODING 10549
SWIDTH 2000 0
DWIDTH 20 0
BBX 19 15 1 -2
BITMAP
300300
300180
6000C0
6000C0
CFFE60
C60E60
C60C60
C60C60
C60C60
C60C60
67FCC0
6600C0
600180
300180
180300
ENDCHAR
STARTCHAR C024466
ENCODING 10550
SWIDTH 2000 0
DWIDTH 20 0
BBX 19 15 1 -2
BITMAP
300300
300180
6000C0
7E1CC0
C60C60
C60C60
C7FC60
C60C60
C60C60
C60C60
67FCC0
660CC0
600180
300180
180300
ENDCHAR
STARTCHAR C024467
ENCODING 10551
SWIDTH 2000 0
DWIDTH 20 0
BBX 19 15 1 -2
BITMAP
300300
300180
60C0C0
6070C0
C07060
C0E060
C0E060
C1B860
C30C60
C60660
6C03C0
6000C0
600180
300180
180300
ENDCHAR
STARTCHAR C024470
ENCODING 10552
SWIDTH 2000 0
DWIDTH 20 0
BBX 19 16 1 -2
BITMAP
000300
300180
300180
60E0C0
63F8C0
C71C60
CC0660
CC0660
CC0660
CC0660
CC0660
671CC0
63F8C0
600180
300180
180300
ENDCHAR
STARTCHAR C024471
ENCODING 10553
SWIDTH 2000 0
DWIDTH 20 0
BBX 19 15 1 -2
BITMAP
300300
300180
600CC0
6FFEC0
C70C60
C01860
C03860
C07060
C0F060
C39C60
660EC0
6C03C0
600180
300180
180300
ENDCHAR
STARTCHAR C024472
ENCODING 10554
SWIDTH 2000 0
DWIDTH 20 0
BBX 19 15 1 -2
BITMAP
300300
300180
61F8C0
6000C0
C00C60
CFFC60
C03860
C07060
C0F060
C19C60
670EC0
6C03C0
600180
300180
180300
ENDCHAR
STARTCHAR C024473
ENCODING 10555
SWIDTH 2000 0
DWIDTH 20 0
BBX 19 15 1 -2
BITMAP
300300
300180
6006C0
6FFFC0
C70660
C00660
C00E60
CFFE60
C00C60
C00C60
6018C0
6018C0
603180
300180
180300
ENDCHAR
STARTCHAR C024474
ENCODING 10556
SWIDTH 2000 0
DWIDTH 20 0
BBX 19 15 1 -2
BITMAP
300300
300180
601CC0
6FFEC0
C60060
C60060
C61C60
C7FC60
C60060
C60060
6606C0
67FFC0
600180
300180
180300
ENDCHAR
STARTCHAR C024475
ENCODING 10557
SWIDTH 2000 0
DWIDTH 20 0
BBX 19 15 1 -2
BITMAP
300300
300180
6006C0
6FFFC0
C03060
C01860
C31860
C39860
C1B060
C03360
7FFFC0
6000C0
600180
300180
180300
ENDCHAR
STARTCHAR C024476
ENCODING 10558
SWIDTH 2000 0
DWIDTH 20 0
BBX 19 15 1 -2
BITMAP
300300
330180
61F8C0
6000C0
C00060
DFFFE0
C06060
C3F860
C71C60
C60C60
660CC0
671CC0
63F980
300180
180300
ENDCHAR
STARTCHAR C024477
ENCODING 10559
SWIDTH 2000 0
DWIDTH 20 0
BBX 19 15 1 -2
BITMAP
301F00
300D80
600CC0
7FECC0
CC6C60
C0CC60
C1CC60
C38FE0
C70C60
CC0C60
780CC0
600CC0
600D80
300D80
180300
ENDCHAR
STARTCHAR C024500
ENCODING 10560
SWIDTH 2000 0
DWIDTH 20 0
BBX 19 15 1 -2
BITMAP
301F00
300D80
600CC0
7C0CC0
CC0C60
CC0C60
CC0C60
CC0FE0
CC3C60
CFEC60
660CC0
600CC0
600D80
300D80
180300
ENDCHAR
STARTCHAR C024501
ENCODING 10561
SWIDTH 2000 0
DWIDTH 20 0
BBX 19 15 1 -2
BITMAP
303B00
300D80
600CC0
606CC0
DFEC60
CC0C60
CC0C60
CC0FE0
CC0C60
CC7C60
6FCCC0
600CC0
600D80
300D80
180300
ENDCHAR
STARTCHAR C024502
ENCODING 10562
SWIDTH 2000 0
DWIDTH 20 0
BBX 19 15 1 -2
BITMAP
301F00
300D80
600CC0
7FECC0
C06C60
C0CC60
C0CC60
CFEFE0
CC0C60
CC0C60
6C7CC0
6FCCC0
600D80
300D80
180300
ENDCHAR
STARTCHAR C024503
ENCODING 10563
SWIDTH 2000 0
DWIDTH 20 0
BBX 19 15 1 -2
BITMAP
301F00
300D80
600CC0
600CC0
DFEC60
CC6C60
CC6C60
CC6FE0
CCCC60
CFEC60
6C0CC0
600CC0
600D80
300D80
180300
ENDCHAR
STARTCHAR C024504
ENCODING 10564
SWIDTH 2000 0
DWIDTH 20 0
BBX 19 15 1 -2
BITMAP
301F00
300D80
600CC0
78CCC0
CCCC60
CCCC60
CFCC60
CCCFE0
CCCC60
CFCC60
6CCCC0
600CC0
600D80
300D80
180300
ENDCHAR
STARTCHAR C024505
ENCODING 10565
SWIDTH 2000 0
DWIDTH 20 0
BBX 19 15 1 -2
BITMAP
301F00
300D80
630CC0
61CCC0
C18C60
C30C60
C30C60
C7CFE0
CCEC60
D86C60
600CC0
600CC0
600D80
300D80
180300
ENDCHAR
STARTCHAR C024506
ENCODING 10566
SWIDTH 2000 0
DWIDTH 20 0
BBX 19 15 1 -2
BITMAP
301F00
300D80
630CC0
6FCCC0
DCEC60
D86C60
D86C60
D86FE0
DCEC60
CFCC60
600CC0
600CC0
600D80
300D80
180300
ENDCHAR
STARTCHAR C024507
ENCODING 10567
SWIDTH 2000 0
DWIDTH 20 0
BBX 19 15 1 -2
BITMAP
301F00
300D80
600CC0
61ECC0
CFCC60
C1CC60
C38C60
C38FE0
C6EC60
DC6C60
600CC0
600CC0
600D80
300D80
180300
ENDCHAR
STARTCHAR C024510
ENCODING 10568
SWIDTH 2000 0
DWIDTH 20 0
BBX 19 15 1 -2
BITMAP
301F00
300D80
67CCC0
600CC0
C00C60
CFEC60
C0CC60
C18FE0
C38C60
C6EC60
6C7CC0
780CC0
600D80
300D80
180300
ENDCHAR
STARTCHAR C024511
ENCODING 10569
SWIDTH 2000 0
DWIDTH 20 0
BBX 19 15 1 -2
BITMAP
301F00
300D80
600CC0
7FECC0
C0CC60
C0CC60
DF8C60
C30FE0
C70C60
C60C60
7C0CC0
600CC0
600D80
300D80
180300
ENDCHAR
STARTCHAR C024512
ENCODING 10570
SWIDTH 2000 0
DWIDTH 20 0
BBX 19 15 1 -2
BITMAP
303F00
300D80
60CCC0
7FECC0
CC0C60
CC0C60
CFCC60
CC0FE0
CC0C60
CCFC60
6F8CC0
600CC0
600D80
300D80
180300
ENDCHAR
STARTCHAR C024513
ENCODING 10571
SWIDTH 2000 0
DWIDTH 20 0
BBX 19 15 1 -2
BITMAP
301F00
300D80
600CC0
7FFCC0
C00C60
CCEC60
C6CC60
C6CFE0
C6CC60
FFFC60
6C0CC0
600CC0
600D80
300D80
180300
ENDCHAR
STARTCHAR C024514
ENCODING 10572
SWIDTH 2000 0
DWIDTH 20 0
BBX 19 15 1 -2
BITMAP
301D80
300D80
67CCC0
600CC0
DFFC60
C30C60
C7CC60
CE6FE0
CC6C60
CE6C60
67CCC0
600CC0
600D80
300D80
180300
ENDCHAR
STARTCHAR C024515
ENCODING 10573
SWIDTH 2000 0
DWIDTH 20 0
BBX 19 15 1 -2
BITMAP
300300
300180
6000C0
61F0C0
C39860
C01860
C03860
C1F860
C39860
C31860
63BEC0
60E0C0
600180
300180
180300
ENDCHAR
STARTCHAR C024516
ENCODING 10574
SWIDTH 2000 0
DWIDTH 20 0
BBX 19 15 1 -2
BITMAP
300300
370180
6300C0
6300C0
C30060
C3F060
C39860
C30C60
C30C60
C30C60
630CC0
6318C0
63B980
30E180
180300
ENDCHAR
STARTCHAR C024517
ENCODING 10575
SWIDTH 2000 0
DWIDTH 20 0
BBX 19 15 1 -2
BITMAP
300300
300180
6000C0
61F8C0
C31C60
C30060
C70060
C70060
C70060
C30060
61D8C0
6070C0
600180
300180
180300
ENDCHAR
STARTCHAR C024520
ENCODING 10576
SWIDTH 2000 0
DWIDTH 20 0
BBX 19 15 1 -2
BITMAP
300300
307980
6018C0
6018C0
C01860
C1F860
C31860
C61860
C61860
C61860
6618C0
6318C0
61F980
300D80
180300
ENDCHAR
STARTCHAR C024521
ENCODING 10577
SWIDTH 2000 0
DWIDTH 20 0
BBX 19 15 1 -2
BITMAP
300300
300180
60F0C0
6198C0
C18C60
C30C60
C3FC60
C30060
C30060
C30060
618CC0
60F8C0
600180
300180
180300
ENDCHAR
STARTCHAR C024522
ENCODING 10578
SWIDTH 2000 0
DWIDTH 20 0
BBX 19 15 1 -2
BITMAP
300300
307980
60C0C0
60C0C0
C0C060
C3F060
C0C060
C0C060
C0C060
C0C060
60C0C0
60C0C0
60C180
31E180
180300
ENDCHAR
STARTCHAR C024523
ENCODING 10579
SWIDTH 2000 0
DWIDTH 20 0
BBX 19 15 1 -2
BITMAP
300300
300180
63FEC0
6738C0
C61860
C73860
C33060
C3E060
C7C060
C37860
661CC0
6E18C0
63F180
300180
180300
ENDCHAR
STARTCHAR C024524
ENCODING 10580
SWIDTH 2000 0
DWIDTH 20 0
BBX 19 15 1 -2
BITMAP
300300
370180
6300C0
6300C0
C30060
C3F060
C39860
C31860
C31860
C31860
6318C0
6318C0
679D80
300180
180300
ENDCHAR
STARTCHAR C024525
ENCODING 10581
SWIDTH 2000 0
DWIDTH 20 0
BBX 19 15 1 -2
BITMAP
300300
30E180
60E0C0
6000C0
C00060
C0E060
C06060
C06060
C06060
C06060
6060C0
6060C0
607180
300180
180300
ENDCHAR
STARTCHAR C024526
ENCODING 10582
SWIDTH 2000 0
DWIDTH 20 0
BBX 19 15 1 -2
BITMAP
18E300
300180
6000C0
6000C0
C1E060
C06060
C06060
C06060
C06060
C06060
C060C0
6060C0
606180
33C180
180300
ENDCHAR
STARTCHAR C024527
ENCODING 10583
SWIDTH 2000 0
DWIDTH 20 0
BBX 19 15 1 -2
BITMAP
300300
370180
6300C0
6300C0
C30060
C33C60
C33060
C36060
C3E060
C3E060
6330C0
6338C0
67BD80
300180
180300
ENDCHAR
STARTCHAR C024530
ENCODING 10584
SWIDTH 2000 0
DWIDTH 20 0
BBX 19 15 1 -2
BITMAP
300300
30E180
6060C0
6060C0
C06060
C06060
C06060
C06060
C06060
C06060
6060C0
6060C0
60F180
300180
180300
ENDCHAR
STARTCHAR C024531
ENCODING 10585
SWIDTH 2000 0
DWIDTH 20 0
BBX 19 15 1 -2
BITMAP
300300
300180
6000C0
7FFEC0
DC6360
D86360
D86360
D86360
D86360
D86360
7CF7C0
6000C0
600180
300180
180300
ENDCHAR
STARTCHAR C024532
ENCODING 10586
SWIDTH 2000 0
DWIDTH 20 0
BBX 19 15 1 -2
BITMAP
300300
300180
6000C0
67F0C0
C39860
C31860
C31860
C31860
C31860
C31860
67BCC0
6000C0
600180
300180
180300
ENDCHAR
STARTCHAR C024533
ENCODING 10587
SWIDTH 2000 0
DWIDTH 20 0
BBX 19 15 1 -2
BITMAP
300300
300180
6000C0
61F0C0
C31860
C60C60
C60C60
C60C60
C60C60
C31860
61F0C0
6000C0
600180
300180
180300
ENDCHAR
STARTCHAR C024534
ENCODING 10588
SWIDTH 2000 0
DWIDTH 20 0
BBX 19 15 1 -2
BITMAP
300300
300180
63F0C0
6398C0
C30C60
C30C60
C30C60
C30C60
C30C60
C3B860
63E0C0
6300C0
678180
300180
180300
ENDCHAR
STARTCHAR C024535
ENCODING 10589
SWIDTH 2000 0
DWIDTH 20 0
BBX 19 15 1 -2
BITMAP
300300
300180
61F8C0
6338C0
C61860
C61860
C61860
C61860
C31860
C3B860
60F8C0
6018C0
603D80
300180
180300
ENDCHAR
STARTCHAR C024536
ENCODING 10590
SWIDTH 2000 0
DWIDTH 20 0
BBX 19 15 1 -2
BITMAP
300300
300180
6000C0
63F8C0
C1C060
C18060
C18060
C18060
C18060
C18060
63C0C0
6000C0
600180
300180
180300
ENDCHAR
STARTCHAR C024537
ENCODING 10591
SWIDTH 2000 0
DWIDTH 20 0
BBX 19 15 1 -2
BITMAP
300300
300180
6000C0
63F8C0
C31860
C30060
C1E060
C07860
C01C60
C31860
6398C0
60F0C0
600180
300180
180300
ENDCHAR
STARTCHAR C024540
ENCODING 10592
SWIDTH 2000 0
DWIDTH 20 0
BBX 19 15 1 -2
BITMAP
300300
300180
6180C0
6180C0
C3F060
C18060
C18060
C18060
C18060
C18060
6180C0
61B0C0
60E180
300180
180300
ENDCHAR
STARTCHAR C024541
ENCODING 10593
SWIDTH 2000 0
DWIDTH 20 0
BBX 19 15 1 -2
BITMAP
300300
300180
6000C0
6738C0
C31860
C31860
C31860
C31860
C31860
C31860
61FCC0
6000C0
600180
300180
180300
ENDCHAR
STARTCHAR C024542
ENCODING 10594
SWIDTH 2000 0
DWIDTH 20 0
BBX 19 15 1 -2
BITMAP
300300
300180
6000C0
6000C0
C71860
C31860
C3B060
C1B060
C1F060
C0E060
60E0C0
6000C0
600180
300180
180300
ENDCHAR
STARTCHAR C024543
ENCODING 10595
SWIDTH 2000 0
DWIDTH 20 0
BBX 19 15 1 -2
BITMAP
300300
300180
6000C0
6000C0
DCE760
CC6660
CEE660
C7BC60
C7BC60
C3B860
6318C0
6318C0
600180
300180
180300
ENDCHAR
STARTCHAR C024544
ENCODING 10596
SWIDTH 2000 0
DWIDTH 20 0
BBX 19 15 1 -2
BITMAP
300300
300180
6000C0
67BCC0
C33060
C1E060
C0E060
C0E060
C1F060
C33860
671CC0
6000C0
600180
300180
180300
ENDCHAR
STARTCHAR C024545
ENCODING 10597
SWIDTH 2000 0
DWIDTH 20 0
BBX 19 15 1 -2
BITMAP
300300
300180
6000C0
638CC0
C39860
C19860
C1F060
C0F060
C0F060
C06060
6060C0
60C0C0
63C180
338180
180300
ENDCHAR
STARTCHAR C024546
ENCODING 10598
SWIDTH 2000 0
DWIDTH 20 0
BBX 19 16 1 -2
BITMAP
000300
300180
300180
6000C0
61F8C0
C3B060
C33060
C06060
C0C060
C18060
C31860
63F8C0
6000C0
600180
300180
180300
ENDCHAR
STARTCHAR C024547
ENCODING 10599
SWIDTH 2000 0
DWIDTH 20 0
BBX 19 15 1 -2
BITMAP
306300
33E180
6060C0
6060C0
C06060
C06060
C06060
C06060
C06060
C06060
6060C0
6060C0
606180
33FD80
180300
ENDCHAR
STARTCHAR C024550
ENCODING 10600
SWIDTH 2000 0
DWIDTH 20 0
BBX 19 15 1 -2
BITMAP
30F300
339980
660CC0
670CC0
C31C60
C01860
C03060
C06060
C0C060
C18060
6300C0
660CC0
67FD80
300180
180300
ENDCHAR
STARTCHAR C024551
ENCODING 10601
SWIDTH 2000 0
DWIDTH 20 0
BBX 19 15 1 -2
BITMAP
31E300
333180
6718C0
6618C0
C01860
C03060
C1E060
C07860
C01C60
C00C60
670CC0
670CC0
631980
31F180
180300
ENDCHAR
STARTCHAR C024552
ENCODING 10602
SWIDTH 2000 0
DWIDTH 20 0
BBX 19 15 1 -2
BITMAP
306300
30E180
60E0C0
61E0C0
C1E060
C36060
C66060
C66060
CC6060
CC7060
67E0C0
6060C0
606180
30F980
180300
ENDCHAR
STARTCHAR C024553
ENCODING 10603
SWIDTH 2000 0
DWIDTH 20 0
BBX 19 15 1 -2
BITMAP
300300
37F980
6600C0
6600C0
C60060
C60060
C7F060
C61860
C01860
C01C60
601CC0
6718C0
661980
337180
19C300
ENDCHAR
STARTCHAR C024554
ENCODING 10604
SWIDTH 2000 0
DWIDTH 20 0
BBX 19 15 1 -2
BITMAP
30F300
319980
6318C0
6300C0
C60060
C6E060
C7B860
C60C60
C60C60
C60C60
660CC0
630CC0
631980
31F180
180300
ENDCHAR
STARTCHAR C024555
ENCODING 10605
SWIDTH 2000 0
DWIDTH 20 0
BBX 19 15 1 -2
BITMAP
300300
33FD80
630CC0
6018C0
C03060
C03060
C06060
C06060
C06060
C0C060
60C0C0
61C0C0
61C180
300180
180300
ENDCHAR
STARTCHAR C024556
ENCODING 10606
SWIDTH 2000 0
DWIDTH 20 0
BBX 19 15 1 -2
BITMAP
300300
31F180
6318C0
660CC0
C61860
C31860
C1F060
C1F860
C31C60
C60C60
660CC0
660CC0
631980
31F180
180300
ENDCHAR
STARTCHAR C024557
ENCODING 10607
SWIDTH 2000 0
DWIDTH 20 0
BBX 19 15 1 -2
BITMAP
300300
31F180
6318C0
660CC0
C60C60
C60C60
C60C60
C33C60
C1EC60
C00C60
6018C0
6398C0
63B180
30E180
180300
ENDCHAR
STARTCHAR C024560
ENCODING 10608
SWIDTH 2000 0
DWIDTH 20 0
BBX 19 15 1 -2
BITMAP
301F00
3E3780
6636C0
6663C0
C66360
C66360
C66360
C66360
C66360
C66360
6666C0
6636C0
663D80
301980
180300
ENDCHAR
STARTCHAR C024561
ENCODING 10609
SWIDTH 2000 0
DWIDTH 20 0
BBX 19 15 1 -2
BITMAP
300300
300180
7E3CC0
660CC0
C60C60
C60C60
C60C60
C60C60
C60C60
C60C60
660CC0
7FBFC0
600180
300180
180300
ENDCHAR
STARTCHAR C024562
ENCODING 10610
SWIDTH 2000 0
DWIDTH 20 0
BBX 19 15 1 -2
BITMAP
300300
300180
7E1FC0
6633C0
C633E0
C60360
C60660
C60C60
C61860
C63060
6631C0
7FBFC0
600180
300180
180300
ENDCHAR
STARTCHAR C024563
ENCODING 10611
SWIDTH 2000 0
DWIDTH 20 0
BBX 19 15 1 -2
BITMAP
300300
300180
7E3EC0
6673C0
C60760
C60660
C61C60
C60760
C60360
C67360
6667C0
7FBCC0
600180
300180
180300
ENDCHAR
STARTCHAR C024564
ENCODING 10612
SWIDTH 2000 0
DWIDTH 20 0
BBX 19 15 1 -2
BITMAP
300300
300180
7E06C0
6606C0
C60E60
C61E60
C61E60
C63660
C66660
C67FE0
6606C0
7F87C0
600180
300180
180300
ENDCHAR
STARTCHAR C024565
ENCODING 10613
SWIDTH 2000 0
DWIDTH 20 0
BBX 19 15 1 -2
BITMAP
300300
300180
667EC0
6E60C0
C66060
C66060
C67E60
C60360
C60360
C60360
6663C0
6F36C0
601D80
300180
180300
ENDCHAR
STARTCHAR C024566
ENCODING 10614
SWIDTH 2000 0
DWIDTH 20 0
BBX 5 8 8 7
BITMAP
30
30
30
30
30
30
30
F8
ENDCHAR
STARTCHAR C024567
ENCODING 10615
SWIDTH 2000 0
DWIDTH 20 0
BBX 7 8 7 7
BITMAP
7C
66
66
0C
18
30
66
FE
ENDCHAR
STARTCHAR C024570
ENCODING 10616
SWIDTH 2000 0
DWIDTH 20 0
BBX 7 9 7 6
BITMAP
38
6C
6C
0C
38
0C
EE
EC
78
ENDCHAR
STARTCHAR C024571
ENCODING 10617
SWIDTH 2000 0
DWIDTH 20 0
BBX 6 7 7 7
BITMAP
18
38
78
D8
D8
FC
18
ENDCHAR
STARTCHAR C024572
ENCODING 10618
SWIDTH 2000 0
DWIDTH 20 0
BBX 7 7 8 6
BITMAP
3C
EC
CC
CC
CC
CC
0E
ENDCHAR
STARTCHAR C024573
ENCODING 10619
SWIDTH 2000 0
DWIDTH 20 0
BBX 5 8 8 -3
BITMAP
E0
60
60
60
60
60
60
F8
ENDCHAR
STARTCHAR C024574
ENCODING 10620
SWIDTH 2000 0
DWIDTH 20 0
BBX 7 8 7 -3
BITMAP
7C
6E
6E
0C
18
30
66
FC
ENDCHAR
STARTCHAR C024575
ENCODING 10621
SWIDTH 2000 0
DWIDTH 20 0
BBX 6 9 8 -4
BITMAP
78
DC
CC
18
78
0C
CC
DC
70
ENDCHAR
STARTCHAR C024576
ENCODING 10622
SWIDTH 2000 0
DWIDTH 20 0
BBX 6 7 7 -3
BITMAP
18
38
78
D8
D8
FC
18
ENDCHAR
STARTCHAR C024577
ENCODING 10623
SWIDTH 2000 0
DWIDTH 20 0
BBX 0 0 0 0
BITMAP
ENDCHAR
STARTCHAR C025040
ENCODING 10784
SWIDTH 2000 0
DWIDTH 20 0
BBX 1 9 20 -3
BITMAP
80
00
00
00
00
00
00
00
80
ENDCHAR
STARTCHAR C025041
ENCODING 10785
SWIDTH 2000 0
DWIDTH 20 0
BBX 11 12 5 -2
BITMAP
0C00
0C00
7F00
3800
1B00
1F80
3EE0
7C60
DC60
3860
F8E0
C180
ENDCHAR
STARTCHAR C025042
ENCODING 10786
SWIDTH 2000 0
DWIDTH 20 0
BBX 15 16 3 -2
BITMAP
0700
0300
0700
7FE0
1E00
06C0
06C0
07F8
1F8C
3F8E
6F06
C60E
DE0E
FE1C
6038
00E0
ENDCHAR
STARTCHAR C025043
ENCODING 10787
SWIDTH 2000 0
DWIDTH 20 0
BBX 11 8 5 -2
BITMAP
C000
C000
C0C0
C060
C060
7060
7000
3000
ENDCHAR
STARTCHAR C025044
ENCODING 10788
SWIDTH 2000 0
DWIDTH 20 0
BBX 15 10 3 1
BITMAP
C000
C000
C038
C01C
C00C
C00E
D80E
7806
7000
3000
ENDCHAR
STARTCHAR C025045
ENCODING 10789
SWIDTH 2000 0
DWIDTH 20 0
BBX 7 12 7 -1
BITMAP
18
0E
00
00
3E
E6
06
06
06
06
0C
18
ENDCHAR
STARTCHAR C025046
ENCODING 10790
SWIDTH 2000 0
DWIDTH 20 0
BBX 9 16 6 -2
BITMAP
1C00
0F00
0300
0000
0000
1F00
F180
6180
0180
0180
0180
0380
0300
0700
0600
0C00
ENDCHAR
STARTCHAR C025047
ENCODING 10791
SWIDTH 2000 0
DWIDTH 20 0
BBX 11 12 5 -2
BITMAP
0C00
0700
0000
0700
7F00
0600
0C00
1800
3000
7C00
C660
03E0
ENDCHAR
STARTCHAR C025050
ENCODING 10792
SWIDTH 2000 0
DWIDTH 20 0
BBX 15 16 3 -2
BITMAP
0600
0380
01C0
0000
0000
03E0
1FC0
0380
0300
0600
0C00
1C00
3700
7300
E1FE
003C
ENDCHAR
STARTCHAR C025051
ENCODING 10793
SWIDTH 2000 0
DWIDTH 20 0
BBX 13 12 4 -2
BITMAP
3000
1C00
1860
1E38
7C38
1800
1BE0
1E30
3830
F830
3BE0
1800
ENDCHAR
STARTCHAR C025052
ENCODING 10794
SWIDTH 2000 0
DWIDTH 20 0
BBX 15 14 3 -1
BITMAP
0E00
0E00
0C3E
0F8E
3E1E
0C00
0C60
0FF8
0E0C
1C0C
3C0C
EC1C
7CF8
0C00
ENDCHAR
STARTCHAR C025053
ENCODING 10795
SWIDTH 2000 0
DWIDTH 20 0
BBX 17 14 2 0
BITMAP
060000
070000
070000
070000
07DC00
DF6600
7C6300
0C6380
186F80
186000
30E000
70C000
67C000
E38000
ENDCHAR
STARTCHAR C025054
ENCODING 10796
SWIDTH 2000 0
DWIDTH 20 0
BBX 18 14 2 -1
BITMAP
070180
0700C0
070300
061D80
0FE600
FC6300
0C6380
1C6F80
186000
38E000
30C000
7DC000
E78000
030000
ENDCHAR
STARTCHAR C025055
ENCODING 10797
SWIDTH 2000 0
DWIDTH 20 0
BBX 12 16 4 -2
BITMAP
1C00
0C00
0FC0
0F00
3F00
03F0
0780
7DC0
00E0
0070
3FF0
E030
6000
7000
3F80
0F80
ENDCHAR
STARTCHAR C025056
ENCODING 10798
SWIDTH 2000 0
DWIDTH 20 0
BBX 15 16 4 -2
BITMAP
3C0C
0C36
0FD8
0F18
3F00
03F0
0780
7DC0
00E0
0070
3FF0
E030
6000
7000
3F80
0F80
ENDCHAR
STARTCHAR C025057
ENCODING 10799
SWIDTH 2000 0
DWIDTH 20 0
BBX 7 16 7 -2
BITMAP
06
0E
0E
18
30
60
C0
00
C0
60
30
18
1C
0E
06
06
ENDCHAR
STARTCHAR C025060
ENCODING 10800
SWIDTH 2000 0
DWIDTH 20 0
BBX 11 16 7 -2
BITMAP
0600
0600
0E00
18C0
33E0
61C0
C000
0000
C000
6000
3000
1800
1C00
0E00
0600
0600
ENDCHAR
STARTCHAR C025061
ENCODING 10801
SWIDTH 2000 0
DWIDTH 20 0
BBX 15 15 3 -1
BITMAP
E0E0
7030
7030
6030
603E
C7F0
C030
C030
C030
F030
E030
E070
E060
6060
00C0
ENDCHAR
STARTCHAR C025062
ENCODING 10802
SWIDTH 2000 0
DWIDTH 20 0
BBX 17 15 3 -1
BITMAP
C0E300
603F80
603600
603000
C03E00
C7F000
C03000
C03000
F03000
E03000
E03000
E06000
E06000
606000
00C000
ENDCHAR
STARTCHAR C025063
ENCODING 10803
SWIDTH 2000 0
DWIDTH 20 0
BBX 13 13 4 0
BITMAP
3000
1FC0
03E0
0600
0000
0000
0000
0000
C000
C000
C000
6030
3FF8
ENDCHAR
STARTCHAR C025064
ENCODING 10804
SWIDTH 2000 0
DWIDTH 20 0
BBX 15 13 4 0
BITMAP
300C
1FDE
03FE
0600
0000
0000
0000
0000
C000
C000
C000
6000
3FF8
ENDCHAR
STARTCHAR C025065
ENCODING 10805
SWIDTH 2000 0
DWIDTH 20 0
BBX 13 14 4 -1
BITMAP
0F00
0FF0
07F0
C3C0
7FC0
00E0
0070
1FF8
3038
6000
6000
3000
1C00
07E0
ENDCHAR
STARTCHAR C025066
ENCODING 10806
SWIDTH 2000 0
DWIDTH 20 0
BBX 16 15 4 -1
BITMAP
000C
0F1F
0FFF
07FC
C3C0
7FC0
00E0
0070
1FF8
3038
6000
6000
3000
1C00
07E0
ENDCHAR
STARTCHAR C025067
ENCODING 10807
SWIDTH 2000 0
DWIDTH 20 0
BBX 13 15 5 -1
BITMAP
C000
6000
7000
6000
6000
6000
6000
6000
6000
C000
C000
C018
6070
61E0
3F80
ENDCHAR
STARTCHAR C025070
ENCODING 10808
SWIDTH 2000 0
DWIDTH 20 0
BBX 12 15 5 -1
BITMAP
C000
6000
6000
6180
66C0
6300
6000
6000
C000
C000
C000
C000
C070
61C0
3F80
ENDCHAR
STARTCHAR C025071
ENCODING 10809
SWIDTH 2000 0
DWIDTH 20 0
BBX 17 17 2 -2
BITMAP
018000
00C000
00C000
00C000
07FF80
FCC000
00C000
03C000
06E000
0CE000
06E000
07E000
01C000
00C000
01C000
018000
030000
ENDCHAR
STARTCHAR C025072
ENCODING 10810
SWIDTH 2000 0
DWIDTH 20 0
BBX 17 17 2 -2
BITMAP
01C000
00C700
00CF00
00CC00
07FF80
FCC000
00C000
03C000
06E000
06E000
06E000
03E000
01E000
00C000
01C000
018000
030000
ENDCHAR
STARTCHAR C025073
ENCODING 10811
SWIDTH 2000 0
DWIDTH 20 0
BBX 18 14 2 -1
BITMAP
003000
001C00
0E1800
061800
061800
06FFC0
FF9800
761800
061800
067800
063000
060000
03DE00
00FE00
ENDCHAR
STARTCHAR C025074
ENCODING 10812
SWIDTH 2000 0
DWIDTH 20 0
BBX 18 13 2 0
BITMAP
0038C0
0C1FC0
061B80
061800
061B80
07FFC0
FE1800
061800
067800
063000
060000
030000
01FF00
ENDCHAR
STARTCHAR C025075
ENCODING 10813
SWIDTH 2000 0
DWIDTH 20 0
BBX 15 16 3 -2
BITMAP
00E0
0FE0
0EE0
0180
0300
0618
1DFE
3F80
F300
E600
0600
0600
0600
0380
01F0
0060
ENDCHAR
STARTCHAR C025076
ENCODING 10814
SWIDTH 2000 0
DWIDTH 20 0
BBX 17 16 3 -2
BITMAP
00E000
0FE300
0EEF80
018600
030000
061800
1DFE00
3FC000
F30000
E60000
060000
060000
060000
038000
01F000
006000
ENDCHAR
STARTCHAR C025077
ENCODING 10815
SWIDTH 2000 0
DWIDTH 20 0
BBX 15 14 3 -1
BITMAP
1C00
0E00
0C00
0F80
FC78
181C
181E
3000
3000
7000
6000
E300
C380
C0FE
ENDCHAR
STARTCHAR C025100
ENCODING 10816
SWIDTH 2000 0
DWIDTH 20 0
BBX 17 14 3 -1
BITMAP
0C0380
0E0D80
0C0700
0F8300
FC7800
181E00
181E00
300000
300000
300000
630000
630000
C38000
C0FE00
ENDCHAR
STARTCHAR C025101
ENCODING 10817
SWIDTH 2000 0
DWIDTH 20 0
BBX 15 15 3 -1
BITMAP
0E00
0E00
0CC0
CFC0
7C00
0C00
1800
1800
1BFC
1E0C
3806
380E
001C
0038
01E0
ENDCHAR
STARTCHAR C025102
ENCODING 10818
SWIDTH 2000 0
DWIDTH 20 0
BBX 17 16 3 -2
BITMAP
0C0000
0E0000
0C0300
0FEF80
FF0E00
0C0000
180000
180000
19F800
1F0C00
3C0E00
380E00
000C00
003C00
00F800
03E000
ENDCHAR
STARTCHAR C025103
ENCODING 10819
SWIDTH 2000 0
DWIDTH 20 0
BBX 13 8 4 -2
BITMAP
03F0
1E18
F018
0018
0018
0038
0070
01C0
ENDCHAR
STARTCHAR C025104
ENCODING 10820
SWIDTH 2000 0
DWIDTH 20 0
BBX 17 11 2 -1
BITMAP
03FE00
0E0300
F80380
700180
000380
000380
000300
000700
001C00
007000
00C000
ENDCHAR
STARTCHAR C025105
ENCODING 10821
SWIDTH 2000 0
DWIDTH 20 0
BBX 19 13 1 -1
BITMAP
000060
0001E0
01FEC0
0F0300
FC0380
700180
000380
000380
000300
000700
001C00
007000
00C000
ENDCHAR
STARTCHAR C025106
ENCODING 10822
SWIDTH 2000 0
DWIDTH 20 0
BBX 15 14 3 -1
BITMAP
003E
03FE
FE60
71C0
0300
0300
0600
0600
0600
0600
0600
0300
03F0
00F8
ENDCHAR
STARTCHAR C025107
ENCODING 10823
SWIDTH 2000 0
DWIDTH 20 0
BBX 17 14 3 -1
BITMAP
003E00
03FE00
FE6000
71C380
030F80
030600
060000
060000
060000
060000
060000
030000
03F000
00F800
ENDCHAR
STARTCHAR C025110
ENCODING 10824
SWIDTH 2000 0
DWIDTH 20 0
BBX 12 14 4 -1
BITMAP
3800
1C00
1C00
1C00
0CE0
0FE0
0F00
1C00
3000
6000
C000
C000
6000
3FF0
ENDCHAR
STARTCHAR C025111
ENCODING 10825
SWIDTH 2000 0
DWIDTH 20 0
BBX 14 15 4 -1
BITMAP
001C
380C
1838
1818
1800
19E0
1BC0
0E00
1800
3000
6000
C000
C000
6000
3FE0
ENDCHAR
STARTCHAR C025112
ENCODING 10826
SWIDTH 2000 0
DWIDTH 20 0
BBX 16 16 3 -2
BITMAP
0600
0700
0600
0FC0
7C00
180E
181F
3070
70C0
E0C0
C0C0
00E0
0FE0
18F8
1CD8
0780
ENDCHAR
STARTCHAR C025113
ENCODING 10827
SWIDTH 2000 0
DWIDTH 20 0
BBX 15 14 4 -1
BITMAP
6000
7000
61F8
6338
6000
C000
C000
F000
F000
FC00
F600
E3FE
6000
6000
ENDCHAR
STARTCHAR C025114
ENCODING 10828
SWIDTH 2000 0
DWIDTH 20 0
BBX 17 14 2 -1
BITMAP
030000
018000
018000
01F000
679E00
3D8700
330300
3B0300
7F0300
DE0300
CC0300
DEFF00
F0CF00
607F80
ENDCHAR
STARTCHAR C025115
ENCODING 10829
SWIDTH 2000 0
DWIDTH 20 0
BBX 17 15 3 -2
BITMAP
1C0000
0C0000
0C0000
0C0000
1C7C00
FFCE00
1E0600
1C0600
380700
780600
780600
79FE00
F99F00
D8FB80
180000
ENDCHAR
STARTCHAR C025116
ENCODING 10830
SWIDTH 2000 0
DWIDTH 20 0
BBX 17 12 2 0
BITMAP
03F800
0ECE00
18C700
31C300
618380
630380
C70380
C60300
6C0300
7C0600
380C00
001800
ENDCHAR
STARTCHAR C025117
ENCODING 10831
SWIDTH 2000 0
DWIDTH 20 0
BBX 16 14 3 -1
BITMAP
301C
7018
7018
601F
61FE
C018
C018
F018
F018
F018
E1F8
E71F
663B
63F0
ENDCHAR
STARTCHAR C025120
ENCODING 10832
SWIDTH 2000 0
DWIDTH 20 0
BBX 17 15 3 -1
BITMAP
600180
301F80
301B00
701800
601F00
61FE00
601800
C01800
F01800
F01800
F01800
F1F800
671F00
633B00
61F000
ENDCHAR
STARTCHAR C025121
ENCODING 10833
SWIDTH 2000 0
DWIDTH 20 0
BBX 17 16 3 -1
BITMAP
000380
606680
703E80
703380
603000
603E00
63F800
C03000
C03000
F03000
F03000
E01800
E1FC00
E31F00
E33B00
61F000
ENDCHAR
STARTCHAR C025122
ENCODING 10834
SWIDTH 2000 0
DWIDTH 20 0
BBX 17 14 2 -1
BITMAP
0E1800
1E1800
FC1800
1C1C00
181C00
301E00
303700
303380
603000
607000
606000
31C000
1F8000
0E0000
ENDCHAR
STARTCHAR C025123
ENCODING 10835
SWIDTH 2000 0
DWIDTH 20 0
BBX 17 14 3 -1
BITMAP
1C3380
3C3780
F83600
383800
303800
603C00
606E00
606700
C06000
C0E000
C0C000
638000
3F0000
1C0000
ENDCHAR
STARTCHAR C025124
ENCODING 10836
SWIDTH 2000 0
DWIDTH 20 0
BBX 17 15 3 -1
BITMAP
000780
1C3680
3C3C80
F83780
383800
303800
603C00
606E00
E06700
C06000
C0C000
C1C000
638000
3F0000
1C0000
ENDCHAR
STARTCHAR C025125
ENCODING 10837
SWIDTH 2000 0
DWIDTH 20 0
BBX 17 13 2 0
BITMAP
018000
01C000
00E000
00E000
018000
030000
030000
018000
00FC00
03E700
CE6300
F86F80
73E000
ENDCHAR
STARTCHAR C025126
ENCODING 10838
SWIDTH 2000 0
DWIDTH 20 0
BBX 18 13 2 0
BITMAP
018000
01C000
00E000
00C1C0
0187C0
030300
030000
018000
00FC00
07C700
DC6300
F8EF80
73E000
ENDCHAR
STARTCHAR C025127
ENCODING 10839
SWIDTH 2000 0
DWIDTH 20 0
BBX 17 13 2 0
BITMAP
030000
01C000
00EF00
00CD80
038D80
030F00
030000
018000
01FC00
07C600
DCE300
FCEF00
77C000
ENDCHAR
STARTCHAR C025130
ENCODING 10840
SWIDTH 2000 0
DWIDTH 20 0
BBX 19 8 1 2
BITMAP
078000
0CE000
183000
F01800
000E00
000700
0003C0
0000E0
ENDCHAR
STARTCHAR C025131
ENCODING 10841
SWIDTH 2000 0
DWIDTH 20 0
BBX 19 11 1 2
BITMAP
000300
000DC0
000700
078300
0CE000
183000
F03800
000E00
000700
0003C0
0000E0
ENDCHAR
STARTCHAR C025132
ENCODING 10842
SWIDTH 2000 0
DWIDTH 20 0
BBX 18 11 2 2
BITMAP
001E00
001B00
001B00
0F9E00
18C000
306000
E03000
001C00
000E00
000780
0001C0
ENDCHAR
STARTCHAR C025133
ENCODING 10843
SWIDTH 2000 0
DWIDTH 20 0
BBX 16 14 3 -1
BITMAP
303E
71F8
7018
601E
603E
C1F8
C018
F018
F018
F018
F0FE
E39F
6198
60F0
ENDCHAR
STARTCHAR C025134
ENCODING 10844
SWIDTH 2000 0
DWIDTH 20 0
BBX 18 15 2 -1
BITMAP
600000
307E00
31D8C0
301BC0
601F80
603E00
61F800
601800
F01800
F01800
F01800
71FE00
731F00
71B800
70F000
ENDCHAR
STARTCHAR C025135
ENCODING 10845
SWIDTH 2000 0
DWIDTH 20 0
BBX 18 15 2 -1
BITMAP
0001C0
607F40
61F340
603BC0
601F80
C07C00
C1F000
C03000
F03000
E03000
E03000
E1FC00
E33F00
E33000
61E000
ENDCHAR
STARTCHAR C025136
ENCODING 10846
SWIDTH 2000 0
DWIDTH 20 0
BBX 12 15 4 -1
BITMAP
0700
0380
0300
0370
7FE0
0300
0360
7FE0
0300
0300
0300
7F80
C3F0
C730
7E00
ENDCHAR
STARTCHAR C025137
ENCODING 10847
SWIDTH 2000 0
DWIDTH 20 0
BBX 17 14 2 -1
BITMAP
01E000
0FE000
06E000
01C000
018000
030C00
030C00
1FFC00
3C1E00
6C1F00
D81B80
F03000
606000
00C000
ENDCHAR
STARTCHAR C025140
ENCODING 10848
SWIDTH 2000 0
DWIDTH 20 0
BBX 17 14 2 -1
BITMAP
1C0000
0C0000
0FC000
FE0000
0C1F00
0C1B80
7C1B80
6E1980
6C1800
3C1800
180C00
180C00
181C00
0FF800
ENDCHAR
STARTCHAR C025141
ENCODING 10849
SWIDTH 2000 0
DWIDTH 20 0
BBX 17 14 2 -1
BITMAP
00C000
006000
30E000
30F000
1FDE00
1DC700
398300
7F0380
CF0380
CE0380
CF0300
F80700
700C00
003800
ENDCHAR
STARTCHAR C025142
ENCODING 10850
SWIDTH 2000 0
DWIDTH 20 0
BBX 11 16 5 -2
BITMAP
1C00
0E00
0C00
CC00
7800
1C00
7800
F180
F0C0
78C0
3E60
3060
3060
30E0
1BC0
0F80
ENDCHAR
STARTCHAR C025143
ENCODING 10851
SWIDTH 2000 0
DWIDTH 20 0
BBX 13 12 5 -2
BITMAP
0600
3F00
6F00
6FF0
3838
F830
CDF0
0C00
0600
0700
0300
0300
ENDCHAR
STARTCHAR C025144
ENCODING 10852
SWIDTH 2000 0
DWIDTH 20 0
BBX 17 15 2 -1
BITMAP
00C000
006000
1FE000
181E00
1DF380
0F0180
1E0180
FB6380
33BF00
018000
00C000
00E000
006000
007000
007000
ENDCHAR
STARTCHAR C025145
ENCODING 10853
SWIDTH 2000 0
DWIDTH 20 0
BBX 13 12 4 -2
BITMAP
0700
CF00
7BE0
6FB0
7998
F998
F998
F998
6DB0
67E0
0300
0600
ENDCHAR
STARTCHAR C025146
ENCODING 10854
SWIDTH 2000 0
DWIDTH 20 0
BBX 16 14 2 -1
BITMAP
0380
C6C0
EDF8
6F6C
6C6E
EC67
DC67
FC67
FE67
E76E
E3DC
61F8
0180
0380
ENDCHAR
STARTCHAR C025147
ENCODING 10855
SWIDTH 2000 0
DWIDTH 20 0
BBX 10 12 6 -2
BITMAP
1C00
0C00
0C00
0FC0
0C00
0C00
0C00
0C00
0C00
FF80
CDC0
7C00
ENDCHAR
STARTCHAR C025150
ENCODING 10856
SWIDTH 2000 0
DWIDTH 20 0
BBX 12 16 4 -2
BITMAP
0E00
0600
0600
0600
06F0
0780
0600
0600
0600
0600
0600
3F00
E3E0
C370
7E00
1800
ENDCHAR
STARTCHAR C025151
ENCODING 10857
SWIDTH 2000 0
DWIDTH 20 0
BBX 13 16 4 -2
BITMAP
1800
0C00
0E00
0E00
7800
6000
6000
6000
61C0
6F70
F830
F038
E030
0070
01C0
0300
ENDCHAR
STARTCHAR C025152
ENCODING 10858
SWIDTH 2000 0
DWIDTH 20 0
BBX 9 15 6 -1
BITMAP
CC00
FE00
E300
E300
E300
C380
C300
C300
C300
C300
0700
0600
0E00
0C00
1800
ENDCHAR
STARTCHAR C025153
ENCODING 10859
SWIDTH 2000 0
DWIDTH 20 0
BBX 13 14 4 -1
BITMAP
3FC0
1DC0
0380
0300
0600
0C00
1FE0
3C30
7038
E018
EE38
1BB0
19F0
0FC0
ENDCHAR
STARTCHAR C025154
ENCODING 10860
SWIDTH 2000 0
DWIDTH 20 0
BBX 16 15 3 -1
BITMAP
1800
1C00
1C00
1878
19D8
3F18
7E38
3C30
3830
3830
7870
F870
D870
F837
181C
ENDCHAR
STARTCHAR C025155
ENCODING 10861
SWIDTH 2000 0
DWIDTH 20 0
BBX 15 15 3 -1
BITMAP
00C0
1FC0
0EC0
0180
0300
0600
0CE0
1FB8
3C0C
700E
E00C
000C
001C
0078
03C0
ENDCHAR
STARTCHAR C025156
ENCODING 10862
SWIDTH 2000 0
DWIDTH 20 0
BBX 13 12 4 -2
BITMAP
0C00
0C00
0C00
0C00
7DE0
1F30
1C18
3818
7838
7870
F8C0
1800
ENDCHAR
STARTCHAR C025157
ENCODING 10863
SWIDTH 2000 0
DWIDTH 20 0
BBX 16 15 2 -1
BITMAP
0C00
0600
0600
0600
0600
7F30
3EFE
0F87
0E03
1C03
1C07
3C06
7C0E
FC38
0C60
ENDCHAR
STARTCHAR C025160
ENCODING 10864
SWIDTH 2000 0
DWIDTH 20 0
BBX 15 14 3 -1
BITMAP
1FC0
0FC0
0180
0300
0300
07F8
0E0C
3C06
6C06
D806
D8F6
F19C
F19C
00F0
ENDCHAR
STARTCHAR C025161
ENCODING 10865
SWIDTH 2000 0
DWIDTH 20 0
BBX 16 15 3 -1
BITMAP
00C0
1FE0
0DC0
0380
03E0
0630
0C38
1F38
0DF0
0FE0
0600
1C00
70FC
FF8E
C71F
ENDCHAR
STARTCHAR C025162
ENCODING 10866
SWIDTH 2000 0
DWIDTH 20 0
BBX 14 16 4 -2
BITMAP
0600
0700
06C0
FFC0
3C00
1830
1818
3F7C
E3C0
C700
0F00
1B00
3000
3000
3860
0FF0
ENDCHAR
STARTCHAR C025163
ENCODING 10867
SWIDTH 2000 0
DWIDTH 20 0
BBX 15 14 3 -1
BITMAP
0380
0180
0300
0600
0600
0C00
1800
1F00
3D80
3180
6186
E18C
C1F8
C0F0
ENDCHAR
STARTCHAR C025164
ENCODING 10868
SWIDTH 2000 0
DWIDTH 20 0
BBX 0 0 0 0
BITMAP
ENDCHAR
STARTCHAR C025165
ENCODING 10869
SWIDTH 2000 0
DWIDTH 20 0
BBX 1 10 20 6
BITMAP
80
80
00
00
00
80
80
00
80
80
ENDCHAR
STARTCHAR C025166
ENCODING 10870
SWIDTH 2000 0
DWIDTH 20 0
BBX 0 0 0 0
BITMAP
ENDCHAR
STARTCHAR C025167
ENCODING 10871
SWIDTH 2000 0
DWIDTH 20 0
BBX 0 0 0 0
BITMAP
ENDCHAR
STARTCHAR C025170
ENCODING 10872
SWIDTH 2000 0
DWIDTH 20 0
BBX 0 0 0 0
BITMAP
ENDCHAR
STARTCHAR C025171
ENCODING 10873
SWIDTH 2000 0
DWIDTH 20 0
BBX 0 0 0 0
BITMAP
ENDCHAR
STARTCHAR C025172
ENCODING 10874
SWIDTH 2000 0
DWIDTH 20 0
BBX 1 9 20 -3
BITMAP
80
00
00
00
00
00
00
00
80
ENDCHAR
STARTCHAR C025173
ENCODING 10875
SWIDTH 2000 0
DWIDTH 20 0
BBX 0 0 0 0
BITMAP
ENDCHAR
STARTCHAR C025174
ENCODING 10876
SWIDTH 2000 0
DWIDTH 20 0
BBX 0 0 0 0
BITMAP
ENDCHAR
STARTCHAR C025175
ENCODING 10877
SWIDTH 2000 0
DWIDTH 20 0
BBX 0 0 0 0
BITMAP
ENDCHAR
STARTCHAR C025176
ENCODING 10878
SWIDTH 2000 0
DWIDTH 20 0
BBX 0 0 0 0
BITMAP
ENDCHAR
STARTCHAR C025177
ENCODING 10879
SWIDTH 2000 0
DWIDTH 20 0
BBX 1 16 20 -1
BITMAP
80
00
00
00
00
00
00
80
80
00
00
80
80
80
80
80
ENDCHAR
STARTCHAR C025440
ENCODING 11040
SWIDTH 2000 0
DWIDTH 20 0
BBX 1 1 20 8
BITMAP
80
ENDCHAR
STARTCHAR C025441
ENCODING 11041
SWIDTH 2000 0
DWIDTH 20 0
BBX 13 10 4 -1
BITMAP
CFF0
7878
07C0
0380
0600
0600
0600
0C00
0C00
1800
ENDCHAR
STARTCHAR C025442
ENCODING 11042
SWIDTH 2000 0
DWIDTH 20 0
BBX 15 14 3 -1
BITMAP
03FC
FE0E
631E
03F0
01C0
0380
0380
0300
0300
0700
0600
0C00
0C00
1800
ENDCHAR
STARTCHAR C025443
ENCODING 11043
SWIDTH 2000 0
DWIDTH 20 0
BBX 9 12 5 -2
BITMAP
0180
0380
0300
0600
0E00
1E00
3600
E600
0600
0600
0600
0600
ENDCHAR
STARTCHAR C025444
ENCODING 11044
SWIDTH 2000 0
DWIDTH 20 0
BBX 11 16 5 -2
BITMAP
00C0
00E0
01E0
0180
0380
0700
0F00
1F00
3B00
6300
C300
0300
0300
0300
0300
0300
ENDCHAR
STARTCHAR C025445
ENCODING 11045
SWIDTH 2000 0
DWIDTH 20 0
BBX 11 11 5 -2
BITMAP
0E00
0C00
FFE0
C0E0
C0C0
C1C0
6180
0380
0300
0600
0C00
ENDCHAR
STARTCHAR C025446
ENCODING 11046
SWIDTH 2000 0
DWIDTH 20 0
BBX 14 14 4 0
BITMAP
0E00
0700
0700
FFF8
E03C
E038
E030
E070
6060
00E0
00C0
0180
0300
0600
ENDCHAR
STARTCHAR C025447
ENCODING 11047
SWIDTH 2000 0
DWIDTH 20 0
BBX 13 7 4 -2
BITMAP
3FE0
0300
0300
0300
0600
FFF8
6000
ENDCHAR
STARTCHAR C025450
ENCODING 11048
SWIDTH 2000 0
DWIDTH 20 0
BBX 17 9 2 2
BITMAP
19FC00
0F8000
00C000
00C000
00C000
00C000
00C000
FFFF00
780380
ENDCHAR
STARTCHAR C025451
ENCODING 11049
SWIDTH 2000 0
DWIDTH 20 0
BBX 12 11 4 -2
BITMAP
0300
0300
03F0
FF00
0700
0F00
1B00
3300
6300
0F00
0300
ENDCHAR
STARTCHAR C025452
ENCODING 11050
SWIDTH 2000 0
DWIDTH 20 0
BBX 15 15 3 -1
BITMAP
01C0
00C0
00C0
00CC
FFFE
71C0
03C0
07C0
0EC0
1CC0
38C0
60C0
00C0
03C0
00C0
ENDCHAR
STARTCHAR C025453
ENCODING 11051
SWIDTH 2000 0
DWIDTH 20 0
BBX 15 14 3 -1
BITMAP
01C0
01C0
0180
01FC
3FCE
030C
071C
0618
0C18
1818
3030
6030
C1E0
00E0
ENDCHAR
STARTCHAR C025454
ENCODING 11052
SWIDTH 2000 0
DWIDTH 20 0
BBX 17 14 3 -1
BITMAP
01C300
01C180
018700
63FF00
3FCE00
030C00
061800
0E1800
0C1800
183800
303000
637000
C1E000
00C000
ENDCHAR
STARTCHAR C025455
ENCODING 11053
SWIDTH 2000 0
DWIDTH 20 0
BBX 14 15 4 -2
BITMAP
1C00
0C00
0EF0
07C0
3E00
6600
033C
03E0
1F00
F380
0180
0180
01C0
00C0
00C0
ENDCHAR
STARTCHAR C025456
ENCODING 11054
SWIDTH 2000 0
DWIDTH 20 0
BBX 16 16 3 -2
BITMAP
1E06
061F
060E
03F6
07C0
7F00
030C
01FE
03C0
DF80
71C0
00C0
00C0
00E0
0060
0060
ENDCHAR
STARTCHAR C025457
ENCODING 11055
SWIDTH 2000 0
DWIDTH 20 0
BBX 13 15 4 -1
BITMAP
0600
0300
07F0
0E38
0C70
1860
30E0
E0C0
0180
0380
0700
0E00
1C00
3000
E000
ENDCHAR
STARTCHAR C025460
ENCODING 11056
SWIDTH 2000 0
DWIDTH 20 0
BBX 16 15 4 -1
BITMAP
061F
030F
07FE
0E38
1C70
3860
60E0
00C0
0180
0300
0700
0C00
1800
3000
E000
ENDCHAR
STARTCHAR C025461
ENCODING 11057
SWIDTH 2000 0
DWIDTH 20 0
BBX 15 13 3 0
BITMAP
0C00
0E00
0C00
1C7E
3FE0
70E0
C0E0
00C0
01C0
0380
0300
0600
0C00
ENDCHAR
STARTCHAR C025462
ENCODING 11058
SWIDTH 2000 0
DWIDTH 20 0
BBX 17 14 3 0
BITMAP
000380
0C0780
0E0700
1C0000
18FE00
3FC000
60E000
C0C000
00C000
018000
038000
030000
060000
0C0000
ENDCHAR
STARTCHAR C025463
ENCODING 11059
SWIDTH 2000 0
DWIDTH 20 0
BBX 13 9 4 2
BITMAP
C7F0
7E38
0030
0030
0070
0060
0060
C1E0
7F60
ENDCHAR
STARTCHAR C025464
ENCODING 11060
SWIDTH 2000 0
DWIDTH 20 0
BBX 15 12 5 1
BITMAP
0006
0018
03EC
FF70
6060
0060
00E0
00C0
00C0
00C0
FFC0
6000
ENDCHAR
STARTCHAR C025465
ENCODING 11061
SWIDTH 2000 0
DWIDTH 20 0
BBX 17 15 2 -1
BITMAP
006000
0E3000
063000
063000
DFFF80
7E3000
063000
063000
063000
066000
006000
00E000
00C000
018000
030000
ENDCHAR
STARTCHAR C025466
ENCODING 11062
SWIDTH 2000 0
DWIDTH 20 0
BBX 18 15 2 -1
BITMAP
006180
0E36C0
063380
063180
DFFF80
7E3000
063000
063000
063000
066000
006000
00E000
00C000
018000
030000
ENDCHAR
STARTCHAR C025467
ENCODING 11063
SWIDTH 2000 0
DWIDTH 20 0
BBX 13 13 4 0
BITMAP
6000
3800
1C00
0000
0018
F018
7070
00E0
01C0
0780
0E00
FC00
7000
ENDCHAR
STARTCHAR C025470
ENCODING 11064
SWIDTH 2000 0
DWIDTH 20 0
BBX 14 13 4 0
BITMAP
6000
381C
1C60
0030
000C
F018
3030
0060
01C0
0380
0F00
FC00
7000
ENDCHAR
STARTCHAR C025471
ENCODING 11065
SWIDTH 2000 0
DWIDTH 20 0
BBX 14 12 4 0
BITMAP
01E0
7F70
18E0
01C0
0180
0300
0700
0FC0
1870
3038
E01C
000C
ENDCHAR
STARTCHAR C025472
ENCODING 11066
SWIDTH 2000 0
DWIDTH 20 0
BBX 16 14 4 0
BITMAP
000E
001F
01EC
7F7C
38E0
01C0
0180
0300
0700
0F80
18E0
3038
E01C
000C
ENDCHAR
STARTCHAR C025473
ENCODING 11067
SWIDTH 2000 0
DWIDTH 20 0
BBX 15 13 3 0
BITMAP
0C00
0600
0600
0600
06FC
0F9E
FE38
6660
0600
0600
0600
0300
01FE
ENDCHAR
STARTCHAR C025474
ENCODING 11068
SWIDTH 2000 0
DWIDTH 20 0
BBX 18 13 2 0
BITMAP
060180
0300C0
0303C0
0301C0
037E00
03CF00
FF1C00
333000
030000
030000
030000
018000
00FE00
ENDCHAR
STARTCHAR C025475
ENCODING 11069
SWIDTH 2000 0
DWIDTH 20 0
BBX 13 13 4 0
BITMAP
0060
C030
6038
7070
3870
30E0
00C0
01C0
0380
0300
0600
0C00
3800
ENDCHAR
STARTCHAR C025476
ENCODING 11070
SWIDTH 2000 0
DWIDTH 20 0
BBX 16 14 4 0
BITMAP
0007
006F
C036
6038
7070
3870
30E0
00C0
01C0
0380
0300
0600
0C00
3800
ENDCHAR
STARTCHAR C025477
ENCODING 11071
SWIDTH 2000 0
DWIDTH 20 0
BBX 12 15 5 -1
BITMAP
0C00
0600
0FE0
0C70
18E0
30E0
79C0
CF80
0700
0700
0E00
1C00
3800
6000
C000
ENDCHAR
STARTCHAR C025500
ENCODING 11072
SWIDTH 2000 0
DWIDTH 20 0
BBX 15 15 5 -1
BITMAP
0C0E
061E
0FFC
0C7C
18E0
30C0
7DC0
CF80
0700
0700
0E00
1C00
3800
6000
C000
ENDCHAR
STARTCHAR C025501
ENCODING 11073
SWIDTH 2000 0
DWIDTH 20 0
BBX 15 16 3 -2
BITMAP
00C0
00E0
03C0
0F00
7980
0180
07FE
FD80
6180
0380
0300
0300
0700
0600
0C00
1800
ENDCHAR
STARTCHAR C025502
ENCODING 11074
SWIDTH 2000 0
DWIDTH 20 0
BBX 17 16 3 -2
BITMAP
00C000
00E600
03CF80
0F0600
798600
018000
07FE00
FD8000
618000
038000
030000
030000
070000
060000
0C0000
180000
ENDCHAR
STARTCHAR C025503
ENCODING 11075
SWIDTH 2000 0
DWIDTH 20 0
BBX 11 10 5 -2
BITMAP
00C0
0CE0
CCE0
E0C0
0180
0380
0300
0600
0C00
1800
ENDCHAR
STARTCHAR C025504
ENCODING 11076
SWIDTH 2000 0
DWIDTH 20 0
BBX 14 12 3 0
BITMAP
0618
C70C
631C
7318
7038
0030
0060
00E0
00C0
0180
0300
0E00
ENDCHAR
STARTCHAR C025505
ENCODING 11077
SWIDTH 2000 0
DWIDTH 20 0
BBX 17 14 3 0
BITMAP
000300
000180
061B80
C70F00
631C00
731800
703800
003000
007000
006000
00C000
018000
030000
060000
ENDCHAR
STARTCHAR C025506
ENCODING 11078
SWIDTH 2000 0
DWIDTH 20 0
BBX 15 14 3 -1
BITMAP
1FF8
0000
0000
0000
C7FE
7D80
01C0
0180
0380
0300
0300
0600
0E00
0C00
ENDCHAR
STARTCHAR C025507
ENCODING 11079
SWIDTH 2000 0
DWIDTH 20 0
BBX 17 15 3 -1
BITMAP
000300
1FF980
0C0380
000300
000000
C7FE00
7D8000
01C000
018000
038000
030000
030000
060000
0E0000
0C0000
ENDCHAR
STARTCHAR C025510
ENCODING 11080
SWIDTH 2000 0
DWIDTH 20 0
BBX 8 16 8 -2
BITMAP
C0
70
60
60
60
60
70
7E
67
63
60
60
60
60
60
60
ENDCHAR
STARTCHAR C025511
ENCODING 11081
SWIDTH 2000 0
DWIDTH 20 0
BBX 11 16 8 -2
BITMAP
C000
6000
61C0
67E0
6380
6000
7000
7E00
6700
6300
6000
6000
6000
6000
6000
6000
ENDCHAR
STARTCHAR C025512
ENCODING 11082
SWIDTH 2000 0
DWIDTH 20 0
BBX 16 16 2 -2
BITMAP
0180
00C0
00C0
00C0
00C0
CFFF
7CC0
00C0
00C0
01C0
0180
0180
0300
0300
0600
0C00
ENDCHAR
STARTCHAR C025513
ENCODING 11083
SWIDTH 2000 0
DWIDTH 20 0
BBX 17 8 2 2
BITMAP
1FFC00
000000
000000
000000
000000
000000
FFFF00
780380
ENDCHAR
STARTCHAR C025514
ENCODING 11084
SWIDTH 2000 0
DWIDTH 20 0
BBX 12 13 5 0
BITMAP
0060
3FF0
18E0
00E0
31C0
1D80
0780
0780
0FC0
1CE0
38E0
6000
C000
ENDCHAR
STARTCHAR C025515
ENCODING 11085
SWIDTH 2000 0
DWIDTH 20 0
BBX 14 16 4 -2
BITMAP
0600
0380
0180
0000
07E0
7DC0
0380
0700
0F60
1B38
731C
C31C
0300
0300
0300
0300
ENDCHAR
STARTCHAR C025516
ENCODING 11086
SWIDTH 2000 0
DWIDTH 20 0
BBX 11 13 5 0
BITMAP
00C0
00E0
00E0
00C0
01C0
0380
0300
0600
0E00
1C00
3800
6000
C000
ENDCHAR
STARTCHAR C025517
ENCODING 11087
SWIDTH 2000 0
DWIDTH 20 0
BBX 16 7 3 3
BITMAP
1800
0C30
1E1C
180E
3007
6007
C003
ENDCHAR
STARTCHAR C025520
ENCODING 11088
SWIDTH 2000 0
DWIDTH 20 0
BBX 18 9 2 3
BITMAP
0001C0
0003C0
0C0380
061800
0E0C00
1C0700
180700
300380
E00180
ENDCHAR
STARTCHAR C025521
ENCODING 11089
SWIDTH 2000 0
DWIDTH 20 0
BBX 17 10 3 3
BITMAP
000780
000680
000680
180780
0E3000
1C1800
180E00
300E00
600700
C00300
ENDCHAR
STARTCHAR C025522
ENCODING 11090
SWIDTH 2000 0
DWIDTH 20 0
BBX 11 13 6 0
BITMAP
C000
C000
C000
C000
CFC0
FC00
C000
C000
C000
C000
C000
60E0
3FE0
ENDCHAR
STARTCHAR C025523
ENCODING 11091
SWIDTH 2000 0
DWIDTH 20 0
BBX 13 13 6 0
BITMAP
C060
C038
C078
C030
CFC0
FC00
C000
C000
C000
C000
C000
60E0
3FE0
ENDCHAR
STARTCHAR C025524
ENCODING 11092
SWIDTH 2000 0
DWIDTH 20 0
BBX 13 14 6 0
BITMAP
0078
C0D8
C0D8
C078
C000
CFC0
FC00
C000
C000
C000
C000
C000
60E0
3FE0
ENDCHAR
STARTCHAR C025525
ENCODING 11093
SWIDTH 2000 0
DWIDTH 20 0
BBX 15 13 3 0
BITMAP
C000
FFFC
780E
001C
0018
0038
0030
0060
00E0
01C0
0180
0300
0E00
ENDCHAR
STARTCHAR C025526
ENCODING 11094
SWIDTH 2000 0
DWIDTH 20 0
BBX 17 14 3 0
BITMAP
000180
000780
FFFF00
701C00
001800
003800
003000
007000
006000
00C000
018000
030000
060000
0C0000
ENDCHAR
STARTCHAR C025527
ENCODING 11095
SWIDTH 2000 0
DWIDTH 20 0
BBX 18 15 2 0
BITMAP
0001C0
000340
C00340
7FFDC0
780E00
000C00
001800
003800
003000
007000
00E000
00C000
018000
030000
0E0000
ENDCHAR
STARTCHAR C025530
ENCODING 11096
SWIDTH 2000 0
DWIDTH 20 0
BBX 18 8 1 2
BITMAP
078000
0CC000
D87000
701800
000E00
000780
0003C0
0000C0
ENDCHAR
STARTCHAR C025531
ENCODING 11097
SWIDTH 2000 0
DWIDTH 20 0
BBX 18 10 1 2
BITMAP
000180
0007C0
078300
0CC000
D87000
701800
000E00
000780
0003C0
0000C0
ENDCHAR
STARTCHAR C025532
ENCODING 11098
SWIDTH 2000 0
DWIDTH 20 0
BBX 18 10 1 2
BITMAP
000F00
000D80
078D80
0CE780
F87000
701800
000E00
000780
0001C0
0000C0
ENDCHAR
STARTCHAR C025533
ENCODING 11099
SWIDTH 2000 0
DWIDTH 20 0
BBX 15 14 3 -1
BITMAP
0380
0180
0180
0180
7FFE
3180
0180
01B0
6198
618C
E18E
E18E
0380
0180
ENDCHAR
STARTCHAR C025534
ENCODING 11100
SWIDTH 2000 0
DWIDTH 20 0
BBX 17 14 3 -1
BITMAP
070600
030F80
030600
030000
FFFC00
630000
030000
033000
631800
631C00
E30E00
E30E00
070000
030000
ENDCHAR
STARTCHAR C025535
ENCODING 11101
SWIDTH 2000 0
DWIDTH 20 0
BBX 16 16 3 -1
BITMAP
001E
001B
039B
018F
0180
0180
7FFE
3180
0180
01B0
6198
618C
E18E
E18E
0380
0180
ENDCHAR
STARTCHAR C025536
ENCODING 11102
SWIDTH 2000 0
DWIDTH 20 0
BBX 17 9 2 2
BITMAP
003F00
CFE380
FC0780
000E00
063800
03E000
01C000
00E000
00E000
ENDCHAR
STARTCHAR C025537
ENCODING 11103
SWIDTH 2000 0
DWIDTH 20 0
BBX 9 14 6 -1
BITMAP
7000
1E00
0700
0000
0000
7000
1E00
0700
0000
0000
E000
3E00
0780
0180
ENDCHAR
STARTCHAR C025540
ENCODING 11104
SWIDTH 2000 0
DWIDTH 20 0
BBX 15 11 3 1
BITMAP
0180
01C0
0380
0300
0700
0660
0E30
0C18
180C
D9FE
7F06
ENDCHAR
STARTCHAR C025541
ENCODING 11105
SWIDTH 2000 0
DWIDTH 20 0
BBX 12 12 5 0
BITMAP
0070
0070
00E0
00C0
0F80
0780
0780
0FC0
1CC0
3800
6000
C000
ENDCHAR
STARTCHAR C025542
ENCODING 11106
SWIDTH 2000 0
DWIDTH 20 0
BBX 14 12 4 0
BITMAP
6FF0
3800
0E00
0700
0600
07FC
FE00
0600
0600
0600
0600
03FC
ENDCHAR
STARTCHAR C025543
ENCODING 11107
SWIDTH 2000 0
DWIDTH 20 0
BBX 13 11 4 -2
BITMAP
1C00
0C00
0CF8
1FB8
F660
0600
0600
0300
0300
0300
0300
ENDCHAR
STARTCHAR C025544
ENCODING 11108
SWIDTH 2000 0
DWIDTH 20 0
BBX 17 13 2 0
BITMAP
0F0000
070000
030F00
03FB80
0F8780
F98C00
618000
018000
018000
00C000
00C000
00E000
00E000
ENDCHAR
STARTCHAR C025545
ENCODING 11109
SWIDTH 2000 0
DWIDTH 20 0
BBX 13 7 4 -2
BITMAP
3FC0
01C0
0180
0180
0300
FFF8
E018
ENDCHAR
STARTCHAR C025546
ENCODING 11110
SWIDTH 2000 0
DWIDTH 20 0
BBX 17 9 2 2
BITMAP
183000
1FF800
003000
003000
007000
006000
006000
FFFF80
700380
ENDCHAR
STARTCHAR C025547
ENCODING 11111
SWIDTH 2000 0
DWIDTH 20 0
BBX 9 8 6 -1
BITMAP
DF80
7180
0180
0F80
7B00
0300
0300
FF00
ENDCHAR
STARTCHAR C025550
ENCODING 11112
SWIDTH 2000 0
DWIDTH 20 0
BBX 12 10 5 1
BITMAP
FFE0
0070
0060
0060
FFE0
60E0
00C0
00C0
00C0
FFC0
ENDCHAR
STARTCHAR C025551
ENCODING 11113
SWIDTH 2000 0
DWIDTH 20 0
BBX 13 14 4 -1
BITMAP
3FF0
1800
0000
00F0
FFB8
6070
0070
00E0
00C0
0180
0300
0600
0C00
1800
ENDCHAR
STARTCHAR C025552
ENCODING 11114
SWIDTH 2000 0
DWIDTH 20 0
BBX 8 15 7 -1
BITMAP
06
C3
C3
C3
C3
C3
C3
C3
C3
C3
03
06
06
0C
18
ENDCHAR
STARTCHAR C025553
ENCODING 11115
SWIDTH 2000 0
DWIDTH 20 0
BBX 16 11 2 1
BITMAP
01C0
18E0
1CC0
1CC0
1CC0
18C3
18C7
30CE
30F8
60F0
C0C0
ENDCHAR
STARTCHAR C025554
ENCODING 11116
SWIDTH 2000 0
DWIDTH 20 0
BBX 12 11 5 1
BITMAP
C000
6000
6000
6000
6070
60C0
6180
6700
6E00
7800
7000
ENDCHAR
STARTCHAR C025555
ENCODING 11117
SWIDTH 2000 0
DWIDTH 20 0
BBX 13 10 4 1
BITMAP
FFF0
E038
6070
6070
6070
6060
6060
7FE0
6000
6000
ENDCHAR
STARTCHAR C025556
ENCODING 11118
SWIDTH 2000 0
DWIDTH 20 0
BBX 11 9 5 -1
BITMAP
FFE0
C0E0
C0C0
C1C0
E180
0300
0300
0600
0C00
ENDCHAR
STARTCHAR C025557
ENCODING 11119
SWIDTH 2000 0
DWIDTH 20 0
BBX 14 12 4 0
BITMAP
FFF8
C03C
E038
E030
E070
E060
60E0
00C0
0180
0300
0600
0C00
ENDCHAR
STARTCHAR C025560
ENCODING 11120
SWIDTH 2000 0
DWIDTH 20 0
BBX 16 17 2 -2
BITMAP
00C0
0070
0060
0060
1FFC
0C60
0060
1C60
0C60
0C60
DFFF
7860
0060
0060
0060
0060
0060
ENDCHAR
STARTCHAR C025561
ENCODING 11121
SWIDTH 2000 0
DWIDTH 20 0
BBX 17 10 2 2
BITMAP
007800
1FDC00
003800
03E000
01C000
018000
018000
018000
CFFF00
780380
ENDCHAR
STARTCHAR C025562
ENCODING 11122
SWIDTH 2000 0
DWIDTH 20 0
BBX 13 13 4 -1
BITMAP
67F0
3C38
0030
0070
FFE0
7860
00C0
01C0
0180
0300
0600
0C00
3800
ENDCHAR
STARTCHAR C025563
ENCODING 11123
SWIDTH 2000 0
DWIDTH 20 0
BBX 12 11 5 1
BITMAP
C000
7000
3800
0030
0060
00C0
0180
0700
1E00
F800
F000
ENDCHAR
STARTCHAR C025564
ENCODING 11124
SWIDTH 2000 0
DWIDTH 20 0
BBX 16 15 4 -1
BITMAP
0E00
070F
0707
FFF8
E01C
C038
C030
E030
E060
00E0
00C0
0180
0300
0600
0C00
ENDCHAR
STARTCHAR C025565
ENCODING 11125
SWIDTH 2000 0
DWIDTH 20 0
BBX 10 11 6 -2
BITMAP
0C00
0C00
0D80
FFC0
1980
3980
3180
6380
C300
0F00
0600
ENDCHAR
STARTCHAR C025566
ENCODING 11126
SWIDTH 2000 0
DWIDTH 20 0
BBX 11 10 5 -2
BITMAP
1800
3800
33E0
7F00
C300
0700
0600
0C00
1800
3000
ENDCHAR
STARTCHAR C025567
ENCODING 11127
SWIDTH 2000 0
DWIDTH 20 0
BBX 0 0 0 0
BITMAP
ENDCHAR
STARTCHAR C025570
ENCODING 11128
SWIDTH 2000 0
DWIDTH 20 0
BBX 0 0 0 0
BITMAP
ENDCHAR
STARTCHAR C025571
ENCODING 11129
SWIDTH 2000 0
DWIDTH 20 0
BBX 1 16 20 -1
BITMAP
80
00
00
00
00
00
00
80
80
00
00
80
80
80
80
80
ENDCHAR
STARTCHAR C025572
ENCODING 11130
SWIDTH 2000 0
DWIDTH 20 0
BBX 0 0 0 0
BITMAP
ENDCHAR
STARTCHAR C025573
ENCODING 11131
SWIDTH 2000 0
DWIDTH 20 0
BBX 0 0 0 0
BITMAP
ENDCHAR
STARTCHAR C025574
ENCODING 11132
SWIDTH 2000 0
DWIDTH 20 0
BBX 0 0 0 0
BITMAP
ENDCHAR
STARTCHAR C025575
ENCODING 11133
SWIDTH 2000 0
DWIDTH 20 0
BBX 0 0 0 0
BITMAP
ENDCHAR
STARTCHAR C025576
ENCODING 11134
SWIDTH 2000 0
DWIDTH 20 0
BBX 1 10 20 6
BITMAP
80
80
00
00
00
80
80
00
80
80
ENDCHAR
STARTCHAR C025577
ENCODING 11135
SWIDTH 2000 0
DWIDTH 20 0
BBX 0 0 0 0
BITMAP
ENDCHAR
STARTCHAR C026040
ENCODING 11296
SWIDTH 2000 0
DWIDTH 20 0
BBX 1 1 20 0
BITMAP
80
ENDCHAR
STARTCHAR C026041
ENCODING 11297
SWIDTH 2000 0
DWIDTH 20 0
BBX 16 14 2 0
BITMAP
0180
0180
03C0
03C0
0660
0660
0C30
0C30
1838
1FF8
181C
300C
600C
F83F
ENDCHAR
STARTCHAR C026042
ENCODING 11298
SWIDTH 2000 0
DWIDTH 20 0
BBX 13 14 4 0
BITMAP
7FF0
1830
1830
1818
1800
1800
1800
1FC0
1860
1830
1830
1830
1860
FFC0
ENDCHAR
STARTCHAR C026043
ENCODING 11299
SWIDTH 2000 0
DWIDTH 20 0
BBX 12 14 4 0
BITMAP
FF80
30E0
3060
3060
3060
30E0
3FC0
30E0
3060
3030
3030
3030
30E0
FFC0
ENDCHAR
STARTCHAR C026044
ENCODING 11300
SWIDTH 2000 0
DWIDTH 20 0
BBX 13 14 4 0
BITMAP
FFF0
3030
3018
3018
3000
3000
3000
3000
3000
3000
3000
3000
3000
FC00
ENDCHAR
STARTCHAR C026045
ENCODING 11301
SWIDTH 2000 0
DWIDTH 20 0
BBX 16 17 3 -3
BITMAP
1FFF
061C
0618
0618
0618
0618
0C18
0C18
0C18
1818
1818
3018
3018
7FFC
E006
C003
C003
ENDCHAR
STARTCHAR C026046
ENCODING 11302
SWIDTH 2000 0
DWIDTH 20 0
BBX 13 14 4 0
BITMAP
FFE0
3070
3030
3030
3000
3000
30C0
3FC0
3000
3000
3000
3018
3030
FFF0
ENDCHAR
STARTCHAR C026047
ENCODING 11303
SWIDTH 2000 0
DWIDTH 20 0
BBX 13 15 4 0
BITMAP
38E0
38E0
FFF0
3070
3030
3000
3060
3060
3FE0
3060
3060
3000
3018
3030
FFF0
ENDCHAR
STARTCHAR C026050
ENCODING 11304
SWIDTH 2000 0
DWIDTH 20 0
BBX 19 14 1 0
BITMAP
E7FBC0
F8C3E0
18C600
18CC00
0CCC00
0CCC00
06D800
07F800
0EDC00
1CCE00
1CCE00
38C700
30C380
F3F3C0
ENDCHAR
STARTCHAR C026051
ENCODING 11305
SWIDTH 2000 0
DWIDTH 20 0
BBX 9 15 6 -1
BITMAP
CC00
FF00
C180
C180
0180
0380
0700
3E00
0700
0180
0180
0180
0180
E380
3E00
ENDCHAR
STARTCHAR C026052
ENCODING 11306
SWIDTH 2000 0
DWIDTH 20 0
BBX 15 14 3 0
BITMAP
FC7E
3018
3018
3078
30D8
30D8
3198
3318
3618
3C18
3818
3818
3018
FC7E
ENDCHAR
STARTCHAR C026053
ENCODING 11307
SWIDTH 2000 0
DWIDTH 20 0
BBX 15 15 3 0
BITMAP
0EF0
0FE0
0000
783C
3018
3038
3078
30D8
3198
3318
3618
3C18
3818
3018
FC7E
ENDCHAR
STARTCHAR C026054
ENCODING 11308
SWIDTH 2000 0
DWIDTH 20 0
BBX 14 14 3 0
BITMAP
FC3C
307C
30C0
30C0
3180
3180
3300
3F00
3380
31C0
30E0
3060
3070
FC3C
ENDCHAR
STARTCHAR C026055
ENCODING 11309
SWIDTH 2000 0
DWIDTH 20 0
BBX 15 14 3 0
BITMAP
1FFE
0618
0618
0618
0618
0618
0618
0618
0618
0618
0C18
0C18
EC18
F87E
ENDCHAR
STARTCHAR C026056
ENCODING 11310
SWIDTH 2000 0
DWIDTH 20 0
BBX 19 14 1 0
BITMAP
7001E0
380380
380380
3C0780
360780
360D80
330D80
331980
319980
31B180
30F180
30E180
306180
FC07E0
ENDCHAR
STARTCHAR C026057
ENCODING 11311
SWIDTH 2000 0
DWIDTH 20 0
BBX 15 14 3 0
BITMAP
FC7E
3018
3018
3018
3018
3018
3FF8
3018
3018
3018
3018
3018
3018
FC7E
ENDCHAR
STARTCHAR C026060
ENCODING 11312
SWIDTH 2000 0
DWIDTH 20 0
BBX 13 14 4 0
BITMAP
1F80
38E0
7070
6030
C018
C018
C018
C018
C018
C018
6030
7030
38E0
0F80
ENDCHAR
STARTCHAR C026061
ENCODING 11313
SWIDTH 2000 0
DWIDTH 20 0
BBX 15 14 3 0
BITMAP
FFFE
3018
3018
3018
3018
3018
3018
3018
3018
3018
3018
3018
3018
FC3E
ENDCHAR
STARTCHAR C026062
ENCODING 11314
SWIDTH 2000 0
DWIDTH 20 0
BBX 12 14 5 0
BITMAP
7FC0
3060
3030
3030
3030
3030
30E0
3FC0
3000
3000
3000
3000
3000
FC00
ENDCHAR
STARTCHAR C026063
ENCODING 11315
SWIDTH 2000 0
DWIDTH 20 0
BBX 13 15 4 -1
BITMAP
0FC0
3878
7018
6018
E000
C000
C000
C000
C000
C000
6000
6000
3830
1EE0
0380
ENDCHAR
STARTCHAR C026064
ENCODING 11316
SWIDTH 2000 0
DWIDTH 20 0
BBX 13 14 4 0
BITMAP
FFF8
C618
0618
0600
0600
0600
0600
0600
0600
0600
0600
0600
0600
1F00
ENDCHAR
STARTCHAR C026065
ENCODING 11317
SWIDTH 2000 0
DWIDTH 20 0
BBX 16 14 3 0
BITMAP
FC3F
300C
380C
1818
1C30
0C30
0E60
0660
07C0
03C0
0180
0180
3B00
3E00
ENDCHAR
STARTCHAR C026066
ENCODING 11318
SWIDTH 2000 0
DWIDTH 20 0
BBX 15 14 3 0
BITMAP
07E0
0180
0F80
39F8
618C
C186
C186
C186
C186
618E
399C
0FF0
0180
07C0
ENDCHAR
STARTCHAR C026067
ENCODING 11319
SWIDTH 2000 0
DWIDTH 20 0
BBX 16 14 2 0
BITMAP
7E1F
0C0C
0C18
0630
0330
01E0
01C0
01C0
0360
0670
0C30
1818
300C
F83F
ENDCHAR
STARTCHAR C026070
ENCODING 11320
SWIDTH 2000 0
DWIDTH 20 0
BBX 16 17 3 -3
BITMAP
FC7E
3018
3018
3018
3018
3018
3018
3018
3018
3018
3018
3018
3018
FFFC
0006
0006
0003
ENDCHAR
STARTCHAR C026071
ENCODING 11321
SWIDTH 2000 0
DWIDTH 20 0
BBX 14 14 3 0
BITMAP
FCFC
3030
3030
3030
3030
3030
3030
3070
1DF0
0730
0030
0030
0030
00FC
ENDCHAR
STARTCHAR C026072
ENCODING 11322
SWIDTH 2000 0
DWIDTH 20 0
BBX 19 14 1 0
BITMAP
FFF7E0
30C180
30C180
30C180
30C180
30C180
30C180
30C180
30C180
30C180
30C180
30C180
30C180
FFFFE0
ENDCHAR
STARTCHAR C026073
ENCODING 11323
SWIDTH 2000 0
DWIDTH 20 0
BBX 19 18 1 -4
BITMAP
FFF7E0
30C180
30C180
30C180
30C180
30C180
30C180
30C180
30C180
30C180
30C180
30C180
30C180
FFFFC0
000060
000060
000060
000020
ENDCHAR
STARTCHAR C026074
ENCODING 11324
SWIDTH 2000 0
DWIDTH 20 0
BBX 15 14 3 0
BITMAP
FF80
C600
C600
0600
0600
0600
0600
07F8
061C
0606
0606
0606
061C
1FF8
ENDCHAR
STARTCHAR C026075
ENCODING 11325
SWIDTH 2000 0
DWIDTH 20 0
BBX 19 14 1 0
BITMAP
FC07E0
300180
300180
300180
300180
300180
300180
3FC180
306180
303180
303180
303180
307180
FFC7E0
ENDCHAR
STARTCHAR C026076
ENCODING 11326
SWIDTH 2000 0
DWIDTH 20 0
BBX 11 14 5 0
BITMAP
FC00
3000
3000
3000
3000
3000
3000
3FC0
30E0
3060
3060
3060
30C0
FF80
ENDCHAR
STARTCHAR C026077
ENCODING 11327
SWIDTH 2000 0
DWIDTH 20 0
BBX 13 15 4 -1
BITMAP
C700
FDE0
E070
C030
C018
0018
0018
0FF8
0018
0018
0018
0030
C070
70E0
1F80
ENDCHAR
STARTCHAR C026100
ENCODING 11328
SWIDTH 2000 0
DWIDTH 20 0
BBX 19 15 1 -1
BITMAP
FC3E00
30E380
31C1C0
3180C0
338060
330060
3F0060
330060
330060
330060
318060
3180C0
30C1C0
FCE380
003E00
ENDCHAR
STARTCHAR C026101
ENCODING 11329
SWIDTH 2000 0
DWIDTH 20 0
BBX 14 14 3 0
BITMAP
07FC
0E30
1830
1830
1830
1830
0E30
03F0
0730
0630
0C30
1C30
3830
F0FC
ENDCHAR
STARTCHAR C026102
ENCODING 11330
SWIDTH 2000 0
DWIDTH 20 0
BBX 0 0 0 0
BITMAP
ENDCHAR
STARTCHAR C026103
ENCODING 11331
SWIDTH 2000 0
DWIDTH 20 0
BBX 0 0 0 0
BITMAP
ENDCHAR
STARTCHAR C026104
ENCODING 11332
SWIDTH 2000 0
DWIDTH 20 0
BBX 0 0 0 0
BITMAP
ENDCHAR
STARTCHAR C026105
ENCODING 11333
SWIDTH 2000 0
DWIDTH 20 0
BBX 0 0 0 0
BITMAP
ENDCHAR
STARTCHAR C026106
ENCODING 11334
SWIDTH 2000 0
DWIDTH 20 0
BBX 1 16 20 -1
BITMAP
80
00
00
00
00
00
00
80
80
00
00
80
80
80
80
80
ENDCHAR
STARTCHAR C026107
ENCODING 11335
SWIDTH 2000 0
DWIDTH 20 0
BBX 0 0 0 0
BITMAP
ENDCHAR
STARTCHAR C026110
ENCODING 11336
SWIDTH 2000 0
DWIDTH 20 0
BBX 0 0 0 0
BITMAP
ENDCHAR
STARTCHAR C026111
ENCODING 11337
SWIDTH 2000 0
DWIDTH 20 0
BBX 0 0 0 0
BITMAP
ENDCHAR
STARTCHAR C026112
ENCODING 11338
SWIDTH 2000 0
DWIDTH 20 0
BBX 0 0 0 0
BITMAP
ENDCHAR
STARTCHAR C026113
ENCODING 11339
SWIDTH 2000 0
DWIDTH 20 0
BBX 1 10 20 6
BITMAP
80
80
00
00
00
80
80
00
80
80
ENDCHAR
STARTCHAR C026114
ENCODING 11340
SWIDTH 2000 0
DWIDTH 20 0
BBX 0 0 0 0
BITMAP
ENDCHAR
STARTCHAR C026115
ENCODING 11341
SWIDTH 2000 0
DWIDTH 20 0
BBX 0 0 0 0
BITMAP
ENDCHAR
STARTCHAR C026116
ENCODING 11342
SWIDTH 2000 0
DWIDTH 20 0
BBX 0 0 0 0
BITMAP
ENDCHAR
STARTCHAR C026117
ENCODING 11343
SWIDTH 2000 0
DWIDTH 20 0
BBX 0 0 0 0
BITMAP
ENDCHAR
STARTCHAR C026120
ENCODING 11344
SWIDTH 2000 0
DWIDTH 20 0
BBX 1 9 20 -3
BITMAP
80
00
00
00
00
00
00
00
80
ENDCHAR
STARTCHAR C026121
ENCODING 11345
SWIDTH 2000 0
DWIDTH 20 0
BBX 10 9 5 0
BITMAP
3F00
6300
6300
0700
3F00
6300
E300
E300
7FC0
ENDCHAR
STARTCHAR C026122
ENCODING 11346
SWIDTH 2000 0
DWIDTH 20 0
BBX 10 13 5 0
BITMAP
1F80
3000
6000
C000
FF00
E180
C0C0
C0C0
C0C0
C0C0
E1C0
7380
3F00
ENDCHAR
STARTCHAR C026123
ENCODING 11347
SWIDTH 2000 0
DWIDTH 20 0
BBX 9 9 6 0
BITMAP
FF00
6380
6180
6300
7F00
6380
6380
6380
FF00
ENDCHAR
STARTCHAR C026124
ENCODING 11348
SWIDTH 2000 0
DWIDTH 20 0
BBX 9 9 6 0
BITMAP
FF80
3180
3180
3000
3000
3000
3000
3000
FC00
ENDCHAR
STARTCHAR C026125
ENCODING 11349
SWIDTH 2000 0
DWIDTH 20 0
BBX 12 11 4 -2
BITMAP
3FF0
0CC0
0CC0
0CC0
18C0
18C0
18C0
30C0
3FC0
6070
C030
ENDCHAR
STARTCHAR C026126
ENCODING 11350
SWIDTH 2000 0
DWIDTH 20 0
BBX 9 10 6 -1
BITMAP
3C00
6700
C300
FF80
C000
C000
C180
E180
7300
3E00
ENDCHAR
STARTCHAR C026127
ENCODING 11351
SWIDTH 2000 0
DWIDTH 20 0
BBX 9 13 6 -1
BITMAP
3600
3600
0000
3C00
6700
C300
FF80
C000
C000
C000
6180
7300
1E00
ENDCHAR
STARTCHAR C026130
ENCODING 11352
SWIDTH 2000 0
DWIDTH 20 0
BBX 14 9 3 0
BITMAP
FF9C
F33C
1B60
1BC0
1FE0
1B60
3330
7338
E79C
ENDCHAR
STARTCHAR C026131
ENCODING 11353
SWIDTH 2000 0
DWIDTH 20 0
BBX 9 10 6 -1
BITMAP
7E00
6300
0300
0600
0E00
0300
0380
C380
6700
3C00
ENDCHAR
STARTCHAR C026132
ENCODING 11354
SWIDTH 2000 0
DWIDTH 20 0
BBX 11 9 5 0
BITMAP
FFE0
3180
3180
3780
3D80
3D80
3980
3180
FBC0
ENDCHAR
STARTCHAR C026133
ENCODING 11355
SWIDTH 2000 0
DWIDTH 20 0
BBX 11 12 5 0
BITMAP
7380
3B80
1E00
FFE0
3180
3180
3780
3D80
3D80
3980
3180
FFC0
ENDCHAR
STARTCHAR C026134
ENCODING 11356
SWIDTH 2000 0
DWIDTH 20 0
BBX 10 9 5 0
BITMAP
FDC0
33C0
3600
3C00
3E00
3600
3300
3380
79C0
ENDCHAR
STARTCHAR C026135
ENCODING 11357
SWIDTH 2000 0
DWIDTH 20 0
BBX 11 9 5 0
BITMAP
7FE0
1980
1980
1980
1980
1980
1980
D980
F7E0
ENDCHAR
STARTCHAR C026136
ENCODING 11358
SWIDTH 2000 0
DWIDTH 20 0
BBX 15 9 3 0
BITMAP
F03C
7038
7878
7878
6CD8
66D8
6798
6318
F33E
ENDCHAR
STARTCHAR C026137
ENCODING 11359
SWIDTH 2000 0
DWIDTH 20 0
BBX 11 9 5 0
BITMAP
FFE0
3180
3180
3180
3F80
3180
3180
3180
FBC0
ENDCHAR
STARTCHAR C026140
ENCODING 11360
SWIDTH 2000 0
DWIDTH 20 0
BBX 9 9 6 0
BITMAP
3E00
6300
C180
C180
C180
C180
C180
6300
3E00
ENDCHAR
STARTCHAR C026141
ENCODING 11361
SWIDTH 2000 0
DWIDTH 20 0
BBX 10 9 5 0
BITMAP
FFC0
3180
3180
3180
3180
3180
3180
3180
FBC0
ENDCHAR
STARTCHAR C026142
ENCODING 11362
SWIDTH 2000 0
DWIDTH 20 0
BBX 11 13 5 -4
BITMAP
FF80
38C0
3060
3060
3060
3060
3060
30C0
3980
3F00
3000
3000
FC00
ENDCHAR
STARTCHAR C026143
ENCODING 11363
SWIDTH 2000 0
DWIDTH 20 0
BBX 9 10 6 -1
BITMAP
1E00
7300
6380
C000
C000
C000
C000
E180
7300
3E00
ENDCHAR
STARTCHAR C026144
ENCODING 11364
SWIDTH 2000 0
DWIDTH 20 0
BBX 10 9 5 0
BITMAP
FFC0
CCC0
0C00
0C00
0C00
0C00
0C00
0C00
3F00
ENDCHAR
STARTCHAR C026145
ENCODING 11365
SWIDTH 2000 0
DWIDTH 20 0
BBX 11 13 5 -4
BITMAP
F9E0
70C0
3180
3980
1B00
1F00
0F00
0E00
0600
0C00
0C00
7800
7000
ENDCHAR
STARTCHAR C026146
ENCODING 11366
SWIDTH 2000 0
DWIDTH 20 0
BBX 13 17 4 -4
BITMAP
0F00
0300
0300
0300
1BC0
7F70
6318
C318
C318
C318
E318
6338
77F0
3FE0
0300
0300
0F80
ENDCHAR
STARTCHAR C026147
ENCODING 11367
SWIDTH 2000 0
DWIDTH 20 0
BBX 9 9 6 0
BITMAP
F780
7600
3C00
1C00
1C00
3C00
6600
6700
E780
ENDCHAR
STARTCHAR C026150
ENCODING 11368
SWIDTH 2000 0
DWIDTH 20 0
BBX 12 12 4 -3
BITMAP
FFF0
30C0
30C0
30C0
30C0
30C0
30C0
30C0
FFC0
0070
0030
0030
ENDCHAR
STARTCHAR C026151
ENCODING 11369
SWIDTH 2000 0
DWIDTH 20 0
BBX 11 9 5 0
BITMAP
FFE0
3180
3180
3180
3380
1F80
0180
0180
03C0
ENDCHAR
STARTCHAR C026152
ENCODING 11370
SWIDTH 2000 0
DWIDTH 20 0
BBX 17 9 2 0
BITMAP
FFFF80
30C600
30C600
30C600
30C600
30C600
30C600
30C600
7FFF00
ENDCHAR
STARTCHAR C026153
ENCODING 11371
SWIDTH 2000 0
DWIDTH 20 0
BBX 17 12 2 -3
BITMAP
FFFF80
318600
318600
318600
318600
318600
318600
318600
7FFF00
000180
000180
000180
ENDCHAR
STARTCHAR C026154
ENCODING 11372
SWIDTH 2000 0
DWIDTH 20 0
BBX 11 9 5 0
BITMAP
FE00
D800
1800
1800
1FC0
18E0
1860
18E0
3FC0
ENDCHAR
STARTCHAR C026155
ENCODING 11373
SWIDTH 2000 0
DWIDTH 20 0
BBX 15 10 3 -1
BITMAP
FC7E
3018
3018
3018
3F18
3198
3198
3198
FF3C
1800
ENDCHAR
STARTCHAR C026156
ENCODING 11374
SWIDTH 2000 0
DWIDTH 20 0
BBX 9 9 6 0
BITMAP
FC00
3000
3000
3000
3F00
3180
3180
3180
FF00
ENDCHAR
STARTCHAR C026157
ENCODING 11375
SWIDTH 2000 0
DWIDTH 20 0
BBX 8 10 7 0
BITMAP
3C
E6
03
03
3F
03
03
07
C6
7C
ENDCHAR
STARTCHAR C026160
ENCODING 11376
SWIDTH 2000 0
DWIDTH 20 0
BBX 15 10 3 -1
BITMAP
F9F8
630C
660C
6606
7E06
6606
6606
630C
F198
00F0
ENDCHAR
STARTCHAR C026161
ENCODING 11377
SWIDTH 2000 0
DWIDTH 20 0
BBX 10 9 6 0
BITMAP
3F80
7300
6300
7300
1F00
1B00
3300
7300
E7C0
ENDCHAR
STARTCHAR C026162
ENCODING 11378
SWIDTH 2000 0
DWIDTH 20 0
BBX 0 0 0 0
BITMAP
ENDCHAR
STARTCHAR C026163
ENCODING 11379
SWIDTH 2000 0
DWIDTH 20 0
BBX 1 16 20 -1
BITMAP
80
00
00
00
00
00
00
80
80
00
00
80
80
80
80
80
ENDCHAR
STARTCHAR C026164
ENCODING 11380
SWIDTH 2000 0
DWIDTH 20 0
BBX 0 0 0 0
BITMAP
ENDCHAR
STARTCHAR C026165
ENCODING 11381
SWIDTH 2000 0
DWIDTH 20 0
BBX 0 0 0 0
BITMAP
ENDCHAR
STARTCHAR C026166
ENCODING 11382
SWIDTH 2000 0
DWIDTH 20 0
BBX 0 0 0 0
BITMAP
ENDCHAR
STARTCHAR C026167
ENCODING 11383
SWIDTH 2000 0
DWIDTH 20 0
BBX 0 0 0 0
BITMAP
ENDCHAR
STARTCHAR C026170
ENCODING 11384
SWIDTH 2000 0
DWIDTH 20 0
BBX 1 10 20 6
BITMAP
80
80
00
00
00
80
80
00
80
80
ENDCHAR
STARTCHAR C026171
ENCODING 11385
SWIDTH 2000 0
DWIDTH 20 0
BBX 0 0 0 0
BITMAP
ENDCHAR
STARTCHAR C026172
ENCODING 11386
SWIDTH 2000 0
DWIDTH 20 0
BBX 0 0 0 0
BITMAP
ENDCHAR
STARTCHAR C026173
ENCODING 11387
SWIDTH 2000 0
DWIDTH 20 0
BBX 0 0 0 0
BITMAP
ENDCHAR
STARTCHAR C026174
ENCODING 11388
SWIDTH 2000 0
DWIDTH 20 0
BBX 0 0 0 0
BITMAP
ENDCHAR
STARTCHAR C026175
ENCODING 11389
SWIDTH 2000 0
DWIDTH 20 0
BBX 1 9 20 -3
BITMAP
80
00
00
00
00
00
00
00
80
ENDCHAR
STARTCHAR C026176
ENCODING 11390
SWIDTH 2000 0
DWIDTH 20 0
BBX 0 0 0 0
BITMAP
ENDCHAR
STARTCHAR C026177
ENCODING 11391
SWIDTH 2000 0
DWIDTH 20 0
BBX 0 0 0 0
BITMAP
ENDCHAR
STARTCHAR C026440
ENCODING 11552
SWIDTH 2000 0
DWIDTH 20 0
BBX 0 0 0 0
BITMAP
ENDCHAR
STARTCHAR C026441
ENCODING 11553
SWIDTH 2000 0
DWIDTH 20 0
BBX 0 0 0 0
BITMAP
ENDCHAR
STARTCHAR C026442
ENCODING 11554
SWIDTH 2000 0
DWIDTH 20 0
BBX 1 16 20 -1
BITMAP
80
00
00
00
00
00
00
80
80
00
00
80
80
80
80
80
ENDCHAR
STARTCHAR C026443
ENCODING 11555
SWIDTH 2000 0
DWIDTH 20 0
BBX 0 0 0 0
BITMAP
ENDCHAR
STARTCHAR C026444
ENCODING 11556
SWIDTH 2000 0
DWIDTH 20 0
BBX 0 0 0 0
BITMAP
ENDCHAR
STARTCHAR C026445
ENCODING 11557
SWIDTH 2000 0
DWIDTH 20 0
BBX 0 0 0 0
BITMAP
ENDCHAR
STARTCHAR C026446
ENCODING 11558
SWIDTH 2000 0
DWIDTH 20 0
BBX 0 0 0 0
BITMAP
ENDCHAR
STARTCHAR C026447
ENCODING 11559
SWIDTH 2000 0
DWIDTH 20 0
BBX 1 10 20 6
BITMAP
80
80
00
00
00
80
80
00
80
80
ENDCHAR
STARTCHAR C026450
ENCODING 11560
SWIDTH 2000 0
DWIDTH 20 0
BBX 0 0 0 0
BITMAP
ENDCHAR
STARTCHAR C026451
ENCODING 11561
SWIDTH 2000 0
DWIDTH 20 0
BBX 0 0 0 0
BITMAP
ENDCHAR
STARTCHAR C026452
ENCODING 11562
SWIDTH 2000 0
DWIDTH 20 0
BBX 0 0 0 0
BITMAP
ENDCHAR
STARTCHAR C026453
ENCODING 11563
SWIDTH 2000 0
DWIDTH 20 0
BBX 0 0 0 0
BITMAP
ENDCHAR
STARTCHAR C026454
ENCODING 11564
SWIDTH 2000 0
DWIDTH 20 0
BBX 1 9 20 -3
BITMAP
80
00
00
00
00
00
00
00
80
ENDCHAR
STARTCHAR C026455
ENCODING 11565
SWIDTH 2000 0
DWIDTH 20 0
BBX 0 0 0 0
BITMAP
ENDCHAR
STARTCHAR C026456
ENCODING 11566
SWIDTH 2000 0
DWIDTH 20 0
BBX 0 0 0 0
BITMAP
ENDCHAR
STARTCHAR C026457
ENCODING 11567
SWIDTH 2000 0
DWIDTH 20 0
BBX 0 0 0 0
BITMAP
ENDCHAR
STARTCHAR C026460
ENCODING 11568
SWIDTH 2000 0
DWIDTH 20 0
BBX 0 0 0 0
BITMAP
ENDCHAR
STARTCHAR C026461
ENCODING 11569
SWIDTH 2000 0
DWIDTH 20 0
BBX 1 16 20 -1
BITMAP
80
00
00
00
00
00
00
80
80
00
00
80
80
80
80
80
ENDCHAR
STARTCHAR C026462
ENCODING 11570
SWIDTH 2000 0
DWIDTH 20 0
BBX 0 0 0 0
BITMAP
ENDCHAR
STARTCHAR C026463
ENCODING 11571
SWIDTH 2000 0
DWIDTH 20 0
BBX 0 0 0 0
BITMAP
ENDCHAR
STARTCHAR C026464
ENCODING 11572
SWIDTH 2000 0
DWIDTH 20 0
BBX 0 0 0 0
BITMAP
ENDCHAR
STARTCHAR C026465
ENCODING 11573
SWIDTH 2000 0
DWIDTH 20 0
BBX 0 0 0 0
BITMAP
ENDCHAR
STARTCHAR C026466
ENCODING 11574
SWIDTH 2000 0
DWIDTH 20 0
BBX 1 10 20 6
BITMAP
80
80
00
00
00
80
80
00
80
80
ENDCHAR
STARTCHAR C026467
ENCODING 11575
SWIDTH 2000 0
DWIDTH 20 0
BBX 0 0 0 0
BITMAP
ENDCHAR
STARTCHAR C026470
ENCODING 11576
SWIDTH 2000 0
DWIDTH 20 0
BBX 0 0 0 0
BITMAP
ENDCHAR
STARTCHAR C026471
ENCODING 11577
SWIDTH 2000 0
DWIDTH 20 0
BBX 0 0 0 0
BITMAP
ENDCHAR
STARTCHAR C026472
ENCODING 11578
SWIDTH 2000 0
DWIDTH 20 0
BBX 0 0 0 0
BITMAP
ENDCHAR
STARTCHAR C026473
ENCODING 11579
SWIDTH 2000 0
DWIDTH 20 0
BBX 1 9 20 -3
BITMAP
80
00
00
00
00
00
00
00
80
ENDCHAR
STARTCHAR C026474
ENCODING 11580
SWIDTH 2000 0
DWIDTH 20 0
BBX 0 0 0 0
BITMAP
ENDCHAR
STARTCHAR C026475
ENCODING 11581
SWIDTH 2000 0
DWIDTH 20 0
BBX 0 0 0 0
BITMAP
ENDCHAR
STARTCHAR C026476
ENCODING 11582
SWIDTH 2000 0
DWIDTH 20 0
BBX 0 0 0 0
BITMAP
ENDCHAR
STARTCHAR C026477
ENCODING 11583
SWIDTH 2000 0
DWIDTH 20 0
BBX 0 0 0 0
BITMAP
ENDCHAR
STARTCHAR C026500
ENCODING 11584
SWIDTH 2000 0
DWIDTH 20 0
BBX 1 16 20 -1
BITMAP
80
00
00
00
00
00
00
80
80
00
00
80
80
80
80
80
ENDCHAR
STARTCHAR C026501
ENCODING 11585
SWIDTH 2000 0
DWIDTH 20 0
BBX 0 0 0 0
BITMAP
ENDCHAR
STARTCHAR C026502
ENCODING 11586
SWIDTH 2000 0
DWIDTH 20 0
BBX 0 0 0 0
BITMAP
ENDCHAR
STARTCHAR C026503
ENCODING 11587
SWIDTH 2000 0
DWIDTH 20 0
BBX 0 0 0 0
BITMAP
ENDCHAR
STARTCHAR C026504
ENCODING 11588
SWIDTH 2000 0
DWIDTH 20 0
BBX 0 0 0 0
BITMAP
ENDCHAR
STARTCHAR C026505
ENCODING 11589
SWIDTH 2000 0
DWIDTH 20 0
BBX 1 10 20 6
BITMAP
80
80
00
00
00
80
80
00
80
80
ENDCHAR
STARTCHAR C026506
ENCODING 11590
SWIDTH 2000 0
DWIDTH 20 0
BBX 0 0 0 0
BITMAP
ENDCHAR
STARTCHAR C026507
ENCODING 11591
SWIDTH 2000 0
DWIDTH 20 0
BBX 0 0 0 0
BITMAP
ENDCHAR
STARTCHAR C026510
ENCODING 11592
SWIDTH 2000 0
DWIDTH 20 0
BBX 0 0 0 0
BITMAP
ENDCHAR
STARTCHAR C026511
ENCODING 11593
SWIDTH 2000 0
DWIDTH 20 0
BBX 0 0 0 0
BITMAP
ENDCHAR
STARTCHAR C026512
ENCODING 11594
SWIDTH 2000 0
DWIDTH 20 0
BBX 1 9 20 -3
BITMAP
80
00
00
00
00
00
00
00
80
ENDCHAR
STARTCHAR C026513
ENCODING 11595
SWIDTH 2000 0
DWIDTH 20 0
BBX 0 0 0 0
BITMAP
ENDCHAR
STARTCHAR C026514
ENCODING 11596
SWIDTH 2000 0
DWIDTH 20 0
BBX 0 0 0 0
BITMAP
ENDCHAR
STARTCHAR C026515
ENCODING 11597
SWIDTH 2000 0
DWIDTH 20 0
BBX 0 0 0 0
BITMAP
ENDCHAR
STARTCHAR C026516
ENCODING 11598
SWIDTH 2000 0
DWIDTH 20 0
BBX 0 0 0 0
BITMAP
ENDCHAR
STARTCHAR C026517
ENCODING 11599
SWIDTH 2000 0
DWIDTH 20 0
BBX 1 16 20 -1
BITMAP
80
00
00
00
00
00
00
80
80
00
00
80
80
80
80
80
ENDCHAR
STARTCHAR C026520
ENCODING 11600
SWIDTH 2000 0
DWIDTH 20 0
BBX 0 0 0 0
BITMAP
ENDCHAR
STARTCHAR C026521
ENCODING 11601
SWIDTH 2000 0
DWIDTH 20 0
BBX 0 0 0 0
BITMAP
ENDCHAR
STARTCHAR C026522
ENCODING 11602
SWIDTH 2000 0
DWIDTH 20 0
BBX 0 0 0 0
BITMAP
ENDCHAR
STARTCHAR C026523
ENCODING 11603
SWIDTH 2000 0
DWIDTH 20 0
BBX 0 0 0 0
BITMAP
ENDCHAR
STARTCHAR C026524
ENCODING 11604
SWIDTH 2000 0
DWIDTH 20 0
BBX 1 10 20 6
BITMAP
80
80
00
00
00
80
80
00
80
80
ENDCHAR
STARTCHAR C026525
ENCODING 11605
SWIDTH 2000 0
DWIDTH 20 0
BBX 0 0 0 0
BITMAP
ENDCHAR
STARTCHAR C026526
ENCODING 11606
SWIDTH 2000 0
DWIDTH 20 0
BBX 0 0 0 0
BITMAP
ENDCHAR
STARTCHAR C026527
ENCODING 11607
SWIDTH 2000 0
DWIDTH 20 0
BBX 0 0 0 0
BITMAP
ENDCHAR
STARTCHAR C026530
ENCODING 11608
SWIDTH 2000 0
DWIDTH 20 0
BBX 0 0 0 0
BITMAP
ENDCHAR
STARTCHAR C026531
ENCODING 11609
SWIDTH 2000 0
DWIDTH 20 0
BBX 1 9 20 -3
BITMAP
80
00
00
00
00
00
00
00
80
ENDCHAR
STARTCHAR C026532
ENCODING 11610
SWIDTH 2000 0
DWIDTH 20 0
BBX 0 0 0 0
BITMAP
ENDCHAR
STARTCHAR C026533
ENCODING 11611
SWIDTH 2000 0
DWIDTH 20 0
BBX 0 0 0 0
BITMAP
ENDCHAR
STARTCHAR C026534
ENCODING 11612
SWIDTH 2000 0
DWIDTH 20 0
BBX 0 0 0 0
BITMAP
ENDCHAR
STARTCHAR C026535
ENCODING 11613
SWIDTH 2000 0
DWIDTH 20 0
BBX 0 0 0 0
BITMAP
ENDCHAR
STARTCHAR C026536
ENCODING 11614
SWIDTH 2000 0
DWIDTH 20 0
BBX 1 16 20 -1
BITMAP
80
00
00
00
00
00
00
80
80
00
00
80
80
80
80
80
ENDCHAR
STARTCHAR C026537
ENCODING 11615
SWIDTH 2000 0
DWIDTH 20 0
BBX 0 0 0 0
BITMAP
ENDCHAR
STARTCHAR C026540
ENCODING 11616
SWIDTH 2000 0
DWIDTH 20 0
BBX 0 0 0 0
BITMAP
ENDCHAR
STARTCHAR C026541
ENCODING 11617
SWIDTH 2000 0
DWIDTH 20 0
BBX 0 0 0 0
BITMAP
ENDCHAR
STARTCHAR C026542
ENCODING 11618
SWIDTH 2000 0
DWIDTH 20 0
BBX 0 0 0 0
BITMAP
ENDCHAR
STARTCHAR C026543
ENCODING 11619
SWIDTH 2000 0
DWIDTH 20 0
BBX 1 10 20 6
BITMAP
80
80
00
00
00
80
80
00
80
80
ENDCHAR
STARTCHAR C026544
ENCODING 11620
SWIDTH 2000 0
DWIDTH 20 0
BBX 0 0 0 0
BITMAP
ENDCHAR
STARTCHAR C026545
ENCODING 11621
SWIDTH 2000 0
DWIDTH 20 0
BBX 0 0 0 0
BITMAP
ENDCHAR
STARTCHAR C026546
ENCODING 11622
SWIDTH 2000 0
DWIDTH 20 0
BBX 0 0 0 0
BITMAP
ENDCHAR
STARTCHAR C026547
ENCODING 11623
SWIDTH 2000 0
DWIDTH 20 0
BBX 0 0 0 0
BITMAP
ENDCHAR
STARTCHAR C026550
ENCODING 11624
SWIDTH 2000 0
DWIDTH 20 0
BBX 1 9 20 -3
BITMAP
80
00
00
00
00
00
00
00
80
ENDCHAR
STARTCHAR C026551
ENCODING 11625
SWIDTH 2000 0
DWIDTH 20 0
BBX 0 0 0 0
BITMAP
ENDCHAR
STARTCHAR C026552
ENCODING 11626
SWIDTH 2000 0
DWIDTH 20 0
BBX 0 0 0 0
BITMAP
ENDCHAR
STARTCHAR C026553
ENCODING 11627
SWIDTH 2000 0
DWIDTH 20 0
BBX 0 0 0 0
BITMAP
ENDCHAR
STARTCHAR C026554
ENCODING 11628
SWIDTH 2000 0
DWIDTH 20 0
BBX 0 0 0 0
BITMAP
ENDCHAR
STARTCHAR C026555
ENCODING 11629
SWIDTH 2000 0
DWIDTH 20 0
BBX 1 16 20 -1
BITMAP
80
00
00
00
00
00
00
80
80
00
00
80
80
80
80
80
ENDCHAR
STARTCHAR C026556
ENCODING 11630
SWIDTH 2000 0
DWIDTH 20 0
BBX 0 0 0 0
BITMAP
ENDCHAR
STARTCHAR C026557
ENCODING 11631
SWIDTH 2000 0
DWIDTH 20 0
BBX 0 0 0 0
BITMAP
ENDCHAR
STARTCHAR C026560
ENCODING 11632
SWIDTH 2000 0
DWIDTH 20 0
BBX 0 0 0 0
BITMAP
ENDCHAR
STARTCHAR C026561
ENCODING 11633
SWIDTH 2000 0
DWIDTH 20 0
BBX 0 0 0 0
BITMAP
ENDCHAR
STARTCHAR C026562
ENCODING 11634
SWIDTH 2000 0
DWIDTH 20 0
BBX 1 10 20 6
BITMAP
80
80
00
00
00
80
80
00
80
80
ENDCHAR
STARTCHAR C026563
ENCODING 11635
SWIDTH 2000 0
DWIDTH 20 0
BBX 0 0 0 0
BITMAP
ENDCHAR
STARTCHAR C026564
ENCODING 11636
SWIDTH 2000 0
DWIDTH 20 0
BBX 0 0 0 0
BITMAP
ENDCHAR
STARTCHAR C026565
ENCODING 11637
SWIDTH 2000 0
DWIDTH 20 0
BBX 0 0 0 0
BITMAP
ENDCHAR
STARTCHAR C026566
ENCODING 11638
SWIDTH 2000 0
DWIDTH 20 0
BBX 0 0 0 0
BITMAP
ENDCHAR
STARTCHAR C026567
ENCODING 11639
SWIDTH 2000 0
DWIDTH 20 0
BBX 1 9 20 -3
BITMAP
80
00
00
00
00
00
00
00
80
ENDCHAR
STARTCHAR C026570
ENCODING 11640
SWIDTH 2000 0
DWIDTH 20 0
BBX 0 0 0 0
BITMAP
ENDCHAR
STARTCHAR C026571
ENCODING 11641
SWIDTH 2000 0
DWIDTH 20 0
BBX 0 0 0 0
BITMAP
ENDCHAR
STARTCHAR C026572
ENCODING 11642
SWIDTH 2000 0
DWIDTH 20 0
BBX 0 0 0 0
BITMAP
ENDCHAR
STARTCHAR C026573
ENCODING 11643
SWIDTH 2000 0
DWIDTH 20 0
BBX 0 0 0 0
BITMAP
ENDCHAR
STARTCHAR C026574
ENCODING 11644
SWIDTH 2000 0
DWIDTH 20 0
BBX 1 16 20 -1
BITMAP
80
00
00
00
00
00
00
80
80
00
00
80
80
80
80
80
ENDCHAR
STARTCHAR C026575
ENCODING 11645
SWIDTH 2000 0
DWIDTH 20 0
BBX 0 0 0 0
BITMAP
ENDCHAR
STARTCHAR C026576
ENCODING 11646
SWIDTH 2000 0
DWIDTH 20 0
BBX 0 0 0 0
BITMAP
ENDCHAR
STARTCHAR C026577
ENCODING 11647
SWIDTH 2000 0
DWIDTH 20 0
BBX 0 0 0 0
BITMAP
ENDCHAR
STARTCHAR C027040
ENCODING 11808
SWIDTH 2000 0
DWIDTH 20 0
BBX 0 0 0 0
BITMAP
ENDCHAR
STARTCHAR C027041
ENCODING 11809
SWIDTH 2000 0
DWIDTH 20 0
BBX 1 10 20 6
BITMAP
80
80
00
00
00
80
80
00
80
80
ENDCHAR
STARTCHAR C027042
ENCODING 11810
SWIDTH 2000 0
DWIDTH 20 0
BBX 0 0 0 0
BITMAP
ENDCHAR
STARTCHAR C027043
ENCODING 11811
SWIDTH 2000 0
DWIDTH 20 0
BBX 0 0 0 0
BITMAP
ENDCHAR
STARTCHAR C027044
ENCODING 11812
SWIDTH 2000 0
DWIDTH 20 0
BBX 0 0 0 0
BITMAP
ENDCHAR
STARTCHAR C027045
ENCODING 11813
SWIDTH 2000 0
DWIDTH 20 0
BBX 0 0 0 0
BITMAP
ENDCHAR
STARTCHAR C027046
ENCODING 11814
SWIDTH 2000 0
DWIDTH 20 0
BBX 1 9 20 -3
BITMAP
80
00
00
00
00
00
00
00
80
ENDCHAR
STARTCHAR C027047
ENCODING 11815
SWIDTH 2000 0
DWIDTH 20 0
BBX 0 0 0 0
BITMAP
ENDCHAR
STARTCHAR C027050
ENCODING 11816
SWIDTH 2000 0
DWIDTH 20 0
BBX 0 0 0 0
BITMAP
ENDCHAR
STARTCHAR C027051
ENCODING 11817
SWIDTH 2000 0
DWIDTH 20 0
BBX 0 0 0 0
BITMAP
ENDCHAR
STARTCHAR C027052
ENCODING 11818
SWIDTH 2000 0
DWIDTH 20 0
BBX 0 0 0 0
BITMAP
ENDCHAR
STARTCHAR C027053
ENCODING 11819
SWIDTH 2000 0
DWIDTH 20 0
BBX 1 16 20 -1
BITMAP
80
00
00
00
00
00
00
80
80
00
00
80
80
80
80
80
ENDCHAR
STARTCHAR C027054
ENCODING 11820
SWIDTH 2000 0
DWIDTH 20 0
BBX 0 0 0 0
BITMAP
ENDCHAR
STARTCHAR C027055
ENCODING 11821
SWIDTH 2000 0
DWIDTH 20 0
BBX 0 0 0 0
BITMAP
ENDCHAR
STARTCHAR C027056
ENCODING 11822
SWIDTH 2000 0
DWIDTH 20 0
BBX 0 0 0 0
BITMAP
ENDCHAR
STARTCHAR C027057
ENCODING 11823
SWIDTH 2000 0
DWIDTH 20 0
BBX 0 0 0 0
BITMAP
ENDCHAR
STARTCHAR C027060
ENCODING 11824
SWIDTH 2000 0
DWIDTH 20 0
BBX 1 10 20 6
BITMAP
80
80
00
00
00
80
80
00
80
80
ENDCHAR
STARTCHAR C027061
ENCODING 11825
SWIDTH 2000 0
DWIDTH 20 0
BBX 0 0 0 0
BITMAP
ENDCHAR
STARTCHAR C027062
ENCODING 11826
SWIDTH 2000 0
DWIDTH 20 0
BBX 0 0 0 0
BITMAP
ENDCHAR
STARTCHAR C027063
ENCODING 11827
SWIDTH 2000 0
DWIDTH 20 0
BBX 0 0 0 0
BITMAP
ENDCHAR
STARTCHAR C027064
ENCODING 11828
SWIDTH 2000 0
DWIDTH 20 0
BBX 0 0 0 0
BITMAP
ENDCHAR
STARTCHAR C027065
ENCODING 11829
SWIDTH 2000 0
DWIDTH 20 0
BBX 1 9 20 -3
BITMAP
80
00
00
00
00
00
00
00
80
ENDCHAR
STARTCHAR C027066
ENCODING 11830
SWIDTH 2000 0
DWIDTH 20 0
BBX 0 0 0 0
BITMAP
ENDCHAR
STARTCHAR C027067
ENCODING 11831
SWIDTH 2000 0
DWIDTH 20 0
BBX 0 0 0 0
BITMAP
ENDCHAR
STARTCHAR C027070
ENCODING 11832
SWIDTH 2000 0
DWIDTH 20 0
BBX 0 0 0 0
BITMAP
ENDCHAR
STARTCHAR C027071
ENCODING 11833
SWIDTH 2000 0
DWIDTH 20 0
BBX 0 0 0 0
BITMAP
ENDCHAR
STARTCHAR C027072
ENCODING 11834
SWIDTH 2000 0
DWIDTH 20 0
BBX 1 16 20 -1
BITMAP
80
00
00
00
00
00
00
80
80
00
00
80
80
80
80
80
ENDCHAR
STARTCHAR C027073
ENCODING 11835
SWIDTH 2000 0
DWIDTH 20 0
BBX 0 0 0 0
BITMAP
ENDCHAR
STARTCHAR C027074
ENCODING 11836
SWIDTH 2000 0
DWIDTH 20 0
BBX 0 0 0 0
BITMAP
ENDCHAR
STARTCHAR C027075
ENCODING 11837
SWIDTH 2000 0
DWIDTH 20 0
BBX 0 0 0 0
BITMAP
ENDCHAR
STARTCHAR C027076
ENCODING 11838
SWIDTH 2000 0
DWIDTH 20 0
BBX 0 0 0 0
BITMAP
ENDCHAR
STARTCHAR C027077
ENCODING 11839
SWIDTH 2000 0
DWIDTH 20 0
BBX 1 10 20 6
BITMAP
80
80
00
00
00
80
80
00
80
80
ENDCHAR
STARTCHAR C027100
ENCODING 11840
SWIDTH 2000 0
DWIDTH 20 0
BBX 0 0 0 0
BITMAP
ENDCHAR
STARTCHAR C027101
ENCODING 11841
SWIDTH 2000 0
DWIDTH 20 0
BBX 0 0 0 0
BITMAP
ENDCHAR
STARTCHAR C027102
ENCODING 11842
SWIDTH 2000 0
DWIDTH 20 0
BBX 0 0 0 0
BITMAP
ENDCHAR
STARTCHAR C027103
ENCODING 11843
SWIDTH 2000 0
DWIDTH 20 0
BBX 0 0 0 0
BITMAP
ENDCHAR
STARTCHAR C027104
ENCODING 11844
SWIDTH 2000 0
DWIDTH 20 0
BBX 1 9 20 -3
BITMAP
80
00
00
00
00
00
00
00
80
ENDCHAR
STARTCHAR C027105
ENCODING 11845
SWIDTH 2000 0
DWIDTH 20 0
BBX 0 0 0 0
BITMAP
ENDCHAR
STARTCHAR C027106
ENCODING 11846
SWIDTH 2000 0
DWIDTH 20 0
BBX 0 0 0 0
BITMAP
ENDCHAR
STARTCHAR C027107
ENCODING 11847
SWIDTH 2000 0
DWIDTH 20 0
BBX 0 0 0 0
BITMAP
ENDCHAR
STARTCHAR C027110
ENCODING 11848
SWIDTH 2000 0
DWIDTH 20 0
BBX 0 0 0 0
BITMAP
ENDCHAR
STARTCHAR C027111
ENCODING 11849
SWIDTH 2000 0
DWIDTH 20 0
BBX 1 16 20 -1
BITMAP
80
00
00
00
00
00
00
80
80
00
00
80
80
80
80
80
ENDCHAR
STARTCHAR C027112
ENCODING 11850
SWIDTH 2000 0
DWIDTH 20 0
BBX 0 0 0 0
BITMAP
ENDCHAR
STARTCHAR C027113
ENCODING 11851
SWIDTH 2000 0
DWIDTH 20 0
BBX 0 0 0 0
BITMAP
ENDCHAR
STARTCHAR C027114
ENCODING 11852
SWIDTH 2000 0
DWIDTH 20 0
BBX 0 0 0 0
BITMAP
ENDCHAR
STARTCHAR C027115
ENCODING 11853
SWIDTH 2000 0
DWIDTH 20 0
BBX 0 0 0 0
BITMAP
ENDCHAR
STARTCHAR C027116
ENCODING 11854
SWIDTH 2000 0
DWIDTH 20 0
BBX 1 10 20 6
BITMAP
80
80
00
00
00
80
80
00
80
80
ENDCHAR
STARTCHAR C027117
ENCODING 11855
SWIDTH 2000 0
DWIDTH 20 0
BBX 0 0 0 0
BITMAP
ENDCHAR
STARTCHAR C027120
ENCODING 11856
SWIDTH 2000 0
DWIDTH 20 0
BBX 0 0 0 0
BITMAP
ENDCHAR
STARTCHAR C027121
ENCODING 11857
SWIDTH 2000 0
DWIDTH 20 0
BBX 0 0 0 0
BITMAP
ENDCHAR
STARTCHAR C027122
ENCODING 11858
SWIDTH 2000 0
DWIDTH 20 0
BBX 0 0 0 0
BITMAP
ENDCHAR
STARTCHAR C027123
ENCODING 11859
SWIDTH 2000 0
DWIDTH 20 0
BBX 1 9 20 -3
BITMAP
80
00
00
00
00
00
00
00
80
ENDCHAR
STARTCHAR C027124
ENCODING 11860
SWIDTH 2000 0
DWIDTH 20 0
BBX 0 0 0 0
BITMAP
ENDCHAR
STARTCHAR C027125
ENCODING 11861
SWIDTH 2000 0
DWIDTH 20 0
BBX 0 0 0 0
BITMAP
ENDCHAR
STARTCHAR C027126
ENCODING 11862
SWIDTH 2000 0
DWIDTH 20 0
BBX 0 0 0 0
BITMAP
ENDCHAR
STARTCHAR C027127
ENCODING 11863
SWIDTH 2000 0
DWIDTH 20 0
BBX 0 0 0 0
BITMAP
ENDCHAR
STARTCHAR C027130
ENCODING 11864
SWIDTH 2000 0
DWIDTH 20 0
BBX 1 16 20 -1
BITMAP
80
00
00
00
00
00
00
80
80
00
00
80
80
80
80
80
ENDCHAR
STARTCHAR C027131
ENCODING 11865
SWIDTH 2000 0
DWIDTH 20 0
BBX 0 0 0 0
BITMAP
ENDCHAR
STARTCHAR C027132
ENCODING 11866
SWIDTH 2000 0
DWIDTH 20 0
BBX 0 0 0 0
BITMAP
ENDCHAR
STARTCHAR C027133
ENCODING 11867
SWIDTH 2000 0
DWIDTH 20 0
BBX 0 0 0 0
BITMAP
ENDCHAR
STARTCHAR C027134
ENCODING 11868
SWIDTH 2000 0
DWIDTH 20 0
BBX 0 0 0 0
BITMAP
ENDCHAR
STARTCHAR C027135
ENCODING 11869
SWIDTH 2000 0
DWIDTH 20 0
BBX 1 10 20 6
BITMAP
80
80
00
00
00
80
80
00
80
80
ENDCHAR
STARTCHAR C027136
ENCODING 11870
SWIDTH 2000 0
DWIDTH 20 0
BBX 0 0 0 0
BITMAP
ENDCHAR
STARTCHAR C027137
ENCODING 11871
SWIDTH 2000 0
DWIDTH 20 0
BBX 0 0 0 0
BITMAP
ENDCHAR
STARTCHAR C027140
ENCODING 11872
SWIDTH 2000 0
DWIDTH 20 0
BBX 0 0 0 0
BITMAP
ENDCHAR
STARTCHAR C027141
ENCODING 11873
SWIDTH 2000 0
DWIDTH 20 0
BBX 0 0 0 0
BITMAP
ENDCHAR
STARTCHAR C027142
ENCODING 11874
SWIDTH 2000 0
DWIDTH 20 0
BBX 1 9 20 -3
BITMAP
80
00
00
00
00
00
00
00
80
ENDCHAR
STARTCHAR C027143
ENCODING 11875
SWIDTH 2000 0
DWIDTH 20 0
BBX 0 0 0 0
BITMAP
ENDCHAR
STARTCHAR C027144
ENCODING 11876
SWIDTH 2000 0
DWIDTH 20 0
BBX 0 0 0 0
BITMAP
ENDCHAR
STARTCHAR C027145
ENCODING 11877
SWIDTH 2000 0
DWIDTH 20 0
BBX 0 0 0 0
BITMAP
ENDCHAR
STARTCHAR C027146
ENCODING 11878
SWIDTH 2000 0
DWIDTH 20 0
BBX 0 0 0 0
BITMAP
ENDCHAR
STARTCHAR C027147
ENCODING 11879
SWIDTH 2000 0
DWIDTH 20 0
BBX 1 16 20 -1
BITMAP
80
00
00
00
00
00
00
80
80
00
00
80
80
80
80
80
ENDCHAR
STARTCHAR C027150
ENCODING 11880
SWIDTH 2000 0
DWIDTH 20 0
BBX 0 0 0 0
BITMAP
ENDCHAR
STARTCHAR C027151
ENCODING 11881
SWIDTH 2000 0
DWIDTH 20 0
BBX 0 0 0 0
BITMAP
ENDCHAR
STARTCHAR C027152
ENCODING 11882
SWIDTH 2000 0
DWIDTH 20 0
BBX 0 0 0 0
BITMAP
ENDCHAR
STARTCHAR C027153
ENCODING 11883
SWIDTH 2000 0
DWIDTH 20 0
BBX 0 0 0 0
BITMAP
ENDCHAR
STARTCHAR C027154
ENCODING 11884
SWIDTH 2000 0
DWIDTH 20 0
BBX 1 10 20 6
BITMAP
80
80
00
00
00
80
80
00
80
80
ENDCHAR
STARTCHAR C027155
ENCODING 11885
SWIDTH 2000 0
DWIDTH 20 0
BBX 0 0 0 0
BITMAP
ENDCHAR
STARTCHAR C027156
ENCODING 11886
SWIDTH 2000 0
DWIDTH 20 0
BBX 0 0 0 0
BITMAP
ENDCHAR
STARTCHAR C027157
ENCODING 11887
SWIDTH 2000 0
DWIDTH 20 0
BBX 0 0 0 0
BITMAP
ENDCHAR
STARTCHAR C027160
ENCODING 11888
SWIDTH 2000 0
DWIDTH 20 0
BBX 0 0 0 0
BITMAP
ENDCHAR
STARTCHAR C027161
ENCODING 11889
SWIDTH 2000 0
DWIDTH 20 0
BBX 1 9 20 -3
BITMAP
80
00
00
00
00
00
00
00
80
ENDCHAR
STARTCHAR C027162
ENCODING 11890
SWIDTH 2000 0
DWIDTH 20 0
BBX 0 0 0 0
BITMAP
ENDCHAR
STARTCHAR C027163
ENCODING 11891
SWIDTH 2000 0
DWIDTH 20 0
BBX 0 0 0 0
BITMAP
ENDCHAR
STARTCHAR C027164
ENCODING 11892
SWIDTH 2000 0
DWIDTH 20 0
BBX 0 0 0 0
BITMAP
ENDCHAR
STARTCHAR C027165
ENCODING 11893
SWIDTH 2000 0
DWIDTH 20 0
BBX 0 0 0 0
BITMAP
ENDCHAR
STARTCHAR C027166
ENCODING 11894
SWIDTH 2000 0
DWIDTH 20 0
BBX 1 16 20 -1
BITMAP
80
00
00
00
00
00
00
80
80
00
00
80
80
80
80
80
ENDCHAR
STARTCHAR C027167
ENCODING 11895
SWIDTH 2000 0
DWIDTH 20 0
BBX 0 0 0 0
BITMAP
ENDCHAR
STARTCHAR C027170
ENCODING 11896
SWIDTH 2000 0
DWIDTH 20 0
BBX 0 0 0 0
BITMAP
ENDCHAR
STARTCHAR C027171
ENCODING 11897
SWIDTH 2000 0
DWIDTH 20 0
BBX 0 0 0 0
BITMAP
ENDCHAR
STARTCHAR C027172
ENCODING 11898
SWIDTH 2000 0
DWIDTH 20 0
BBX 0 0 0 0
BITMAP
ENDCHAR
STARTCHAR C027173
ENCODING 11899
SWIDTH 2000 0
DWIDTH 20 0
BBX 1 10 20 6
BITMAP
80
80
00
00
00
80
80
00
80
80
ENDCHAR
STARTCHAR C027174
ENCODING 11900
SWIDTH 2000 0
DWIDTH 20 0
BBX 0 0 0 0
BITMAP
ENDCHAR
STARTCHAR C027175
ENCODING 11901
SWIDTH 2000 0
DWIDTH 20 0
BBX 0 0 0 0
BITMAP
ENDCHAR
STARTCHAR C027176
ENCODING 11902
SWIDTH 2000 0
DWIDTH 20 0
BBX 0 0 0 0
BITMAP
ENDCHAR
STARTCHAR C027177
ENCODING 11903
SWIDTH 2000 0
DWIDTH 20 0
BBX 0 0 0 0
BITMAP
ENDCHAR
STARTCHAR C027440
ENCODING 12064
SWIDTH 2000 0
DWIDTH 20 0
BBX 1 9 20 -3
BITMAP
80
00
00
00
00
00
00
00
80
ENDCHAR
STARTCHAR C027441
ENCODING 12065
SWIDTH 2000 0
DWIDTH 20 0
BBX 0 0 0 0
BITMAP
ENDCHAR
STARTCHAR C027442
ENCODING 12066
SWIDTH 2000 0
DWIDTH 20 0
BBX 0 0 0 0
BITMAP
ENDCHAR
STARTCHAR C027443
ENCODING 12067
SWIDTH 2000 0
DWIDTH 20 0
BBX 0 0 0 0
BITMAP
ENDCHAR
STARTCHAR C027444
ENCODING 12068
SWIDTH 2000 0
DWIDTH 20 0
BBX 0 0 0 0
BITMAP
ENDCHAR
STARTCHAR C027445
ENCODING 12069
SWIDTH 2000 0
DWIDTH 20 0
BBX 1 16 20 -1
BITMAP
80
00
00
00
00
00
00
80
80
00
00
80
80
80
80
80
ENDCHAR
STARTCHAR C027446
ENCODING 12070
SWIDTH 2000 0
DWIDTH 20 0
BBX 0 0 0 0
BITMAP
ENDCHAR
STARTCHAR C027447
ENCODING 12071
SWIDTH 2000 0
DWIDTH 20 0
BBX 0 0 0 0
BITMAP
ENDCHAR
STARTCHAR C027450
ENCODING 12072
SWIDTH 2000 0
DWIDTH 20 0
BBX 0 0 0 0
BITMAP
ENDCHAR
STARTCHAR C027451
ENCODING 12073
SWIDTH 2000 0
DWIDTH 20 0
BBX 0 0 0 0
BITMAP
ENDCHAR
STARTCHAR C027452
ENCODING 12074
SWIDTH 2000 0
DWIDTH 20 0
BBX 1 10 20 6
BITMAP
80
80
00
00
00
80
80
00
80
80
ENDCHAR
STARTCHAR C027453
ENCODING 12075
SWIDTH 2000 0
DWIDTH 20 0
BBX 0 0 0 0
BITMAP
ENDCHAR
STARTCHAR C027454
ENCODING 12076
SWIDTH 2000 0
DWIDTH 20 0
BBX 0 0 0 0
BITMAP
ENDCHAR
STARTCHAR C027455
ENCODING 12077
SWIDTH 2000 0
DWIDTH 20 0
BBX 0 0 0 0
BITMAP
ENDCHAR
STARTCHAR C027456
ENCODING 12078
SWIDTH 2000 0
DWIDTH 20 0
BBX 0 0 0 0
BITMAP
ENDCHAR
STARTCHAR C027457
ENCODING 12079
SWIDTH 2000 0
DWIDTH 20 0
BBX 1 9 20 -3
BITMAP
80
00
00
00
00
00
00
00
80
ENDCHAR
STARTCHAR C027460
ENCODING 12080
SWIDTH 2000 0
DWIDTH 20 0
BBX 0 0 0 0
BITMAP
ENDCHAR
STARTCHAR C027461
ENCODING 12081
SWIDTH 2000 0
DWIDTH 20 0
BBX 0 0 0 0
BITMAP
ENDCHAR
STARTCHAR C027462
ENCODING 12082
SWIDTH 2000 0
DWIDTH 20 0
BBX 0 0 0 0
BITMAP
ENDCHAR
STARTCHAR C027463
ENCODING 12083
SWIDTH 2000 0
DWIDTH 20 0
BBX 0 0 0 0
BITMAP
ENDCHAR
STARTCHAR C027464
ENCODING 12084
SWIDTH 2000 0
DWIDTH 20 0
BBX 1 16 20 -1
BITMAP
80
00
00
00
00
00
00
80
80
00
00
80
80
80
80
80
ENDCHAR
STARTCHAR C027465
ENCODING 12085
SWIDTH 2000 0
DWIDTH 20 0
BBX 0 0 0 0
BITMAP
ENDCHAR
STARTCHAR C027466
ENCODING 12086
SWIDTH 2000 0
DWIDTH 20 0
BBX 0 0 0 0
BITMAP
ENDCHAR
STARTCHAR C027467
ENCODING 12087
SWIDTH 2000 0
DWIDTH 20 0
BBX 0 0 0 0
BITMAP
ENDCHAR
STARTCHAR C027470
ENCODING 12088
SWIDTH 2000 0
DWIDTH 20 0
BBX 0 0 0 0
BITMAP
ENDCHAR
STARTCHAR C027471
ENCODING 12089
SWIDTH 2000 0
DWIDTH 20 0
BBX 1 10 20 6
BITMAP
80
80
00
00
00
80
80
00
80
80
ENDCHAR
STARTCHAR C027472
ENCODING 12090
SWIDTH 2000 0
DWIDTH 20 0
BBX 0 0 0 0
BITMAP
ENDCHAR
ENDFONT
